# L-Bracket — generated by Menno Creator Kit
# Coordinates are metres; FreeCAD Z-up becomes Godot Y-up.
o L_Bracket
v 0.0040000 0.0350000 -0.0300000
v 0.0000000 0.0350000 -0.0300000
v 0.0000000 0.0350000 -0.0000000
v 0.0040000 0.0350000 -0.0000000
v 0.0040000 0.0040000 -0.0000000
v 0.0040000 0.0040000 -0.0300000
v 0.0500000 0.0040000 -0.0000000
v 0.0500000 0.0000000 -0.0000000
v 0.0500000 0.0000000 -0.0300000
v 0.0500000 0.0040000 -0.0300000
v 0.0000000 0.0000000 -0.0000000
v 0.0000000 0.0000000 -0.0300000
f 1 2 3
f 1 3 4
f 4 5 6
f 4 6 1
f 7 8 9
f 7 9 10
f 10 6 5
f 10 5 7
f 11 3 2
f 11 2 12
f 5 4 3
f 5 3 11
f 8 7 5
f 8 5 11
f 2 6 12
f 1 6 2
f 9 12 6
f 10 9 6
f 11 9 8
f 12 9 11
