# Raised Handle — generated by Menno Creator Kit
# Coordinates are metres; FreeCAD Z-up becomes Godot Y-up.
o Raised_Handle
v 0.0086862 0.0250000 -0.0010362
v 0.0611716 0.0250000 -0.0011716
v 0.0613138 0.0250000 -0.0010362
v 0.0614624 0.0250000 -0.0009080
v 0.0088284 0.0250000 -0.0011716
v 0.0089638 0.0250000 -0.0013138
v 0.0610362 0.0250000 -0.0013138
v 0.0090920 0.0250000 -0.0014624
v 0.0609080 0.0250000 -0.0014624
v 0.0085376 0.0250000 -0.0009080
v 0.0092128 0.0250000 -0.0016172
v 0.0607872 0.0250000 -0.0016172
v 0.0083828 0.0250000 -0.0007872
v 0.0616172 0.0250000 -0.0007872
v 0.0093259 0.0250000 -0.0017777
v 0.0606741 0.0250000 -0.0017777
v 0.0082223 0.0250000 -0.0006741
v 0.0617777 0.0250000 -0.0006741
v 0.0094309 0.0250000 -0.0019436
v 0.0605691 0.0250000 -0.0019436
v 0.0080564 0.0250000 -0.0005691
v 0.0619436 0.0250000 -0.0005691
v 0.0095277 0.0250000 -0.0021144
v 0.0603840 0.0250000 -0.0022898
v 0.0604723 0.0250000 -0.0021144
v 0.0078856 0.0250000 -0.0004723
v 0.0621144 0.0250000 -0.0004723
v 0.0096160 0.0250000 -0.0022898
v 0.0077102 0.0250000 -0.0003840
v 0.0622898 0.0250000 -0.0003840
v 0.0096955 0.0250000 -0.0024693
v 0.0603045 0.0250000 -0.0024693
v 0.0075307 0.0250000 -0.0003045
v 0.0624693 0.0250000 -0.0003045
v 0.0097662 0.0250000 -0.0026524
v 0.0602338 0.0250000 -0.0026524
v 0.0073476 0.0250000 -0.0002338
v 0.0626524 0.0250000 -0.0002338
v 0.0071611 0.0250000 -0.0001722
v 0.0628389 0.0250000 -0.0001722
v 0.0098278 0.0250000 -0.0028389
v 0.0601722 0.0250000 -0.0028389
v 0.0098801 0.0250000 -0.0030281
v 0.0600769 0.0250000 -0.0032196
v 0.0601199 0.0250000 -0.0030281
v 0.0069719 0.0250000 -0.0001199
v 0.0630281 0.0250000 -0.0001199
v 0.0099231 0.0250000 -0.0032196
v 0.0067804 0.0250000 -0.0000769
v 0.0632196 0.0250000 -0.0000769
v 0.0099567 0.0250000 -0.0034131
v 0.0600433 0.0250000 -0.0034131
v 0.0065869 0.0250000 -0.0000433
v 0.0634131 0.0250000 -0.0000433
v 0.0099807 0.0250000 -0.0036079
v 0.0600193 0.0250000 -0.0036079
v 0.0063921 0.0250000 -0.0000193
v 0.0636079 0.0250000 -0.0000193
v 0.0099952 0.0250000 -0.0038037
v 0.0600000 0.0250000 -0.0040000
v 0.0600048 0.0250000 -0.0038037
v 0.0100000 0.0250000 -0.0040000
v 0.0100000 0.0250000 -0.0100000
v 0.0600000 0.0250000 -0.0100000
v 0.0099952 0.0250000 -0.0101963
v 0.0600193 0.0250000 -0.0103921
v 0.0600048 0.0250000 -0.0101963
v 0.0099807 0.0250000 -0.0103921
v 0.0099567 0.0250000 -0.0105869
v 0.0600769 0.0250000 -0.0107804
v 0.0600433 0.0250000 -0.0105869
v 0.0099231 0.0250000 -0.0107804
v 0.0098801 0.0250000 -0.0109719
v 0.0601199 0.0250000 -0.0109719
v 0.0098278 0.0250000 -0.0111611
v 0.0602338 0.0250000 -0.0113476
v 0.0601722 0.0250000 -0.0111611
v 0.0097662 0.0250000 -0.0113476
v 0.0096955 0.0250000 -0.0115307
v 0.0603045 0.0250000 -0.0115307
v 0.0096160 0.0250000 -0.0117102
v 0.0603840 0.0250000 -0.0117102
v 0.0095277 0.0250000 -0.0118856
v 0.0605691 0.0250000 -0.0120564
v 0.0604723 0.0250000 -0.0118856
v 0.0094309 0.0250000 -0.0120564
v 0.0093259 0.0250000 -0.0122223
v 0.0606741 0.0250000 -0.0122223
v 0.0092128 0.0250000 -0.0123828
v 0.0607872 0.0250000 -0.0123828
v 0.0090920 0.0250000 -0.0125376
v 0.0610362 0.0250000 -0.0126862
v 0.0609080 0.0250000 -0.0125376
v 0.0089638 0.0250000 -0.0126862
v 0.0640000 0.0250000 -0.0000000
v 0.0060000 0.0250000 -0.0000000
v 0.0061963 0.0250000 -0.0000048
v 0.0638037 0.0250000 -0.0000048
v 0.0060000 0.0250000 -0.0140000
v 0.0640000 0.0250000 -0.0140000
v 0.0638037 0.0250000 -0.0139952
v 0.0061963 0.0250000 -0.0139952
v 0.0636079 0.0250000 -0.0139807
v 0.0063921 0.0250000 -0.0139807
v 0.0634131 0.0250000 -0.0139567
v 0.0065869 0.0250000 -0.0139567
v 0.0632196 0.0250000 -0.0139231
v 0.0067804 0.0250000 -0.0139231
v 0.0630281 0.0250000 -0.0138801
v 0.0069719 0.0250000 -0.0138801
v 0.0071611 0.0250000 -0.0138278
v 0.0628389 0.0250000 -0.0138278
v 0.0073476 0.0250000 -0.0137662
v 0.0626524 0.0250000 -0.0137662
v 0.0624693 0.0250000 -0.0136955
v 0.0075307 0.0250000 -0.0136955
v 0.0622898 0.0250000 -0.0136160
v 0.0077102 0.0250000 -0.0136160
v 0.0621144 0.0250000 -0.0135277
v 0.0078856 0.0250000 -0.0135277
v 0.0619436 0.0250000 -0.0134309
v 0.0080564 0.0250000 -0.0134309
v 0.0617777 0.0250000 -0.0133259
v 0.0082223 0.0250000 -0.0133259
v 0.0616172 0.0250000 -0.0132128
v 0.0083828 0.0250000 -0.0132128
v 0.0614624 0.0250000 -0.0130920
v 0.0085376 0.0250000 -0.0130920
v 0.0613138 0.0250000 -0.0129638
v 0.0086862 0.0250000 -0.0129638
v 0.0611716 0.0250000 -0.0128284
v 0.0088284 0.0250000 -0.0128284
v 0.0600000 0.0000000 -0.0040000
v 0.0600048 0.0000000 -0.0038037
v 0.0600193 0.0000000 -0.0036079
v 0.0600433 0.0000000 -0.0034131
v 0.0600769 0.0000000 -0.0032196
v 0.0601199 0.0000000 -0.0030281
v 0.0601722 0.0000000 -0.0028389
v 0.0602338 0.0000000 -0.0026524
v 0.0603045 0.0000000 -0.0024693
v 0.0603840 0.0000000 -0.0022898
v 0.0604723 0.0000000 -0.0021144
v 0.0605691 0.0000000 -0.0019436
v 0.0606741 0.0000000 -0.0017777
v 0.0607872 0.0000000 -0.0016172
v 0.0609080 0.0000000 -0.0014624
v 0.0610362 0.0000000 -0.0013138
v 0.0611716 0.0000000 -0.0011716
v 0.0613138 0.0000000 -0.0010362
v 0.0614624 0.0000000 -0.0009080
v 0.0616172 0.0000000 -0.0007872
v 0.0617777 0.0000000 -0.0006741
v 0.0619436 0.0000000 -0.0005691
v 0.0621144 0.0000000 -0.0004723
v 0.0622898 0.0000000 -0.0003840
v 0.0624693 0.0000000 -0.0003045
v 0.0626524 0.0000000 -0.0002338
v 0.0628389 0.0000000 -0.0001722
v 0.0630281 0.0000000 -0.0001199
v 0.0632196 0.0000000 -0.0000769
v 0.0634131 0.0000000 -0.0000433
v 0.0636079 0.0000000 -0.0000193
v 0.0638037 0.0000000 -0.0000048
v 0.0640000 0.0000000 -0.0000000
v 0.0600000 0.0000000 -0.0100000
v 0.0640000 0.0000000 -0.0140000
v 0.0638037 0.0000000 -0.0139952
v 0.0636079 0.0000000 -0.0139807
v 0.0634131 0.0000000 -0.0139567
v 0.0632196 0.0000000 -0.0139231
v 0.0630281 0.0000000 -0.0138801
v 0.0628389 0.0000000 -0.0138278
v 0.0626524 0.0000000 -0.0137662
v 0.0624693 0.0000000 -0.0136955
v 0.0622898 0.0000000 -0.0136160
v 0.0621144 0.0000000 -0.0135277
v 0.0619436 0.0000000 -0.0134309
v 0.0617777 0.0000000 -0.0133259
v 0.0616172 0.0000000 -0.0132128
v 0.0614624 0.0000000 -0.0130920
v 0.0613138 0.0000000 -0.0129638
v 0.0611716 0.0000000 -0.0128284
v 0.0610362 0.0000000 -0.0126862
v 0.0609080 0.0000000 -0.0125376
v 0.0607872 0.0000000 -0.0123828
v 0.0606741 0.0000000 -0.0122223
v 0.0605691 0.0000000 -0.0120564
v 0.0604723 0.0000000 -0.0118856
v 0.0603840 0.0000000 -0.0117102
v 0.0603045 0.0000000 -0.0115307
v 0.0602338 0.0000000 -0.0113476
v 0.0601722 0.0000000 -0.0111611
v 0.0601199 0.0000000 -0.0109719
v 0.0600769 0.0000000 -0.0107804
v 0.0600433 0.0000000 -0.0105869
v 0.0600193 0.0000000 -0.0103921
v 0.0600048 0.0000000 -0.0101963
v 0.0100000 0.0000000 -0.0100000
v 0.0099952 0.0000000 -0.0101963
v 0.0099807 0.0000000 -0.0103921
v 0.0099567 0.0000000 -0.0105869
v 0.0099231 0.0000000 -0.0107804
v 0.0098801 0.0000000 -0.0109719
v 0.0098278 0.0000000 -0.0111611
v 0.0097662 0.0000000 -0.0113476
v 0.0096955 0.0000000 -0.0115307
v 0.0096160 0.0000000 -0.0117102
v 0.0095277 0.0000000 -0.0118856
v 0.0094309 0.0000000 -0.0120564
v 0.0093259 0.0000000 -0.0122223
v 0.0092128 0.0000000 -0.0123828
v 0.0090920 0.0000000 -0.0125376
v 0.0089638 0.0000000 -0.0126862
v 0.0088284 0.0000000 -0.0128284
v 0.0086862 0.0000000 -0.0129638
v 0.0085376 0.0000000 -0.0130920
v 0.0083828 0.0000000 -0.0132128
v 0.0082223 0.0000000 -0.0133259
v 0.0080564 0.0000000 -0.0134309
v 0.0078856 0.0000000 -0.0135277
v 0.0077102 0.0000000 -0.0136160
v 0.0075307 0.0000000 -0.0136955
v 0.0073476 0.0000000 -0.0137662
v 0.0071611 0.0000000 -0.0138278
v 0.0069719 0.0000000 -0.0138801
v 0.0067804 0.0000000 -0.0139231
v 0.0065869 0.0000000 -0.0139567
v 0.0063921 0.0000000 -0.0139807
v 0.0061963 0.0000000 -0.0139952
v 0.0060000 0.0000000 -0.0140000
v 0.0100000 0.0000000 -0.0040000
v 0.0060000 0.0000000 -0.0000000
v 0.0061963 0.0000000 -0.0000048
v 0.0063921 0.0000000 -0.0000193
v 0.0065869 0.0000000 -0.0000433
v 0.0067804 0.0000000 -0.0000769
v 0.0069719 0.0000000 -0.0001199
v 0.0071611 0.0000000 -0.0001722
v 0.0073476 0.0000000 -0.0002338
v 0.0075307 0.0000000 -0.0003045
v 0.0077102 0.0000000 -0.0003840
v 0.0078856 0.0000000 -0.0004723
v 0.0080564 0.0000000 -0.0005691
v 0.0082223 0.0000000 -0.0006741
v 0.0083828 0.0000000 -0.0007872
v 0.0085376 0.0000000 -0.0009080
v 0.0086862 0.0000000 -0.0010362
v 0.0088284 0.0000000 -0.0011716
v 0.0089638 0.0000000 -0.0013138
v 0.0090920 0.0000000 -0.0014624
v 0.0092128 0.0000000 -0.0016172
v 0.0093259 0.0000000 -0.0017777
v 0.0094309 0.0000000 -0.0019436
v 0.0095277 0.0000000 -0.0021144
v 0.0096160 0.0000000 -0.0022898
v 0.0096955 0.0000000 -0.0024693
v 0.0097662 0.0000000 -0.0026524
v 0.0098278 0.0000000 -0.0028389
v 0.0098801 0.0000000 -0.0030281
v 0.0099231 0.0000000 -0.0032196
v 0.0099567 0.0000000 -0.0034131
v 0.0099807 0.0000000 -0.0036079
v 0.0099952 0.0000000 -0.0038037
v 0.0040000 0.0000000 -0.0000000
v 0.0036079 0.0000000 -0.0000193
v 0.0038037 0.0000000 -0.0000048
v 0.0032196 0.0000000 -0.0000769
v 0.0034131 0.0000000 -0.0000433
v 0.0024693 0.0000000 -0.0003045
v 0.0028389 0.0000000 -0.0001722
v 0.0026524 0.0000000 -0.0002338
v 0.0030281 0.0000000 -0.0001199
v 0.0021144 0.0000000 -0.0004723
v 0.0022898 0.0000000 -0.0003840
v 0.0017777 0.0000000 -0.0006741
v 0.0019436 0.0000000 -0.0005691
v 0.0013138 0.0000000 -0.0010362
v 0.0016172 0.0000000 -0.0007872
v 0.0014624 0.0000000 -0.0009080
v 0.0010362 0.0000000 -0.0013138
v 0.0011716 0.0000000 -0.0011716
v 0.0009080 0.0000000 -0.0014624
v 0.0007872 0.0000000 -0.0016172
v 0.0005691 0.0000000 -0.0019436
v 0.0006741 0.0000000 -0.0017777
v 0.0004723 0.0000000 -0.0021144
v 0.0002338 0.0000000 -0.0026524
v 0.0003840 0.0000000 -0.0022898
v 0.0003045 0.0000000 -0.0024693
v 0.0001722 0.0000000 -0.0028389
v 0.0000433 0.0000000 -0.0034131
v 0.0001199 0.0000000 -0.0030281
v 0.0000769 0.0000000 -0.0032196
v 0.0000048 0.0000000 -0.0038037
v 0.0000193 0.0000000 -0.0036079
v 0.0000000 0.0000000 -0.0040000
v 0.0000000 0.0000000 -0.0100000
v 0.0040000 0.0000000 -0.0140000
v 0.0000193 0.0000000 -0.0103921
v 0.0000048 0.0000000 -0.0101963
v 0.0034131 0.0000000 -0.0139567
v 0.0036079 0.0000000 -0.0139807
v 0.0038037 0.0000000 -0.0139952
v 0.0000433 0.0000000 -0.0105869
v 0.0032196 0.0000000 -0.0139231
v 0.0026524 0.0000000 -0.0137662
v 0.0030281 0.0000000 -0.0138801
v 0.0028389 0.0000000 -0.0138278
v 0.0002338 0.0000000 -0.0113476
v 0.0001199 0.0000000 -0.0109719
v 0.0001722 0.0000000 -0.0111611
v 0.0000769 0.0000000 -0.0107804
v 0.0022898 0.0000000 -0.0136160
v 0.0024693 0.0000000 -0.0136955
v 0.0003840 0.0000000 -0.0117102
v 0.0003045 0.0000000 -0.0115307
v 0.0021144 0.0000000 -0.0135277
v 0.0017777 0.0000000 -0.0133259
v 0.0019436 0.0000000 -0.0134309
v 0.0006741 0.0000000 -0.0122223
v 0.0004723 0.0000000 -0.0118856
v 0.0005691 0.0000000 -0.0120564
v 0.0007872 0.0000000 -0.0123828
v 0.0014624 0.0000000 -0.0130920
v 0.0016172 0.0000000 -0.0132128
v 0.0013138 0.0000000 -0.0129638
v 0.0010362 0.0000000 -0.0126862
v 0.0009080 0.0000000 -0.0125376
v 0.0011716 0.0000000 -0.0128284
v 0.0692128 0.0000000 -0.0016172
v 0.0690920 0.0000000 -0.0014624
v 0.0689638 0.0000000 -0.0013138
v 0.0683828 0.0000000 -0.0007872
v 0.0686862 0.0000000 -0.0010362
v 0.0685376 0.0000000 -0.0009080
v 0.0688284 0.0000000 -0.0011716
v 0.0680564 0.0000000 -0.0005691
v 0.0682223 0.0000000 -0.0006741
v 0.0678856 0.0000000 -0.0004723
v 0.0696160 0.0000000 -0.0022898
v 0.0695277 0.0000000 -0.0021144
v 0.0694309 0.0000000 -0.0019436
v 0.0673476 0.0000000 -0.0002338
v 0.0677102 0.0000000 -0.0003840
v 0.0675307 0.0000000 -0.0003045
v 0.0698278 0.0000000 -0.0028389
v 0.0696955 0.0000000 -0.0024693
v 0.0697662 0.0000000 -0.0026524
v 0.0671611 0.0000000 -0.0001722
v 0.0698801 0.0000000 -0.0030281
v 0.0693259 0.0000000 -0.0017777
v 0.0699807 0.0000000 -0.0036079
v 0.0699231 0.0000000 -0.0032196
v 0.0699567 0.0000000 -0.0034131
v 0.0661963 0.0000000 -0.0000048
v 0.0665869 0.0000000 -0.0000433
v 0.0663921 0.0000000 -0.0000193
v 0.0667804 0.0000000 -0.0000769
v 0.0669719 0.0000000 -0.0001199
v 0.0660000 0.0000000 -0.0000000
v 0.0700000 0.0000000 -0.0040000
v 0.0699952 0.0000000 -0.0038037
v 0.0699807 0.0000000 -0.0103921
v 0.0699952 0.0000000 -0.0101963
v 0.0700000 0.0000000 -0.0100000
v 0.0698801 0.0000000 -0.0109719
v 0.0699567 0.0000000 -0.0105869
v 0.0699231 0.0000000 -0.0107804
v 0.0696955 0.0000000 -0.0115307
v 0.0698278 0.0000000 -0.0111611
v 0.0697662 0.0000000 -0.0113476
v 0.0695277 0.0000000 -0.0118856
v 0.0696160 0.0000000 -0.0117102
v 0.0693259 0.0000000 -0.0122223
v 0.0694309 0.0000000 -0.0120564
v 0.0692128 0.0000000 -0.0123828
v 0.0686862 0.0000000 -0.0129638
v 0.0690920 0.0000000 -0.0125376
v 0.0689638 0.0000000 -0.0126862
v 0.0688284 0.0000000 -0.0128284
v 0.0682223 0.0000000 -0.0133259
v 0.0685376 0.0000000 -0.0130920
v 0.0683828 0.0000000 -0.0132128
v 0.0678856 0.0000000 -0.0135277
v 0.0680564 0.0000000 -0.0134309
v 0.0675307 0.0000000 -0.0136955
v 0.0677102 0.0000000 -0.0136160
v 0.0671611 0.0000000 -0.0138278
v 0.0673476 0.0000000 -0.0137662
v 0.0667804 0.0000000 -0.0139231
v 0.0669719 0.0000000 -0.0138801
v 0.0660000 0.0000000 -0.0140000
v 0.0665869 0.0000000 -0.0139567
v 0.0663921 0.0000000 -0.0139807
v 0.0661963 0.0000000 -0.0139952
v 0.0040000 0.0350000 -0.0000000
v 0.0660000 0.0350000 -0.0000000
v 0.0013138 0.0350000 -0.0010362
v 0.0010362 0.0350000 -0.0013138
v 0.0011716 0.0350000 -0.0011716
v 0.0009080 0.0350000 -0.0014624
v 0.0016172 0.0350000 -0.0007872
v 0.0014624 0.0350000 -0.0009080
v 0.0017777 0.0350000 -0.0006741
v 0.0005691 0.0350000 -0.0019436
v 0.0006741 0.0350000 -0.0017777
v 0.0007872 0.0350000 -0.0016172
v 0.0021144 0.0350000 -0.0004723
v 0.0019436 0.0350000 -0.0005691
v 0.0003840 0.0350000 -0.0022898
v 0.0004723 0.0350000 -0.0021144
v 0.0003045 0.0350000 -0.0024693
v 0.0026524 0.0350000 -0.0002338
v 0.0022898 0.0350000 -0.0003840
v 0.0024693 0.0350000 -0.0003045
v 0.0001722 0.0350000 -0.0028389
v 0.0002338 0.0350000 -0.0026524
v 0.0030281 0.0350000 -0.0001199
v 0.0028389 0.0350000 -0.0001722
v 0.0000769 0.0350000 -0.0032196
v 0.0001199 0.0350000 -0.0030281
v 0.0034131 0.0350000 -0.0000433
v 0.0032196 0.0350000 -0.0000769
v 0.0000433 0.0350000 -0.0034131
v 0.0036079 0.0350000 -0.0000193
v 0.0038037 0.0350000 -0.0000048
v 0.0000000 0.0350000 -0.0040000
v 0.0000048 0.0350000 -0.0038037
v 0.0000193 0.0350000 -0.0036079
v 0.0000433 0.0350000 -0.0105869
v 0.0000193 0.0350000 -0.0103921
v 0.0000048 0.0350000 -0.0101963
v 0.0000000 0.0350000 -0.0100000
v 0.0001199 0.0350000 -0.0109719
v 0.0000769 0.0350000 -0.0107804
v 0.0003045 0.0350000 -0.0115307
v 0.0002338 0.0350000 -0.0113476
v 0.0001722 0.0350000 -0.0111611
v 0.0004723 0.0350000 -0.0118856
v 0.0003840 0.0350000 -0.0117102
v 0.0009080 0.0350000 -0.0125376
v 0.0007872 0.0350000 -0.0123828
v 0.0006741 0.0350000 -0.0122223
v 0.0005691 0.0350000 -0.0120564
v 0.0010362 0.0350000 -0.0126862
v 0.0011716 0.0350000 -0.0128284
v 0.0014624 0.0350000 -0.0130920
v 0.0013138 0.0350000 -0.0129638
v 0.0017777 0.0350000 -0.0133259
v 0.0016172 0.0350000 -0.0132128
v 0.0021144 0.0350000 -0.0135277
v 0.0019436 0.0350000 -0.0134309
v 0.0022898 0.0350000 -0.0136160
v 0.0026524 0.0350000 -0.0137662
v 0.0024693 0.0350000 -0.0136955
v 0.0028389 0.0350000 -0.0138278
v 0.0032196 0.0350000 -0.0139231
v 0.0030281 0.0350000 -0.0138801
v 0.0036079 0.0350000 -0.0139807
v 0.0034131 0.0350000 -0.0139567
v 0.0038037 0.0350000 -0.0139952
v 0.0040000 0.0350000 -0.0140000
v 0.0673476 0.0350000 -0.0002338
v 0.0667804 0.0350000 -0.0000769
v 0.0669719 0.0350000 -0.0001199
v 0.0671611 0.0350000 -0.0001722
v 0.0678856 0.0350000 -0.0004723
v 0.0661963 0.0350000 -0.0000048
v 0.0663921 0.0350000 -0.0000193
v 0.0665869 0.0350000 -0.0000433
v 0.0675307 0.0350000 -0.0003045
v 0.0677102 0.0350000 -0.0003840
v 0.0682223 0.0350000 -0.0006741
v 0.0680564 0.0350000 -0.0005691
v 0.0683828 0.0350000 -0.0007872
v 0.0685376 0.0350000 -0.0009080
v 0.0688284 0.0350000 -0.0011716
v 0.0686862 0.0350000 -0.0010362
v 0.0692128 0.0350000 -0.0016172
v 0.0689638 0.0350000 -0.0013138
v 0.0690920 0.0350000 -0.0014624
v 0.0693259 0.0350000 -0.0017777
v 0.0694309 0.0350000 -0.0019436
v 0.0697662 0.0350000 -0.0026524
v 0.0695277 0.0350000 -0.0021144
v 0.0696160 0.0350000 -0.0022898
v 0.0696955 0.0350000 -0.0024693
v 0.0699567 0.0350000 -0.0034131
v 0.0698278 0.0350000 -0.0028389
v 0.0698801 0.0350000 -0.0030281
v 0.0699231 0.0350000 -0.0032196
v 0.0699952 0.0350000 -0.0038037
v 0.0699807 0.0350000 -0.0036079
v 0.0700000 0.0350000 -0.0040000
v 0.0700000 0.0350000 -0.0100000
v 0.0660000 0.0350000 -0.0140000
v 0.0699567 0.0350000 -0.0105869
v 0.0699952 0.0350000 -0.0101963
v 0.0699807 0.0350000 -0.0103921
v 0.0665869 0.0350000 -0.0139567
v 0.0663921 0.0350000 -0.0139807
v 0.0661963 0.0350000 -0.0139952
v 0.0699231 0.0350000 -0.0107804
v 0.0667804 0.0350000 -0.0139231
v 0.0698801 0.0350000 -0.0109719
v 0.0698278 0.0350000 -0.0111611
v 0.0671611 0.0350000 -0.0138278
v 0.0669719 0.0350000 -0.0138801
v 0.0697662 0.0350000 -0.0113476
v 0.0673476 0.0350000 -0.0137662
v 0.0675307 0.0350000 -0.0136955
v 0.0696160 0.0350000 -0.0117102
v 0.0696955 0.0350000 -0.0115307
v 0.0695277 0.0350000 -0.0118856
v 0.0678856 0.0350000 -0.0135277
v 0.0677102 0.0350000 -0.0136160
v 0.0680564 0.0350000 -0.0134309
v 0.0693259 0.0350000 -0.0122223
v 0.0694309 0.0350000 -0.0120564
v 0.0692128 0.0350000 -0.0123828
v 0.0683828 0.0350000 -0.0132128
v 0.0682223 0.0350000 -0.0133259
v 0.0685376 0.0350000 -0.0130920
v 0.0690920 0.0350000 -0.0125376
v 0.0688284 0.0350000 -0.0128284
v 0.0689638 0.0350000 -0.0126862
v 0.0686862 0.0350000 -0.0129638
f 1 2 3
f 1 3 4
f 1 5 2
f 6 7 2
f 6 2 5
f 8 9 7
f 8 7 6
f 10 1 4
f 11 12 9
f 11 9 8
f 13 4 14
f 13 10 4
f 15 16 12
f 15 12 11
f 17 14 18
f 17 13 14
f 19 20 16
f 19 16 15
f 21 18 22
f 21 17 18
f 23 24 25
f 23 25 20
f 23 20 19
f 26 21 22
f 26 22 27
f 28 24 23
f 29 27 30
f 29 26 27
f 31 32 24
f 31 24 28
f 33 30 34
f 33 29 30
f 35 36 32
f 35 32 31
f 37 34 38
f 37 33 34
f 39 38 40
f 39 37 38
f 41 42 36
f 41 36 35
f 43 44 45
f 43 45 42
f 43 42 41
f 46 40 47
f 46 39 40
f 48 44 43
f 49 46 47
f 49 47 50
f 51 52 44
f 51 44 48
f 53 50 54
f 53 49 50
f 55 56 52
f 55 52 51
f 57 53 54
f 57 54 58
f 59 60 61
f 59 61 56
f 59 56 55
f 62 60 59
f 63 60 62
f 63 64 60
f 65 64 63
f 65 66 67
f 65 67 64
f 68 66 65
f 69 66 68
f 69 70 71
f 69 71 66
f 72 70 69
f 73 70 72
f 73 74 70
f 75 74 73
f 75 76 77
f 75 77 74
f 78 76 75
f 79 76 78
f 79 80 76
f 81 80 79
f 81 82 80
f 83 82 81
f 83 84 85
f 83 85 82
f 86 84 83
f 87 84 86
f 87 88 84
f 89 88 87
f 89 90 88
f 91 90 89
f 91 92 93
f 91 93 90
f 94 92 91
f 95 96 97
f 95 97 98
f 98 97 57
f 98 57 58
f 99 100 101
f 99 101 102
f 102 101 103
f 102 103 104
f 104 103 105
f 104 105 106
f 106 105 107
f 106 107 108
f 108 107 109
f 108 109 110
f 110 109 111
f 111 109 112
f 111 112 113
f 113 112 114
f 113 114 115
f 113 115 116
f 116 115 117
f 116 117 118
f 118 117 119
f 118 119 120
f 120 119 121
f 120 121 122
f 122 121 123
f 122 123 124
f 124 123 125
f 124 125 126
f 126 125 127
f 126 127 128
f 128 127 129
f 128 129 130
f 130 129 131
f 130 131 132
f 132 131 92
f 132 92 94
f 61 60 133
f 61 133 134
f 56 134 135
f 56 61 134
f 52 135 136
f 52 136 137
f 52 56 135
f 44 52 137
f 45 137 138
f 45 44 137
f 42 138 139
f 42 45 138
f 36 139 140
f 36 42 139
f 32 140 141
f 32 36 140
f 24 32 141
f 24 141 142
f 24 142 143
f 25 24 143
f 25 143 144
f 20 25 144
f 16 20 144
f 16 144 145
f 12 16 145
f 12 145 146
f 9 12 146
f 9 146 147
f 7 9 147
f 7 147 148
f 2 7 148
f 2 148 149
f 3 2 149
f 3 149 150
f 4 3 150
f 4 150 151
f 14 4 151
f 14 151 152
f 18 14 152
f 18 152 153
f 18 153 154
f 22 154 155
f 22 18 154
f 27 22 155
f 30 155 156
f 30 27 155
f 34 156 157
f 34 157 158
f 34 30 156
f 38 34 158
f 40 158 159
f 40 38 158
f 47 159 160
f 47 40 159
f 50 160 161
f 50 47 160
f 54 161 162
f 54 50 161
f 58 162 163
f 58 163 164
f 58 54 162
f 98 164 165
f 98 58 164
f 95 98 165
f 133 60 166
f 166 60 64
f 100 167 168
f 101 100 168
f 103 168 169
f 103 101 168
f 105 169 170
f 105 103 169
f 107 170 171
f 107 105 170
f 109 171 172
f 109 172 173
f 109 107 171
f 112 109 173
f 114 173 174
f 114 112 173
f 115 174 175
f 115 114 174
f 117 115 175
f 117 175 176
f 117 176 177
f 119 117 177
f 119 177 178
f 121 119 178
f 123 121 178
f 123 178 179
f 125 123 179
f 125 179 180
f 125 180 181
f 127 125 181
f 129 127 181
f 129 181 182
f 131 129 182
f 131 182 183
f 131 183 184
f 92 131 184
f 92 184 185
f 93 92 185
f 90 93 185
f 90 185 186
f 88 90 186
f 88 186 187
f 88 187 188
f 84 88 188
f 85 84 188
f 85 188 189
f 82 189 190
f 82 190 191
f 82 85 189
f 80 82 191
f 76 191 192
f 76 80 191
f 77 192 193
f 77 76 192
f 74 193 194
f 74 77 193
f 70 194 195
f 70 195 196
f 70 74 194
f 71 196 197
f 71 70 196
f 66 71 197
f 67 197 198
f 67 198 166
f 67 66 197
f 64 67 166
f 65 63 199
f 65 199 200
f 68 200 201
f 68 65 200
f 69 201 202
f 69 68 201
f 72 202 203
f 72 69 202
f 73 203 204
f 73 72 203
f 75 204 205
f 75 205 206
f 75 73 204
f 78 75 206
f 79 78 206
f 79 206 207
f 79 207 208
f 81 79 208
f 83 81 208
f 83 208 209
f 86 83 209
f 86 209 210
f 86 210 211
f 87 86 211
f 89 87 211
f 89 211 212
f 91 89 212
f 91 212 213
f 91 213 214
f 94 91 214
f 132 94 214
f 132 214 215
f 130 132 215
f 130 215 216
f 128 130 216
f 128 216 217
f 126 128 217
f 126 217 218
f 124 126 218
f 124 218 219
f 124 219 220
f 122 124 220
f 120 220 221
f 120 221 222
f 120 122 220
f 118 120 222
f 116 118 222
f 116 222 223
f 113 223 224
f 113 116 223
f 111 224 225
f 111 225 226
f 111 113 224
f 110 111 226
f 108 226 227
f 108 110 226
f 106 227 228
f 106 108 227
f 104 228 229
f 104 106 228
f 102 229 230
f 102 104 229
f 99 230 231
f 99 102 230
f 62 232 199
f 62 199 63
f 96 233 234
f 97 96 234
f 57 234 235
f 57 97 234
f 53 235 236
f 53 236 237
f 53 57 235
f 49 53 237
f 46 237 238
f 46 49 237
f 39 238 239
f 39 46 238
f 37 239 240
f 37 39 239
f 33 240 241
f 33 37 240
f 29 33 241
f 29 241 242
f 29 242 243
f 26 243 244
f 26 29 243
f 21 26 244
f 17 244 245
f 17 21 244
f 13 245 246
f 13 17 245
f 10 246 247
f 10 13 246
f 1 247 248
f 1 10 247
f 5 248 249
f 5 1 248
f 6 249 250
f 6 5 249
f 8 250 251
f 8 6 250
f 11 251 252
f 11 8 251
f 15 252 253
f 15 253 254
f 15 11 252
f 19 254 255
f 19 15 254
f 23 19 255
f 28 255 256
f 28 23 255
f 31 256 257
f 31 257 258
f 31 28 256
f 35 31 258
f 41 258 259
f 41 35 258
f 43 259 260
f 43 41 259
f 48 260 261
f 48 43 260
f 51 261 262
f 51 48 261
f 55 262 263
f 55 263 264
f 55 51 262
f 59 264 232
f 59 55 264
f 62 59 232
f 252 251 250
f 246 248 247
f 246 249 248
f 246 250 249
f 244 246 245
f 243 246 244
f 256 255 254
f 240 242 241
f 259 257 256
f 259 258 257
f 239 243 242
f 239 252 250
f 239 250 246
f 239 246 243
f 239 242 240
f 260 253 252
f 260 254 253
f 260 256 254
f 260 259 256
f 263 261 260
f 263 262 261
f 263 260 252
f 234 236 235
f 234 237 236
f 234 238 237
f 233 238 234
f 232 239 238
f 232 264 263
f 232 252 239
f 232 238 233
f 232 263 252
f 265 232 233
f 266 265 267
f 268 266 269
f 270 266 268
f 270 271 272
f 270 273 271
f 270 268 273
f 274 265 266
f 274 266 270
f 274 270 275
f 276 265 274
f 276 274 277
f 278 279 280
f 278 276 279
f 278 265 276
f 281 278 282
f 201 200 199
f 283 265 278
f 283 278 281
f 284 265 283
f 204 201 199
f 204 202 201
f 204 203 202
f 285 284 286
f 287 284 285
f 207 205 204
f 207 206 205
f 209 207 204
f 209 204 199
f 209 208 207
f 288 289 290
f 288 287 289
f 291 265 284
f 291 284 287
f 291 287 288
f 211 210 209
f 212 209 199
f 212 211 209
f 292 293 294
f 292 291 293
f 295 292 296
f 295 291 292
f 297 265 291
f 297 291 295
f 297 232 265
f 216 213 212
f 216 214 213
f 216 215 214
f 219 212 199
f 219 217 216
f 219 218 217
f 219 216 212
f 221 220 219
f 223 219 199
f 223 221 219
f 223 222 221
f 225 224 223
f 227 223 199
f 227 225 223
f 227 226 225
f 231 227 199
f 231 228 227
f 231 229 228
f 231 230 229
f 298 231 199
f 298 232 297
f 298 199 232
f 299 231 298
f 300 298 301
f 302 303 304
f 305 298 300
f 306 304 299
f 306 302 304
f 307 306 299
f 307 308 306
f 307 309 308
f 310 311 312
f 310 313 311
f 310 305 313
f 314 315 307
f 316 310 317
f 318 314 307
f 319 320 318
f 319 307 299
f 319 318 307
f 321 322 323
f 321 316 322
f 324 316 321
f 325 326 319
f 325 319 299
f 327 325 299
f 328 298 305
f 328 324 329
f 328 305 310
f 328 310 316
f 328 316 324
f 330 299 298
f 330 298 328
f 330 327 299
f 331 332 333
f 334 335 336
f 334 337 335
f 334 333 337
f 338 334 339
f 340 334 338
f 341 342 343
f 344 345 346
f 347 348 341
f 347 349 348
f 350 340 345
f 350 331 333
f 350 333 334
f 350 334 340
f 350 345 344
f 351 352 331
f 351 343 352
f 351 341 343
f 351 347 341
f 353 354 351
f 353 355 354
f 353 351 331
f 356 357 358
f 356 359 357
f 356 360 359
f 361 360 356
f 362 350 360
f 362 363 353
f 362 331 350
f 362 360 361
f 362 353 331
f 165 362 361
f 163 165 164
f 161 163 162
f 157 163 161
f 157 159 158
f 157 160 159
f 157 161 160
f 155 165 163
f 155 163 157
f 155 157 156
f 153 165 155
f 153 155 154
f 150 152 151
f 150 153 152
f 150 165 153
f 148 150 149
f 364 365 366
f 147 165 150
f 147 150 148
f 146 165 147
f 367 364 366
f 367 368 364
f 367 369 368
f 144 146 145
f 143 146 144
f 370 371 367
f 370 372 371
f 373 370 367
f 373 367 366
f 373 374 370
f 140 142 141
f 140 143 142
f 139 165 146
f 139 146 143
f 139 143 140
f 375 376 373
f 377 373 366
f 377 375 373
f 136 138 137
f 136 139 138
f 134 136 135
f 134 139 136
f 133 165 139
f 133 139 134
f 133 362 165
f 378 379 377
f 378 380 379
f 378 381 380
f 382 377 366
f 382 383 378
f 382 384 383
f 382 378 377
f 385 386 382
f 387 382 366
f 387 385 382
f 387 388 385
f 389 390 387
f 391 387 366
f 391 389 387
f 391 392 389
f 393 391 366
f 393 394 391
f 393 395 394
f 393 396 395
f 166 393 366
f 166 362 133
f 166 366 362
f 167 393 166
f 197 166 198
f 170 169 168
f 196 166 197
f 171 168 167
f 171 170 168
f 174 171 167
f 174 172 171
f 174 173 172
f 192 194 193
f 192 195 194
f 192 196 195
f 176 175 174
f 190 192 191
f 177 176 174
f 179 178 177
f 179 174 167
f 179 177 174
f 187 189 188
f 187 190 189
f 186 190 187
f 181 180 179
f 181 179 167
f 182 181 167
f 184 166 196
f 184 186 185
f 184 196 192
f 184 192 190
f 184 190 186
f 183 167 166
f 183 166 184
f 183 182 167
f 265 96 397
f 233 96 265
f 398 397 96
f 95 398 96
f 361 95 165
f 361 398 95
f 399 400 401
f 402 400 399
f 403 399 404
f 405 399 403
f 406 407 408
f 406 408 402
f 406 402 399
f 409 405 410
f 411 412 406
f 413 411 406
f 414 409 415
f 414 415 416
f 414 405 409
f 417 418 413
f 417 413 406
f 419 414 420
f 419 405 414
f 421 422 417
f 423 419 424
f 425 421 417
f 425 417 406
f 426 399 405
f 426 405 419
f 426 419 423
f 397 426 427
f 397 406 399
f 397 399 426
f 397 425 406
f 428 429 430
f 428 430 425
f 428 425 397
f 431 432 433
f 431 433 434
f 435 431 434
f 435 436 431
f 437 438 439
f 437 439 435
f 440 435 434
f 440 437 435
f 440 441 437
f 442 443 444
f 442 444 445
f 446 445 440
f 446 442 445
f 447 446 440
f 448 449 447
f 448 447 440
f 450 451 448
f 452 453 450
f 454 452 450
f 455 456 454
f 457 448 440
f 457 450 448
f 457 455 454
f 457 454 450
f 458 459 457
f 460 461 458
f 460 458 457
f 462 460 457
f 463 428 397
f 463 440 434
f 463 434 428
f 463 457 440
f 463 462 457
f 464 465 466
f 464 466 467
f 468 469 470
f 468 470 471
f 468 471 465
f 468 464 472
f 468 472 473
f 468 465 464
f 474 468 475
f 474 469 468
f 476 398 469
f 476 469 474
f 477 398 476
f 478 477 479
f 480 478 481
f 480 481 482
f 480 477 478
f 483 477 480
f 483 398 477
f 484 398 483
f 485 398 484
f 485 484 486
f 485 486 487
f 485 487 488
f 489 485 490
f 489 490 491
f 489 491 492
f 493 489 494
f 495 398 485
f 495 485 489
f 495 489 493
f 496 398 495
f 497 398 496
f 497 397 398
f 497 463 397
f 498 496 499
f 498 499 500
f 501 502 503
f 504 496 498
f 505 501 503
f 505 503 497
f 506 496 504
f 507 496 506
f 508 509 505
f 510 496 507
f 511 508 505
f 512 505 497
f 512 511 505
f 513 510 514
f 515 496 510
f 515 510 513
f 516 517 512
f 518 516 512
f 519 515 520
f 521 496 515
f 521 515 519
f 522 518 512
f 522 523 518
f 524 522 512
f 525 497 496
f 525 496 521
f 526 512 497
f 526 525 527
f 526 528 524
f 526 524 512
f 526 497 525
f 297 428 434
f 297 434 298
f 495 362 366
f 495 366 496
f 99 231 299
f 463 99 299
f 100 393 167
f 497 100 99
f 497 99 463
f 497 393 100
f 429 428 297
f 429 297 295
f 429 295 296
f 430 296 292
f 430 429 296
f 425 292 294
f 425 430 292
f 421 294 293
f 421 425 294
f 422 421 293
f 417 293 291
f 417 422 293
f 418 291 288
f 418 417 291
f 413 288 290
f 413 290 289
f 413 418 288
f 411 413 289
f 411 289 287
f 412 411 287
f 406 287 285
f 406 412 287
f 407 285 286
f 407 286 284
f 407 406 285
f 408 407 284
f 402 284 283
f 402 408 284
f 400 283 281
f 400 281 282
f 400 402 283
f 401 400 282
f 399 282 278
f 399 278 280
f 399 401 282
f 404 280 279
f 404 399 280
f 403 404 279
f 405 279 276
f 405 403 279
f 410 276 277
f 410 277 274
f 410 405 276
f 409 410 274
f 415 274 275
f 415 409 274
f 416 275 270
f 416 415 275
f 414 270 272
f 414 272 271
f 414 416 270
f 420 414 271
f 419 271 273
f 419 420 271
f 424 273 268
f 424 419 273
f 423 268 269
f 423 424 268
f 426 269 266
f 426 423 269
f 427 266 267
f 427 267 265
f 427 426 266
f 397 427 265
f 469 398 361
f 469 361 356
f 469 356 358
f 470 358 357
f 470 469 358
f 471 357 359
f 471 470 357
f 465 359 360
f 465 471 359
f 466 465 360
f 467 360 350
f 467 466 360
f 464 350 344
f 464 467 350
f 472 344 346
f 472 346 345
f 472 464 344
f 473 472 345
f 473 345 340
f 468 473 340
f 475 468 340
f 475 340 338
f 474 475 338
f 474 338 339
f 474 339 334
f 476 474 334
f 477 476 334
f 477 334 336
f 479 477 336
f 479 336 335
f 479 335 337
f 478 479 337
f 481 478 337
f 481 337 333
f 481 333 332
f 482 481 332
f 482 332 331
f 480 482 331
f 483 480 331
f 483 331 352
f 484 352 343
f 484 483 352
f 484 343 342
f 486 484 342
f 487 342 341
f 487 486 342
f 488 341 348
f 488 487 341
f 485 348 349
f 485 349 347
f 485 488 348
f 490 485 347
f 491 347 351
f 491 490 347
f 492 351 354
f 492 491 351
f 489 354 355
f 489 492 354
f 494 355 353
f 494 489 355
f 493 353 363
f 493 363 362
f 493 494 353
f 495 493 362
f 499 496 366
f 499 366 365
f 500 365 364
f 500 499 365
f 498 364 368
f 498 500 364
f 504 368 369
f 504 498 368
f 506 369 367
f 506 504 369
f 507 367 371
f 507 506 367
f 510 371 372
f 510 372 370
f 510 507 371
f 514 510 370
f 513 514 370
f 513 370 374
f 513 374 373
f 515 373 376
f 515 513 373
f 520 515 376
f 519 520 376
f 519 376 375
f 521 375 377
f 521 377 379
f 521 519 375
f 525 379 380
f 525 521 379
f 527 525 380
f 526 380 381
f 526 527 380
f 528 381 378
f 528 378 383
f 528 526 381
f 524 383 384
f 524 528 383
f 522 524 384
f 523 384 382
f 523 522 384
f 518 382 386
f 518 386 385
f 518 523 382
f 516 518 385
f 517 385 388
f 517 516 385
f 512 388 387
f 512 517 388
f 511 387 390
f 511 512 387
f 508 390 389
f 508 511 390
f 509 389 392
f 509 508 389
f 505 392 391
f 505 509 392
f 501 391 394
f 501 505 391
f 502 394 395
f 502 501 394
f 503 395 396
f 503 396 393
f 503 502 395
f 497 503 393
f 462 463 299
f 462 299 304
f 460 304 303
f 460 462 304
f 461 303 302
f 461 460 303
f 458 302 306
f 458 461 302
f 459 306 308
f 459 458 306
f 457 308 309
f 457 459 308
f 455 309 307
f 455 457 309
f 456 307 315
f 456 315 314
f 456 455 307
f 454 456 314
f 454 314 318
f 452 454 318
f 453 318 320
f 453 452 318
f 450 320 319
f 450 319 326
f 450 453 320
f 451 326 325
f 451 450 326
f 448 451 325
f 449 325 327
f 449 448 325
f 447 327 330
f 447 330 328
f 447 449 327
f 446 328 329
f 446 447 328
f 442 446 329
f 443 329 324
f 443 442 329
f 444 324 321
f 444 321 323
f 444 443 324
f 445 444 323
f 440 323 322
f 440 445 323
f 441 322 316
f 441 440 322
f 437 316 317
f 437 441 316
f 438 317 310
f 438 310 312
f 438 437 317
f 439 438 312
f 435 312 311
f 435 439 312
f 436 311 313
f 436 313 305
f 436 435 311
f 431 436 305
f 432 305 300
f 432 300 301
f 432 431 305
f 433 432 301
f 434 301 298
f 434 433 301
