# Hole-Size Gauge — generated by Menno Creator Kit
# Coordinates are metres; FreeCAD Z-up becomes Godot Y-up.
o Hole_Size_Gauge
v 0.0000036 0.0050000 -0.0028528
v 0.0000000 0.0050000 -0.0030000
v 0.0000000 0.0000000 -0.0030000
v 0.0000036 0.0000000 -0.0028528
v 0.0000144 0.0050000 -0.0027059
v 0.0000144 0.0000000 -0.0027059
v 0.0000325 0.0000000 -0.0025598
v 0.0000325 0.0050000 -0.0025598
v 0.0000576 0.0050000 -0.0024147
v 0.0000576 0.0000000 -0.0024147
v 0.0000899 0.0050000 -0.0022711
v 0.0000899 0.0000000 -0.0022711
v 0.0001292 0.0000000 -0.0021291
v 0.0001292 0.0050000 -0.0021291
v 0.0001754 0.0050000 -0.0019893
v 0.0001754 0.0000000 -0.0019893
v 0.0002284 0.0050000 -0.0018519
v 0.0002284 0.0000000 -0.0018519
v 0.0002880 0.0050000 -0.0017173
v 0.0002880 0.0000000 -0.0017173
v 0.0003542 0.0050000 -0.0015858
v 0.0003542 0.0000000 -0.0015858
v 0.0004268 0.0050000 -0.0014577
v 0.0004268 0.0000000 -0.0014577
v 0.0005056 0.0000000 -0.0013333
v 0.0005056 0.0050000 -0.0013333
v 0.0005904 0.0050000 -0.0012129
v 0.0005904 0.0000000 -0.0012129
v 0.0006810 0.0050000 -0.0010968
v 0.0006810 0.0000000 -0.0010968
v 0.0007771 0.0050000 -0.0009853
v 0.0007771 0.0000000 -0.0009853
v 0.0008787 0.0050000 -0.0008787
v 0.0008787 0.0000000 -0.0008787
v 0.0009853 0.0050000 -0.0007771
v 0.0009853 0.0000000 -0.0007771
v 0.0010968 0.0050000 -0.0006810
v 0.0010968 0.0000000 -0.0006810
v 0.0012129 0.0050000 -0.0005904
v 0.0012129 0.0000000 -0.0005904
v 0.0013333 0.0050000 -0.0005056
v 0.0013333 0.0000000 -0.0005056
v 0.0014577 0.0050000 -0.0004268
v 0.0014577 0.0000000 -0.0004268
v 0.0015858 0.0050000 -0.0003542
v 0.0015858 0.0000000 -0.0003542
v 0.0017173 0.0050000 -0.0002880
v 0.0017173 0.0000000 -0.0002880
v 0.0018519 0.0050000 -0.0002284
v 0.0018519 0.0000000 -0.0002284
v 0.0019893 0.0050000 -0.0001754
v 0.0019893 0.0000000 -0.0001754
v 0.0021291 0.0050000 -0.0001292
v 0.0021291 0.0000000 -0.0001292
v 0.0022711 0.0050000 -0.0000899
v 0.0022711 0.0000000 -0.0000899
v 0.0024147 0.0050000 -0.0000576
v 0.0024147 0.0000000 -0.0000576
v 0.0025598 0.0050000 -0.0000325
v 0.0025598 0.0000000 -0.0000325
v 0.0027059 0.0050000 -0.0000144
v 0.0027059 0.0000000 -0.0000144
v 0.0028528 0.0000000 -0.0000036
v 0.0028528 0.0050000 -0.0000036
v 0.0030000 0.0000000 -0.0000000
v 0.0030000 0.0050000 -0.0000000
v 0.0000325 0.0050000 -0.0214402
v 0.0000144 0.0050000 -0.0212941
v 0.0000036 0.0050000 -0.0211472
v 0.0000000 0.0050000 -0.0210000
v 0.0000899 0.0050000 -0.0217289
v 0.0000576 0.0050000 -0.0215853
v 0.0002284 0.0050000 -0.0221481
v 0.0001754 0.0050000 -0.0220107
v 0.0001292 0.0050000 -0.0218709
v 0.0002880 0.0050000 -0.0222827
v 0.0005056 0.0050000 -0.0226667
v 0.0004268 0.0050000 -0.0225423
v 0.0003542 0.0050000 -0.0224142
v 0.0006810 0.0050000 -0.0229032
v 0.0005904 0.0050000 -0.0227871
v 0.0129004 0.0050000 -0.0109797
v 0.0129526 0.0050000 -0.0109262
v 0.0130075 0.0050000 -0.0108753
v 0.0128509 0.0050000 -0.0110358
v 0.0130648 0.0050000 -0.0108273
v 0.0128043 0.0050000 -0.0110943
v 0.0131244 0.0050000 -0.0107821
v 0.0127606 0.0050000 -0.0111550
v 0.0131862 0.0050000 -0.0107400
v 0.0127201 0.0050000 -0.0112178
v 0.0132500 0.0050000 -0.0107010
v 0.0126827 0.0050000 -0.0112826
v 0.0133157 0.0050000 -0.0106652
v 0.0126485 0.0050000 -0.0113492
v 0.0008787 0.0050000 -0.0231213
v 0.0007771 0.0050000 -0.0230147
v 0.0133831 0.0050000 -0.0106327
v 0.0126178 0.0050000 -0.0114173
v 0.0134520 0.0050000 -0.0106037
v 0.0125905 0.0050000 -0.0114870
v 0.0135223 0.0050000 -0.0105781
v 0.0125666 0.0050000 -0.0115579
v 0.0135937 0.0050000 -0.0105561
v 0.0125464 0.0050000 -0.0116299
v 0.0136662 0.0050000 -0.0105376
v 0.0125297 0.0050000 -0.0117028
v 0.0137395 0.0050000 -0.0105228
v 0.0125168 0.0050000 -0.0117764
v 0.0138135 0.0050000 -0.0105116
v 0.0125075 0.0050000 -0.0118506
v 0.0138879 0.0050000 -0.0105042
v 0.0010968 0.0050000 -0.0233190
v 0.0009853 0.0050000 -0.0232229
v 0.0125019 0.0050000 -0.0119252
v 0.0139626 0.0050000 -0.0105005
v 0.0125000 0.0050000 -0.0120000
v 0.0140374 0.0050000 -0.0105005
v 0.0125019 0.0050000 -0.0120748
v 0.0141121 0.0050000 -0.0105042
v 0.0125075 0.0050000 -0.0121494
v 0.0141865 0.0050000 -0.0105116
v 0.0125168 0.0050000 -0.0122236
v 0.0142605 0.0050000 -0.0105228
v 0.0125297 0.0050000 -0.0122972
v 0.0013333 0.0050000 -0.0234944
v 0.0012129 0.0050000 -0.0234096
v 0.0143338 0.0050000 -0.0105376
v 0.0125464 0.0050000 -0.0123701
v 0.0144063 0.0050000 -0.0105561
v 0.0125666 0.0050000 -0.0124421
v 0.0144777 0.0050000 -0.0105781
v 0.0125905 0.0050000 -0.0125130
v 0.0126178 0.0050000 -0.0125827
v 0.0015858 0.0050000 -0.0236458
v 0.0014577 0.0050000 -0.0235732
v 0.0126485 0.0050000 -0.0126508
v 0.0126827 0.0050000 -0.0127174
v 0.0127201 0.0050000 -0.0127822
v 0.0127606 0.0050000 -0.0128450
v 0.0018519 0.0050000 -0.0237716
v 0.0017173 0.0050000 -0.0237120
v 0.0128043 0.0050000 -0.0129057
v 0.0021291 0.0050000 -0.0238708
v 0.0019893 0.0050000 -0.0238246
v 0.0024147 0.0050000 -0.0239424
v 0.0022711 0.0050000 -0.0239101
v 0.0027059 0.0050000 -0.0239856
v 0.0025598 0.0050000 -0.0239675
v 0.0030000 0.0050000 -0.0240000
v 0.0028528 0.0050000 -0.0239964
v 0.0134520 0.0050000 -0.0133963
v 0.0135223 0.0050000 -0.0134219
v 0.0133831 0.0050000 -0.0133673
v 0.0133157 0.0050000 -0.0133348
v 0.0132500 0.0050000 -0.0132990
v 0.0131862 0.0050000 -0.0132600
v 0.0131244 0.0050000 -0.0132179
v 0.0130648 0.0050000 -0.0131727
v 0.0130075 0.0050000 -0.0131247
v 0.0129526 0.0050000 -0.0130738
v 0.0129004 0.0050000 -0.0130203
v 0.0128509 0.0050000 -0.0129642
v 0.0135937 0.0050000 -0.0134439
v 0.0136662 0.0050000 -0.0134624
v 0.0137395 0.0050000 -0.0134772
v 0.0138135 0.0050000 -0.0134884
v 0.0138879 0.0050000 -0.0134958
v 0.0139626 0.0050000 -0.0134995
v 0.0140374 0.0050000 -0.0134995
v 0.0141121 0.0050000 -0.0134958
v 0.0141865 0.0050000 -0.0134884
v 0.0142605 0.0050000 -0.0134772
v 0.0143338 0.0050000 -0.0134624
v 0.0144063 0.0050000 -0.0134439
v 0.0144777 0.0050000 -0.0134219
v 0.0266035 0.0050000 -0.0105683
v 0.0149925 0.0050000 -0.0108753
v 0.0149352 0.0050000 -0.0108273
v 0.0265339 0.0050000 -0.0106397
v 0.0150474 0.0050000 -0.0109262
v 0.0150996 0.0050000 -0.0109797
v 0.0266766 0.0050000 -0.0105004
v 0.0148756 0.0050000 -0.0107821
v 0.0264679 0.0050000 -0.0107144
v 0.0151491 0.0050000 -0.0110358
v 0.0267530 0.0050000 -0.0104363
v 0.0148138 0.0050000 -0.0107400
v 0.0264057 0.0050000 -0.0107924
v 0.0151957 0.0050000 -0.0110943
v 0.0268325 0.0050000 -0.0103761
v 0.0147500 0.0050000 -0.0107010
v 0.0263475 0.0050000 -0.0108734
v 0.0152394 0.0050000 -0.0111550
v 0.0269149 0.0050000 -0.0103199
v 0.0146843 0.0050000 -0.0106652
v 0.0262934 0.0050000 -0.0109571
v 0.0152799 0.0050000 -0.0112178
v 0.0270000 0.0050000 -0.0102679
v 0.0146169 0.0050000 -0.0106327
v 0.0262436 0.0050000 -0.0110435
v 0.0153173 0.0050000 -0.0112826
v 0.0270876 0.0050000 -0.0102203
v 0.0145480 0.0050000 -0.0106037
v 0.0261981 0.0050000 -0.0111322
v 0.0153515 0.0050000 -0.0113492
v 0.0271774 0.0050000 -0.0101770
v 0.0261570 0.0050000 -0.0112231
v 0.0153822 0.0050000 -0.0114173
v 0.0272693 0.0050000 -0.0101383
v 0.0261206 0.0050000 -0.0113160
v 0.0154095 0.0050000 -0.0114870
v 0.0273630 0.0050000 -0.0101041
v 0.0260889 0.0050000 -0.0114105
v 0.0154334 0.0050000 -0.0115579
v 0.0274583 0.0050000 -0.0100748
v 0.0260618 0.0050000 -0.0115065
v 0.0154536 0.0050000 -0.0116299
v 0.0275550 0.0050000 -0.0100501
v 0.0260397 0.0050000 -0.0116037
v 0.0154703 0.0050000 -0.0117028
v 0.0276527 0.0050000 -0.0100304
v 0.0260223 0.0050000 -0.0117019
v 0.0154832 0.0050000 -0.0117764
v 0.0277513 0.0050000 -0.0100155
v 0.0260099 0.0050000 -0.0118009
v 0.0154925 0.0050000 -0.0118506
v 0.0278505 0.0050000 -0.0100056
v 0.0260025 0.0050000 -0.0119003
v 0.0154981 0.0050000 -0.0119252
v 0.0279501 0.0050000 -0.0100006
v 0.0260000 0.0050000 -0.0120000
v 0.0154981 0.0050000 -0.0120748
v 0.0155000 0.0050000 -0.0120000
v 0.0280499 0.0050000 -0.0100006
v 0.0260025 0.0050000 -0.0120997
v 0.0154925 0.0050000 -0.0121494
v 0.0281495 0.0050000 -0.0100056
v 0.0260099 0.0050000 -0.0121991
v 0.0154832 0.0050000 -0.0122236
v 0.0282487 0.0050000 -0.0100155
v 0.0260223 0.0050000 -0.0122981
v 0.0154703 0.0050000 -0.0122972
v 0.0260397 0.0050000 -0.0123963
v 0.0154536 0.0050000 -0.0123701
v 0.0260618 0.0050000 -0.0124935
v 0.0154334 0.0050000 -0.0124421
v 0.0260889 0.0050000 -0.0125895
v 0.0154095 0.0050000 -0.0125130
v 0.0261206 0.0050000 -0.0126840
v 0.0153822 0.0050000 -0.0125827
v 0.0261570 0.0050000 -0.0127769
v 0.0153515 0.0050000 -0.0126508
v 0.0261981 0.0050000 -0.0128678
v 0.0153173 0.0050000 -0.0127174
v 0.0262436 0.0050000 -0.0129565
v 0.0152799 0.0050000 -0.0127822
v 0.0262934 0.0050000 -0.0130429
v 0.0152394 0.0050000 -0.0128450
v 0.0263475 0.0050000 -0.0131266
v 0.0151957 0.0050000 -0.0129057
v 0.0264057 0.0050000 -0.0132076
v 0.0151491 0.0050000 -0.0129642
v 0.0264679 0.0050000 -0.0132856
v 0.0150996 0.0050000 -0.0130203
v 0.0265339 0.0050000 -0.0133603
v 0.0150474 0.0050000 -0.0130738
v 0.0149925 0.0050000 -0.0131247
v 0.0266035 0.0050000 -0.0134317
v 0.0149352 0.0050000 -0.0131727
v 0.0266766 0.0050000 -0.0134996
v 0.0148756 0.0050000 -0.0132179
v 0.0267530 0.0050000 -0.0135637
v 0.0148138 0.0050000 -0.0132600
v 0.0268325 0.0050000 -0.0136239
v 0.0147500 0.0050000 -0.0132990
v 0.0269149 0.0050000 -0.0136801
v 0.0146843 0.0050000 -0.0133348
v 0.0270000 0.0050000 -0.0137321
v 0.0146169 0.0050000 -0.0133673
v 0.0270876 0.0050000 -0.0137797
v 0.0145480 0.0050000 -0.0133963
v 0.0271774 0.0050000 -0.0138230
v 0.0272693 0.0050000 -0.0138617
v 0.0273630 0.0050000 -0.0138959
v 0.0274583 0.0050000 -0.0139252
v 0.0275550 0.0050000 -0.0139499
v 0.0276527 0.0050000 -0.0139696
v 0.0277513 0.0050000 -0.0139845
v 0.0278505 0.0050000 -0.0139944
v 0.0279501 0.0050000 -0.0139994
v 0.0280499 0.0050000 -0.0139994
v 0.0402544 0.0050000 -0.0102103
v 0.0293234 0.0050000 -0.0105004
v 0.0292470 0.0050000 -0.0104363
v 0.0401674 0.0050000 -0.0102996
v 0.0293965 0.0050000 -0.0105683
v 0.0294661 0.0050000 -0.0106397
v 0.0403458 0.0050000 -0.0101255
v 0.0291675 0.0050000 -0.0103761
v 0.0400849 0.0050000 -0.0103930
v 0.0295321 0.0050000 -0.0107144
v 0.0404413 0.0050000 -0.0100454
v 0.0290851 0.0050000 -0.0103199
v 0.0400072 0.0050000 -0.0104905
v 0.0295943 0.0050000 -0.0107924
v 0.0405406 0.0050000 -0.0099702
v 0.0290000 0.0050000 -0.0102679
v 0.0399344 0.0050000 -0.0105917
v 0.0296525 0.0050000 -0.0108734
v 0.0406436 0.0050000 -0.0098999
v 0.0289124 0.0050000 -0.0102203
v 0.0398668 0.0050000 -0.0106964
v 0.0297066 0.0050000 -0.0109571
v 0.0407500 0.0050000 -0.0098349
v 0.0288226 0.0050000 -0.0101770
v 0.0398044 0.0050000 -0.0108044
v 0.0297564 0.0050000 -0.0110435
v 0.0408595 0.0050000 -0.0097753
v 0.0287307 0.0050000 -0.0101383
v 0.0397476 0.0050000 -0.0109153
v 0.0298019 0.0050000 -0.0111322
v 0.0409718 0.0050000 -0.0097212
v 0.0286370 0.0050000 -0.0101041
v 0.0396963 0.0050000 -0.0110289
v 0.0298430 0.0050000 -0.0112231
v 0.0410866 0.0050000 -0.0096728
v 0.0285417 0.0050000 -0.0100748
v 0.0396508 0.0050000 -0.0111449
v 0.0298794 0.0050000 -0.0113160
v 0.0412038 0.0050000 -0.0096302
v 0.0284450 0.0050000 -0.0100501
v 0.0396111 0.0050000 -0.0112631
v 0.0299111 0.0050000 -0.0114105
v 0.0413229 0.0050000 -0.0095934
v 0.0283473 0.0050000 -0.0100304
v 0.0395773 0.0050000 -0.0113831
v 0.0299382 0.0050000 -0.0115065
v 0.0414437 0.0050000 -0.0095627
v 0.0395496 0.0050000 -0.0115046
v 0.0299603 0.0050000 -0.0116037
v 0.0415659 0.0050000 -0.0095380
v 0.0395279 0.0050000 -0.0116274
v 0.0299777 0.0050000 -0.0117019
v 0.0416891 0.0050000 -0.0095194
v 0.0395124 0.0050000 -0.0117511
v 0.0299901 0.0050000 -0.0118009
v 0.0395031 0.0050000 -0.0118754
v 0.0299975 0.0050000 -0.0119003
v 0.0395000 0.0050000 -0.0120000
v 0.0299975 0.0050000 -0.0120997
v 0.0300000 0.0050000 -0.0120000
v 0.0395031 0.0050000 -0.0121246
v 0.0299901 0.0050000 -0.0121991
v 0.0395124 0.0050000 -0.0122489
v 0.0299777 0.0050000 -0.0122981
v 0.0395279 0.0050000 -0.0123726
v 0.0299603 0.0050000 -0.0123963
v 0.0395496 0.0050000 -0.0124954
v 0.0299382 0.0050000 -0.0124935
v 0.0395773 0.0050000 -0.0126169
v 0.0299111 0.0050000 -0.0125895
v 0.0396111 0.0050000 -0.0127369
v 0.0298794 0.0050000 -0.0126840
v 0.0396508 0.0050000 -0.0128551
v 0.0298430 0.0050000 -0.0127769
v 0.0396963 0.0050000 -0.0129711
v 0.0298019 0.0050000 -0.0128678
v 0.0397476 0.0050000 -0.0130847
v 0.0297564 0.0050000 -0.0129565
v 0.0398044 0.0050000 -0.0131956
v 0.0297066 0.0050000 -0.0130429
v 0.0398668 0.0050000 -0.0133036
v 0.0296525 0.0050000 -0.0131266
v 0.0399344 0.0050000 -0.0134083
v 0.0295943 0.0050000 -0.0132076
v 0.0400072 0.0050000 -0.0135095
v 0.0295321 0.0050000 -0.0132856
v 0.0400849 0.0050000 -0.0136070
v 0.0294661 0.0050000 -0.0133603
v 0.0401674 0.0050000 -0.0137004
v 0.0293965 0.0050000 -0.0134317
v 0.0293234 0.0050000 -0.0134996
v 0.0402544 0.0050000 -0.0137897
v 0.0292470 0.0050000 -0.0135637
v 0.0403458 0.0050000 -0.0138745
v 0.0291675 0.0050000 -0.0136239
v 0.0404413 0.0050000 -0.0139546
v 0.0290851 0.0050000 -0.0136801
v 0.0405406 0.0050000 -0.0140298
v 0.0290000 0.0050000 -0.0137321
v 0.0406436 0.0050000 -0.0141001
v 0.0289124 0.0050000 -0.0137797
v 0.0407500 0.0050000 -0.0141651
v 0.0288226 0.0050000 -0.0138230
v 0.0408595 0.0050000 -0.0142247
v 0.0287307 0.0050000 -0.0138617
v 0.0409718 0.0050000 -0.0142788
v 0.0286370 0.0050000 -0.0138959
v 0.0410866 0.0050000 -0.0143272
v 0.0285417 0.0050000 -0.0139252
v 0.0412038 0.0050000 -0.0143698
v 0.0284450 0.0050000 -0.0139499
v 0.0413229 0.0050000 -0.0144066
v 0.0283473 0.0050000 -0.0139696
v 0.0414437 0.0050000 -0.0144373
v 0.0282487 0.0050000 -0.0139845
v 0.0539053 0.0050000 -0.0098524
v 0.0436542 0.0050000 -0.0101255
v 0.0435587 0.0050000 -0.0100454
v 0.0538008 0.0050000 -0.0099595
v 0.0437456 0.0050000 -0.0102103
v 0.0438326 0.0050000 -0.0102996
v 0.0540149 0.0050000 -0.0097507
v 0.0434594 0.0050000 -0.0099702
v 0.0537019 0.0050000 -0.0100716
v 0.0439151 0.0050000 -0.0103930
v 0.0541295 0.0050000 -0.0096545
v 0.0433564 0.0050000 -0.0098999
v 0.0536086 0.0050000 -0.0101886
v 0.0439928 0.0050000 -0.0104905
v 0.0542488 0.0050000 -0.0095642
v 0.0432500 0.0050000 -0.0098349
v 0.0535213 0.0050000 -0.0103100
v 0.0440656 0.0050000 -0.0105917
v 0.0543724 0.0050000 -0.0094799
v 0.0431405 0.0050000 -0.0097753
v 0.0534401 0.0050000 -0.0104357
v 0.0441332 0.0050000 -0.0106964
v 0.0545000 0.0050000 -0.0094019
v 0.0430282 0.0050000 -0.0097212
v 0.0533653 0.0050000 -0.0105652
v 0.0441956 0.0050000 -0.0108044
v 0.0546314 0.0050000 -0.0093304
v 0.0429134 0.0050000 -0.0096728
v 0.0532971 0.0050000 -0.0106983
v 0.0442524 0.0050000 -0.0109153
v 0.0547661 0.0050000 -0.0092655
v 0.0427962 0.0050000 -0.0096302
v 0.0532356 0.0050000 -0.0108347
v 0.0443037 0.0050000 -0.0110289
v 0.0549040 0.0050000 -0.0092074
v 0.0426771 0.0050000 -0.0095934
v 0.0531809 0.0050000 -0.0109739
v 0.0443492 0.0050000 -0.0111449
v 0.0550445 0.0050000 -0.0091562
v 0.0425563 0.0050000 -0.0095627
v 0.0531333 0.0050000 -0.0111157
v 0.0443889 0.0050000 -0.0112631
v 0.0530928 0.0050000 -0.0112597
v 0.0444227 0.0050000 -0.0113831
v 0.0530595 0.0050000 -0.0114056
v 0.0444504 0.0050000 -0.0115046
v 0.0530335 0.0050000 -0.0115529
v 0.0444721 0.0050000 -0.0116274
v 0.0530149 0.0050000 -0.0117013
v 0.0444876 0.0050000 -0.0117511
v 0.0530037 0.0050000 -0.0118505
v 0.0444969 0.0050000 -0.0118754
v 0.0530000 0.0050000 -0.0120000
v 0.0445000 0.0050000 -0.0120000
v 0.0444969 0.0050000 -0.0121246
v 0.0530037 0.0050000 -0.0121495
v 0.0444876 0.0050000 -0.0122489
v 0.0530149 0.0050000 -0.0122987
v 0.0444721 0.0050000 -0.0123726
v 0.0530335 0.0050000 -0.0124471
v 0.0444504 0.0050000 -0.0124954
v 0.0530595 0.0050000 -0.0125944
v 0.0444227 0.0050000 -0.0126169
v 0.0530928 0.0050000 -0.0127403
v 0.0443889 0.0050000 -0.0127369
v 0.0531333 0.0050000 -0.0128843
v 0.0443492 0.0050000 -0.0128551
v 0.0531809 0.0050000 -0.0130261
v 0.0443037 0.0050000 -0.0129711
v 0.0532356 0.0050000 -0.0131653
v 0.0442524 0.0050000 -0.0130847
v 0.0532971 0.0050000 -0.0133017
v 0.0441956 0.0050000 -0.0131956
v 0.0533653 0.0050000 -0.0134348
v 0.0441332 0.0050000 -0.0133036
v 0.0670000 0.0050000 -0.0000000
v 0.0562242 0.0050000 -0.0090084
v 0.0560748 0.0050000 -0.0090009
v 0.0563730 0.0050000 -0.0090233
v 0.0565209 0.0050000 -0.0090456
v 0.0566676 0.0050000 -0.0090752
v 0.0568125 0.0050000 -0.0091121
v 0.0569555 0.0050000 -0.0091562
v 0.0570960 0.0050000 -0.0092074
v 0.0572339 0.0050000 -0.0092655
v 0.0573686 0.0050000 -0.0093304
v 0.0575000 0.0050000 -0.0094019
v 0.0418132 0.0050000 -0.0095070
v 0.0419377 0.0050000 -0.0095008
v 0.0420623 0.0050000 -0.0095008
v 0.0421868 0.0050000 -0.0095070
v 0.0423109 0.0050000 -0.0095194
v 0.0424341 0.0050000 -0.0095380
v 0.0551875 0.0050000 -0.0091121
v 0.0553324 0.0050000 -0.0090752
v 0.0554791 0.0050000 -0.0090456
v 0.0556270 0.0050000 -0.0090233
v 0.0557758 0.0050000 -0.0090084
v 0.0559252 0.0050000 -0.0090009
v 0.0534401 0.0050000 -0.0135643
v 0.0440656 0.0050000 -0.0134083
v 0.0576276 0.0050000 -0.0094799
v 0.0535213 0.0050000 -0.0136900
v 0.0439928 0.0050000 -0.0135095
v 0.0577512 0.0050000 -0.0095642
v 0.0536086 0.0050000 -0.0138114
v 0.0439151 0.0050000 -0.0136070
v 0.0674402 0.0050000 -0.0000325
v 0.0671472 0.0050000 -0.0000036
v 0.0672941 0.0050000 -0.0000144
v 0.0578705 0.0050000 -0.0096545
v 0.0537019 0.0050000 -0.0139284
v 0.0438326 0.0050000 -0.0137004
v 0.0675853 0.0050000 -0.0000576
v 0.0579851 0.0050000 -0.0097507
v 0.0538008 0.0050000 -0.0140405
v 0.0437456 0.0050000 -0.0137897
v 0.0436542 0.0050000 -0.0138745
v 0.0580947 0.0050000 -0.0098524
v 0.0678709 0.0050000 -0.0001292
v 0.0677289 0.0050000 -0.0000899
v 0.0539053 0.0050000 -0.0141476
v 0.0435587 0.0050000 -0.0139546
v 0.0581992 0.0050000 -0.0099595
v 0.0680107 0.0050000 -0.0001754
v 0.0540149 0.0050000 -0.0142493
v 0.0434594 0.0050000 -0.0140298
v 0.0582981 0.0050000 -0.0100716
v 0.0541295 0.0050000 -0.0143455
v 0.0433564 0.0050000 -0.0141001
v 0.0682827 0.0050000 -0.0002880
v 0.0681481 0.0050000 -0.0002284
v 0.0583914 0.0050000 -0.0101886
v 0.0542488 0.0050000 -0.0144358
v 0.0432500 0.0050000 -0.0141651
v 0.0684142 0.0050000 -0.0003542
v 0.0543724 0.0050000 -0.0145201
v 0.0431405 0.0050000 -0.0142247
v 0.0685423 0.0050000 -0.0004268
v 0.0545000 0.0050000 -0.0145981
v 0.0430282 0.0050000 -0.0142788
v 0.0546314 0.0050000 -0.0146696
v 0.0429134 0.0050000 -0.0143272
v 0.0687871 0.0050000 -0.0005904
v 0.0686667 0.0050000 -0.0005056
v 0.0547661 0.0050000 -0.0147345
v 0.0427962 0.0050000 -0.0143698
v 0.0689032 0.0050000 -0.0006810
v 0.0549040 0.0050000 -0.0147926
v 0.0426771 0.0050000 -0.0144066
v 0.0690147 0.0050000 -0.0007771
v 0.0550445 0.0050000 -0.0148438
v 0.0425563 0.0050000 -0.0144373
v 0.0691213 0.0050000 -0.0008787
v 0.0696458 0.0050000 -0.0015858
v 0.0694096 0.0050000 -0.0012129
v 0.0694944 0.0050000 -0.0013333
v 0.0695732 0.0050000 -0.0014577
v 0.0697716 0.0050000 -0.0018519
v 0.0697120 0.0050000 -0.0017173
v 0.0698708 0.0050000 -0.0021291
v 0.0692229 0.0050000 -0.0009853
v 0.0693190 0.0050000 -0.0010968
v 0.0698246 0.0050000 -0.0019893
v 0.0699101 0.0050000 -0.0022711
v 0.0699675 0.0050000 -0.0025598
v 0.0699424 0.0050000 -0.0024147
v 0.0699856 0.0050000 -0.0027059
v 0.0700000 0.0050000 -0.0030000
v 0.0584787 0.0050000 -0.0103100
v 0.0585599 0.0050000 -0.0104357
v 0.0586347 0.0050000 -0.0105652
v 0.0587029 0.0050000 -0.0106983
v 0.0587644 0.0050000 -0.0108347
v 0.0588191 0.0050000 -0.0109739
v 0.0588667 0.0050000 -0.0111157
v 0.0589072 0.0050000 -0.0112597
v 0.0589405 0.0050000 -0.0114056
v 0.0589665 0.0050000 -0.0115529
v 0.0589851 0.0050000 -0.0117013
v 0.0589963 0.0050000 -0.0118505
v 0.0590000 0.0050000 -0.0120000
v 0.0699964 0.0050000 -0.0028528
v 0.0700000 0.0050000 -0.0210000
v 0.0589963 0.0050000 -0.0121495
v 0.0589851 0.0050000 -0.0122987
v 0.0589665 0.0050000 -0.0124471
v 0.0589405 0.0050000 -0.0125944
v 0.0589072 0.0050000 -0.0127403
v 0.0588667 0.0050000 -0.0128843
v 0.0588191 0.0050000 -0.0130261
v 0.0587644 0.0050000 -0.0131653
v 0.0587029 0.0050000 -0.0133017
v 0.0586347 0.0050000 -0.0134348
v 0.0585599 0.0050000 -0.0135643
v 0.0584787 0.0050000 -0.0136900
v 0.0583914 0.0050000 -0.0138114
v 0.0670000 0.0050000 -0.0240000
v 0.0424341 0.0050000 -0.0144620
v 0.0423109 0.0050000 -0.0144806
v 0.0421868 0.0050000 -0.0144930
v 0.0420623 0.0050000 -0.0144992
v 0.0419377 0.0050000 -0.0144992
v 0.0582981 0.0050000 -0.0139284
v 0.0581992 0.0050000 -0.0140405
v 0.0580947 0.0050000 -0.0141476
v 0.0579851 0.0050000 -0.0142493
v 0.0578705 0.0050000 -0.0143455
v 0.0577512 0.0050000 -0.0144358
v 0.0576276 0.0050000 -0.0145201
v 0.0575000 0.0050000 -0.0145981
v 0.0573686 0.0050000 -0.0146696
v 0.0572339 0.0050000 -0.0147345
v 0.0570960 0.0050000 -0.0147926
v 0.0569555 0.0050000 -0.0148438
v 0.0568125 0.0050000 -0.0148879
v 0.0566676 0.0050000 -0.0149248
v 0.0565209 0.0050000 -0.0149544
v 0.0563730 0.0050000 -0.0149767
v 0.0562242 0.0050000 -0.0149916
v 0.0560748 0.0050000 -0.0149991
v 0.0559252 0.0050000 -0.0149991
v 0.0557758 0.0050000 -0.0149916
v 0.0556270 0.0050000 -0.0149767
v 0.0554791 0.0050000 -0.0149544
v 0.0553324 0.0050000 -0.0149248
v 0.0551875 0.0050000 -0.0148879
v 0.0674402 0.0050000 -0.0239675
v 0.0672941 0.0050000 -0.0239856
v 0.0671472 0.0050000 -0.0239964
v 0.0675853 0.0050000 -0.0239424
v 0.0699101 0.0050000 -0.0217289
v 0.0699856 0.0050000 -0.0212941
v 0.0699675 0.0050000 -0.0214402
v 0.0699424 0.0050000 -0.0215853
v 0.0678709 0.0050000 -0.0238708
v 0.0677289 0.0050000 -0.0239101
v 0.0698246 0.0050000 -0.0220107
v 0.0699964 0.0050000 -0.0211472
v 0.0698708 0.0050000 -0.0218709
v 0.0680107 0.0050000 -0.0238246
v 0.0697716 0.0050000 -0.0221481
v 0.0682827 0.0050000 -0.0237120
v 0.0681481 0.0050000 -0.0237716
v 0.0684142 0.0050000 -0.0236458
v 0.0695732 0.0050000 -0.0225423
v 0.0697120 0.0050000 -0.0222827
v 0.0696458 0.0050000 -0.0224142
v 0.0686667 0.0050000 -0.0234944
v 0.0685423 0.0050000 -0.0235732
v 0.0694096 0.0050000 -0.0227871
v 0.0694944 0.0050000 -0.0226667
v 0.0689032 0.0050000 -0.0233190
v 0.0687871 0.0050000 -0.0234096
v 0.0691213 0.0050000 -0.0231213
v 0.0693190 0.0050000 -0.0229032
v 0.0692229 0.0050000 -0.0230147
v 0.0690147 0.0050000 -0.0232229
v 0.0418132 0.0050000 -0.0144930
v 0.0416891 0.0050000 -0.0144806
v 0.0415659 0.0050000 -0.0144620
v 0.0281495 0.0050000 -0.0139944
v 0.0670000 0.0000000 -0.0000000
v 0.0689032 0.0000000 -0.0006810
v 0.0691213 0.0000000 -0.0008787
v 0.0690147 0.0000000 -0.0007771
v 0.0692229 0.0000000 -0.0009853
v 0.0695732 0.0000000 -0.0014577
v 0.0694096 0.0000000 -0.0012129
v 0.0693190 0.0000000 -0.0010968
v 0.0694944 0.0000000 -0.0013333
v 0.0685423 0.0000000 -0.0004268
v 0.0687871 0.0000000 -0.0005904
v 0.0686667 0.0000000 -0.0005056
v 0.0697120 0.0000000 -0.0017173
v 0.0696458 0.0000000 -0.0015858
v 0.0682827 0.0000000 -0.0002880
v 0.0684142 0.0000000 -0.0003542
v 0.0681481 0.0000000 -0.0002284
v 0.0698246 0.0000000 -0.0019893
v 0.0697716 0.0000000 -0.0018519
v 0.0678709 0.0000000 -0.0001292
v 0.0680107 0.0000000 -0.0001754
v 0.0699424 0.0000000 -0.0024147
v 0.0698708 0.0000000 -0.0021291
v 0.0699101 0.0000000 -0.0022711
v 0.0675853 0.0000000 -0.0000576
v 0.0677289 0.0000000 -0.0000899
v 0.0699964 0.0000000 -0.0028528
v 0.0699856 0.0000000 -0.0027059
v 0.0699675 0.0000000 -0.0025598
v 0.0671472 0.0000000 -0.0000036
v 0.0674402 0.0000000 -0.0000325
v 0.0672941 0.0000000 -0.0000144
v 0.0700000 0.0000000 -0.0030000
v 0.0699856 0.0000000 -0.0212941
v 0.0699964 0.0000000 -0.0211472
v 0.0700000 0.0000000 -0.0210000
v 0.0699675 0.0000000 -0.0214402
v 0.0581992 0.0000000 -0.0099595
v 0.0580947 0.0000000 -0.0098524
v 0.0579851 0.0000000 -0.0097507
v 0.0582981 0.0000000 -0.0100716
v 0.0578705 0.0000000 -0.0096545
v 0.0583914 0.0000000 -0.0101886
v 0.0577512 0.0000000 -0.0095642
v 0.0699101 0.0000000 -0.0217289
v 0.0699424 0.0000000 -0.0215853
v 0.0584787 0.0000000 -0.0103100
v 0.0576276 0.0000000 -0.0094799
v 0.0585599 0.0000000 -0.0104357
v 0.0575000 0.0000000 -0.0094019
v 0.0586347 0.0000000 -0.0105652
v 0.0573686 0.0000000 -0.0093304
v 0.0587029 0.0000000 -0.0106983
v 0.0572339 0.0000000 -0.0092655
v 0.0587644 0.0000000 -0.0108347
v 0.0570960 0.0000000 -0.0092074
v 0.0588191 0.0000000 -0.0109739
v 0.0698246 0.0000000 -0.0220107
v 0.0698708 0.0000000 -0.0218709
v 0.0569555 0.0000000 -0.0091562
v 0.0588667 0.0000000 -0.0111157
v 0.0568125 0.0000000 -0.0091121
v 0.0589072 0.0000000 -0.0112597
v 0.0697716 0.0000000 -0.0221481
v 0.0566676 0.0000000 -0.0090752
v 0.0589405 0.0000000 -0.0114056
v 0.0565209 0.0000000 -0.0090456
v 0.0697120 0.0000000 -0.0222827
v 0.0589665 0.0000000 -0.0115529
v 0.0563730 0.0000000 -0.0090233
v 0.0589851 0.0000000 -0.0117013
v 0.0562242 0.0000000 -0.0090084
v 0.0589963 0.0000000 -0.0118505
v 0.0560748 0.0000000 -0.0090009
v 0.0590000 0.0000000 -0.0120000
v 0.0559252 0.0000000 -0.0090009
v 0.0589963 0.0000000 -0.0121495
v 0.0694944 0.0000000 -0.0226667
v 0.0696458 0.0000000 -0.0224142
v 0.0695732 0.0000000 -0.0225423
v 0.0557758 0.0000000 -0.0090084
v 0.0589851 0.0000000 -0.0122987
v 0.0694096 0.0000000 -0.0227871
v 0.0556270 0.0000000 -0.0090233
v 0.0589665 0.0000000 -0.0124471
v 0.0554791 0.0000000 -0.0090456
v 0.0589405 0.0000000 -0.0125944
v 0.0553324 0.0000000 -0.0090752
v 0.0692229 0.0000000 -0.0230147
v 0.0693190 0.0000000 -0.0229032
v 0.0589072 0.0000000 -0.0127403
v 0.0551875 0.0000000 -0.0091121
v 0.0588667 0.0000000 -0.0128843
v 0.0550445 0.0000000 -0.0091562
v 0.0588191 0.0000000 -0.0130261
v 0.0690147 0.0000000 -0.0232229
v 0.0691213 0.0000000 -0.0231213
v 0.0587644 0.0000000 -0.0131653
v 0.0587029 0.0000000 -0.0133017
v 0.0687871 0.0000000 -0.0234096
v 0.0689032 0.0000000 -0.0233190
v 0.0586347 0.0000000 -0.0134348
v 0.0686667 0.0000000 -0.0234944
v 0.0585599 0.0000000 -0.0135643
v 0.0584787 0.0000000 -0.0136900
v 0.0684142 0.0000000 -0.0236458
v 0.0685423 0.0000000 -0.0235732
v 0.0583914 0.0000000 -0.0138114
v 0.0681481 0.0000000 -0.0237716
v 0.0682827 0.0000000 -0.0237120
v 0.0678709 0.0000000 -0.0238708
v 0.0680107 0.0000000 -0.0238246
v 0.0675853 0.0000000 -0.0239424
v 0.0677289 0.0000000 -0.0239101
v 0.0670000 0.0000000 -0.0240000
v 0.0582981 0.0000000 -0.0139284
v 0.0581992 0.0000000 -0.0140405
v 0.0580947 0.0000000 -0.0141476
v 0.0579851 0.0000000 -0.0142493
v 0.0578705 0.0000000 -0.0143455
v 0.0577512 0.0000000 -0.0144358
v 0.0576276 0.0000000 -0.0145201
v 0.0674402 0.0000000 -0.0239675
v 0.0672941 0.0000000 -0.0239856
v 0.0671472 0.0000000 -0.0239964
v 0.0575000 0.0000000 -0.0145981
v 0.0573686 0.0000000 -0.0146696
v 0.0572339 0.0000000 -0.0147345
v 0.0570960 0.0000000 -0.0147926
v 0.0569555 0.0000000 -0.0148438
v 0.0568125 0.0000000 -0.0148879
v 0.0566676 0.0000000 -0.0149248
v 0.0565209 0.0000000 -0.0149544
v 0.0563730 0.0000000 -0.0149767
v 0.0562242 0.0000000 -0.0149916
v 0.0560748 0.0000000 -0.0149991
v 0.0559252 0.0000000 -0.0149991
v 0.0557758 0.0000000 -0.0149916
v 0.0556270 0.0000000 -0.0149767
v 0.0554791 0.0000000 -0.0149544
v 0.0553324 0.0000000 -0.0149248
v 0.0551875 0.0000000 -0.0148879
v 0.0550445 0.0000000 -0.0148438
v 0.0438326 0.0000000 -0.0102996
v 0.0538008 0.0000000 -0.0099595
v 0.0437456 0.0000000 -0.0102103
v 0.0537019 0.0000000 -0.0100716
v 0.0436542 0.0000000 -0.0101255
v 0.0539053 0.0000000 -0.0098524
v 0.0439151 0.0000000 -0.0103930
v 0.0536086 0.0000000 -0.0101886
v 0.0435587 0.0000000 -0.0100454
v 0.0540149 0.0000000 -0.0097507
v 0.0439928 0.0000000 -0.0104905
v 0.0535213 0.0000000 -0.0103100
v 0.0434594 0.0000000 -0.0099702
v 0.0541295 0.0000000 -0.0096545
v 0.0440656 0.0000000 -0.0105917
v 0.0534401 0.0000000 -0.0104357
v 0.0433564 0.0000000 -0.0098999
v 0.0542488 0.0000000 -0.0095642
v 0.0441332 0.0000000 -0.0106964
v 0.0533653 0.0000000 -0.0105652
v 0.0432500 0.0000000 -0.0098349
v 0.0543724 0.0000000 -0.0094799
v 0.0441956 0.0000000 -0.0108044
v 0.0532971 0.0000000 -0.0106983
v 0.0431405 0.0000000 -0.0097753
v 0.0545000 0.0000000 -0.0094019
v 0.0442524 0.0000000 -0.0109153
v 0.0532356 0.0000000 -0.0108347
v 0.0430282 0.0000000 -0.0097212
v 0.0546314 0.0000000 -0.0093304
v 0.0443037 0.0000000 -0.0110289
v 0.0531809 0.0000000 -0.0109739
v 0.0429134 0.0000000 -0.0096728
v 0.0547661 0.0000000 -0.0092655
v 0.0443492 0.0000000 -0.0111449
v 0.0531333 0.0000000 -0.0111157
v 0.0427962 0.0000000 -0.0096302
v 0.0549040 0.0000000 -0.0092074
v 0.0443889 0.0000000 -0.0112631
v 0.0530928 0.0000000 -0.0112597
v 0.0426771 0.0000000 -0.0095934
v 0.0444227 0.0000000 -0.0113831
v 0.0530595 0.0000000 -0.0114056
v 0.0425563 0.0000000 -0.0095627
v 0.0444504 0.0000000 -0.0115046
v 0.0530335 0.0000000 -0.0115529
v 0.0424341 0.0000000 -0.0095380
v 0.0444721 0.0000000 -0.0116274
v 0.0530149 0.0000000 -0.0117013
v 0.0423109 0.0000000 -0.0095194
v 0.0444876 0.0000000 -0.0117511
v 0.0530037 0.0000000 -0.0118505
v 0.0421868 0.0000000 -0.0095070
v 0.0444969 0.0000000 -0.0118754
v 0.0530000 0.0000000 -0.0120000
v 0.0420623 0.0000000 -0.0095008
v 0.0445000 0.0000000 -0.0120000
v 0.0419377 0.0000000 -0.0095008
v 0.0444969 0.0000000 -0.0121246
v 0.0530037 0.0000000 -0.0121495
v 0.0418132 0.0000000 -0.0095070
v 0.0444876 0.0000000 -0.0122489
v 0.0530149 0.0000000 -0.0122987
v 0.0416891 0.0000000 -0.0095194
v 0.0444721 0.0000000 -0.0123726
v 0.0530335 0.0000000 -0.0124471
v 0.0444504 0.0000000 -0.0124954
v 0.0530595 0.0000000 -0.0125944
v 0.0444227 0.0000000 -0.0126169
v 0.0530928 0.0000000 -0.0127403
v 0.0443889 0.0000000 -0.0127369
v 0.0531333 0.0000000 -0.0128843
v 0.0443492 0.0000000 -0.0128551
v 0.0531809 0.0000000 -0.0130261
v 0.0443037 0.0000000 -0.0129711
v 0.0532356 0.0000000 -0.0131653
v 0.0442524 0.0000000 -0.0130847
v 0.0532971 0.0000000 -0.0133017
v 0.0441956 0.0000000 -0.0131956
v 0.0533653 0.0000000 -0.0134348
v 0.0441332 0.0000000 -0.0133036
v 0.0534401 0.0000000 -0.0135643
v 0.0440656 0.0000000 -0.0134083
v 0.0535213 0.0000000 -0.0136900
v 0.0439928 0.0000000 -0.0135095
v 0.0536086 0.0000000 -0.0138114
v 0.0439151 0.0000000 -0.0136070
v 0.0537019 0.0000000 -0.0139284
v 0.0438326 0.0000000 -0.0137004
v 0.0538008 0.0000000 -0.0140405
v 0.0437456 0.0000000 -0.0137897
v 0.0436542 0.0000000 -0.0138745
v 0.0539053 0.0000000 -0.0141476
v 0.0435587 0.0000000 -0.0139546
v 0.0540149 0.0000000 -0.0142493
v 0.0434594 0.0000000 -0.0140298
v 0.0541295 0.0000000 -0.0143455
v 0.0433564 0.0000000 -0.0141001
v 0.0542488 0.0000000 -0.0144358
v 0.0432500 0.0000000 -0.0141651
v 0.0543724 0.0000000 -0.0145201
v 0.0431405 0.0000000 -0.0142247
v 0.0545000 0.0000000 -0.0145981
v 0.0430282 0.0000000 -0.0142788
v 0.0546314 0.0000000 -0.0146696
v 0.0429134 0.0000000 -0.0143272
v 0.0547661 0.0000000 -0.0147345
v 0.0427962 0.0000000 -0.0143698
v 0.0549040 0.0000000 -0.0147926
v 0.0426771 0.0000000 -0.0144066
v 0.0425563 0.0000000 -0.0144373
v 0.0424341 0.0000000 -0.0144620
v 0.0423109 0.0000000 -0.0144806
v 0.0421868 0.0000000 -0.0144930
v 0.0420623 0.0000000 -0.0144992
v 0.0419377 0.0000000 -0.0144992
v 0.0294661 0.0000000 -0.0106397
v 0.0400849 0.0000000 -0.0103930
v 0.0401674 0.0000000 -0.0102996
v 0.0293965 0.0000000 -0.0105683
v 0.0293234 0.0000000 -0.0105004
v 0.0402544 0.0000000 -0.0102103
v 0.0295321 0.0000000 -0.0107144
v 0.0400072 0.0000000 -0.0104905
v 0.0292470 0.0000000 -0.0104363
v 0.0403458 0.0000000 -0.0101255
v 0.0295943 0.0000000 -0.0107924
v 0.0399344 0.0000000 -0.0105917
v 0.0291675 0.0000000 -0.0103761
v 0.0404413 0.0000000 -0.0100454
v 0.0296525 0.0000000 -0.0108734
v 0.0398668 0.0000000 -0.0106964
v 0.0290851 0.0000000 -0.0103199
v 0.0405406 0.0000000 -0.0099702
v 0.0297066 0.0000000 -0.0109571
v 0.0398044 0.0000000 -0.0108044
v 0.0290000 0.0000000 -0.0102679
v 0.0406436 0.0000000 -0.0098999
v 0.0297564 0.0000000 -0.0110435
v 0.0397476 0.0000000 -0.0109153
v 0.0289124 0.0000000 -0.0102203
v 0.0407500 0.0000000 -0.0098349
v 0.0298019 0.0000000 -0.0111322
v 0.0396963 0.0000000 -0.0110289
v 0.0288226 0.0000000 -0.0101770
v 0.0408595 0.0000000 -0.0097753
v 0.0298430 0.0000000 -0.0112231
v 0.0396508 0.0000000 -0.0111449
v 0.0287307 0.0000000 -0.0101383
v 0.0409718 0.0000000 -0.0097212
v 0.0298794 0.0000000 -0.0113160
v 0.0396111 0.0000000 -0.0112631
v 0.0286370 0.0000000 -0.0101041
v 0.0410866 0.0000000 -0.0096728
v 0.0299111 0.0000000 -0.0114105
v 0.0395773 0.0000000 -0.0113831
v 0.0285417 0.0000000 -0.0100748
v 0.0412038 0.0000000 -0.0096302
v 0.0299382 0.0000000 -0.0115065
v 0.0395496 0.0000000 -0.0115046
v 0.0284450 0.0000000 -0.0100501
v 0.0413229 0.0000000 -0.0095934
v 0.0299603 0.0000000 -0.0116037
v 0.0395279 0.0000000 -0.0116274
v 0.0283473 0.0000000 -0.0100304
v 0.0414437 0.0000000 -0.0095627
v 0.0299777 0.0000000 -0.0117019
v 0.0395124 0.0000000 -0.0117511
v 0.0282487 0.0000000 -0.0100155
v 0.0415659 0.0000000 -0.0095380
v 0.0299901 0.0000000 -0.0118009
v 0.0395031 0.0000000 -0.0118754
v 0.0299975 0.0000000 -0.0119003
v 0.0395000 0.0000000 -0.0120000
v 0.0300000 0.0000000 -0.0120000
v 0.0299975 0.0000000 -0.0120997
v 0.0395031 0.0000000 -0.0121246
v 0.0299901 0.0000000 -0.0121991
v 0.0395124 0.0000000 -0.0122489
v 0.0299777 0.0000000 -0.0122981
v 0.0395279 0.0000000 -0.0123726
v 0.0299603 0.0000000 -0.0123963
v 0.0395496 0.0000000 -0.0124954
v 0.0299382 0.0000000 -0.0124935
v 0.0395773 0.0000000 -0.0126169
v 0.0299111 0.0000000 -0.0125895
v 0.0396111 0.0000000 -0.0127369
v 0.0298794 0.0000000 -0.0126840
v 0.0396508 0.0000000 -0.0128551
v 0.0298430 0.0000000 -0.0127769
v 0.0396963 0.0000000 -0.0129711
v 0.0298019 0.0000000 -0.0128678
v 0.0397476 0.0000000 -0.0130847
v 0.0297564 0.0000000 -0.0129565
v 0.0398044 0.0000000 -0.0131956
v 0.0297066 0.0000000 -0.0130429
v 0.0398668 0.0000000 -0.0133036
v 0.0296525 0.0000000 -0.0131266
v 0.0399344 0.0000000 -0.0134083
v 0.0295943 0.0000000 -0.0132076
v 0.0400072 0.0000000 -0.0135095
v 0.0295321 0.0000000 -0.0132856
v 0.0400849 0.0000000 -0.0136070
v 0.0294661 0.0000000 -0.0133603
v 0.0401674 0.0000000 -0.0137004
v 0.0293965 0.0000000 -0.0134317
v 0.0293234 0.0000000 -0.0134996
v 0.0402544 0.0000000 -0.0137897
v 0.0292470 0.0000000 -0.0135637
v 0.0403458 0.0000000 -0.0138745
v 0.0291675 0.0000000 -0.0136239
v 0.0404413 0.0000000 -0.0139546
v 0.0290851 0.0000000 -0.0136801
v 0.0405406 0.0000000 -0.0140298
v 0.0290000 0.0000000 -0.0137321
v 0.0406436 0.0000000 -0.0141001
v 0.0289124 0.0000000 -0.0137797
v 0.0407500 0.0000000 -0.0141651
v 0.0288226 0.0000000 -0.0138230
v 0.0408595 0.0000000 -0.0142247
v 0.0287307 0.0000000 -0.0138617
v 0.0409718 0.0000000 -0.0142788
v 0.0286370 0.0000000 -0.0138959
v 0.0410866 0.0000000 -0.0143272
v 0.0285417 0.0000000 -0.0139252
v 0.0412038 0.0000000 -0.0143698
v 0.0284450 0.0000000 -0.0139499
v 0.0413229 0.0000000 -0.0144066
v 0.0283473 0.0000000 -0.0139696
v 0.0414437 0.0000000 -0.0144373
v 0.0282487 0.0000000 -0.0139845
v 0.0150996 0.0000000 -0.0109797
v 0.0264679 0.0000000 -0.0107144
v 0.0265339 0.0000000 -0.0106397
v 0.0150474 0.0000000 -0.0109262
v 0.0149925 0.0000000 -0.0108753
v 0.0266035 0.0000000 -0.0105683
v 0.0151491 0.0000000 -0.0110358
v 0.0264057 0.0000000 -0.0107924
v 0.0149352 0.0000000 -0.0108273
v 0.0266766 0.0000000 -0.0105004
v 0.0151957 0.0000000 -0.0110943
v 0.0263475 0.0000000 -0.0108734
v 0.0148756 0.0000000 -0.0107821
v 0.0267530 0.0000000 -0.0104363
v 0.0152394 0.0000000 -0.0111550
v 0.0262934 0.0000000 -0.0109571
v 0.0148138 0.0000000 -0.0107400
v 0.0268325 0.0000000 -0.0103761
v 0.0152799 0.0000000 -0.0112178
v 0.0262436 0.0000000 -0.0110435
v 0.0147500 0.0000000 -0.0107010
v 0.0269149 0.0000000 -0.0103199
v 0.0153173 0.0000000 -0.0112826
v 0.0261981 0.0000000 -0.0111322
v 0.0146843 0.0000000 -0.0106652
v 0.0270000 0.0000000 -0.0102679
v 0.0153515 0.0000000 -0.0113492
v 0.0261570 0.0000000 -0.0112231
v 0.0146169 0.0000000 -0.0106327
v 0.0270876 0.0000000 -0.0102203
v 0.0153822 0.0000000 -0.0114173
v 0.0261206 0.0000000 -0.0113160
v 0.0145480 0.0000000 -0.0106037
v 0.0271774 0.0000000 -0.0101770
v 0.0154095 0.0000000 -0.0114870
v 0.0260889 0.0000000 -0.0114105
v 0.0144777 0.0000000 -0.0105781
v 0.0272693 0.0000000 -0.0101383
v 0.0154334 0.0000000 -0.0115579
v 0.0260618 0.0000000 -0.0115065
v 0.0154536 0.0000000 -0.0116299
v 0.0260397 0.0000000 -0.0116037
v 0.0154703 0.0000000 -0.0117028
v 0.0260223 0.0000000 -0.0117019
v 0.0154832 0.0000000 -0.0117764
v 0.0260099 0.0000000 -0.0118009
v 0.0154925 0.0000000 -0.0118506
v 0.0260025 0.0000000 -0.0119003
v 0.0154981 0.0000000 -0.0119252
v 0.0260000 0.0000000 -0.0120000
v 0.0155000 0.0000000 -0.0120000
v 0.0154981 0.0000000 -0.0120748
v 0.0260025 0.0000000 -0.0120997
v 0.0154925 0.0000000 -0.0121494
v 0.0260099 0.0000000 -0.0121991
v 0.0154832 0.0000000 -0.0122236
v 0.0260223 0.0000000 -0.0122981
v 0.0154703 0.0000000 -0.0122972
v 0.0260397 0.0000000 -0.0123963
v 0.0154536 0.0000000 -0.0123701
v 0.0260618 0.0000000 -0.0124935
v 0.0140374 0.0000000 -0.0105005
v 0.0141121 0.0000000 -0.0105042
v 0.0141865 0.0000000 -0.0105116
v 0.0142605 0.0000000 -0.0105228
v 0.0143338 0.0000000 -0.0105376
v 0.0144063 0.0000000 -0.0105561
v 0.0273630 0.0000000 -0.0101041
v 0.0274583 0.0000000 -0.0100748
v 0.0275550 0.0000000 -0.0100501
v 0.0276527 0.0000000 -0.0100304
v 0.0277513 0.0000000 -0.0100155
v 0.0278505 0.0000000 -0.0100056
v 0.0279501 0.0000000 -0.0100006
v 0.0280499 0.0000000 -0.0100006
v 0.0281495 0.0000000 -0.0100056
v 0.0135937 0.0000000 -0.0105561
v 0.0136662 0.0000000 -0.0105376
v 0.0137395 0.0000000 -0.0105228
v 0.0138135 0.0000000 -0.0105116
v 0.0138879 0.0000000 -0.0105042
v 0.0139626 0.0000000 -0.0105005
v 0.0154334 0.0000000 -0.0124421
v 0.0260889 0.0000000 -0.0125895
v 0.0135223 0.0000000 -0.0105781
v 0.0154095 0.0000000 -0.0125130
v 0.0261206 0.0000000 -0.0126840
v 0.0134520 0.0000000 -0.0106037
v 0.0153822 0.0000000 -0.0125827
v 0.0261570 0.0000000 -0.0127769
v 0.0133831 0.0000000 -0.0106327
v 0.0153515 0.0000000 -0.0126508
v 0.0261981 0.0000000 -0.0128678
v 0.0133157 0.0000000 -0.0106652
v 0.0153173 0.0000000 -0.0127174
v 0.0262436 0.0000000 -0.0129565
v 0.0132500 0.0000000 -0.0107010
v 0.0152799 0.0000000 -0.0127822
v 0.0262934 0.0000000 -0.0130429
v 0.0131862 0.0000000 -0.0107400
v 0.0152394 0.0000000 -0.0128450
v 0.0263475 0.0000000 -0.0131266
v 0.0131244 0.0000000 -0.0107821
v 0.0151957 0.0000000 -0.0129057
v 0.0264057 0.0000000 -0.0132076
v 0.0130648 0.0000000 -0.0108273
v 0.0151491 0.0000000 -0.0129642
v 0.0264679 0.0000000 -0.0132856
v 0.0130075 0.0000000 -0.0108753
v 0.0150996 0.0000000 -0.0130203
v 0.0265339 0.0000000 -0.0133603
v 0.0129526 0.0000000 -0.0109262
v 0.0150474 0.0000000 -0.0130738
v 0.0129004 0.0000000 -0.0109797
v 0.0149925 0.0000000 -0.0131247
v 0.0266035 0.0000000 -0.0134317
v 0.0128509 0.0000000 -0.0110358
v 0.0149352 0.0000000 -0.0131727
v 0.0266766 0.0000000 -0.0134996
v 0.0128043 0.0000000 -0.0110943
v 0.0148756 0.0000000 -0.0132179
v 0.0267530 0.0000000 -0.0135637
v 0.0148138 0.0000000 -0.0132600
v 0.0268325 0.0000000 -0.0136239
v 0.0147500 0.0000000 -0.0132990
v 0.0269149 0.0000000 -0.0136801
v 0.0146843 0.0000000 -0.0133348
v 0.0270000 0.0000000 -0.0137321
v 0.0146169 0.0000000 -0.0133673
v 0.0270876 0.0000000 -0.0137797
v 0.0145480 0.0000000 -0.0133963
v 0.0271774 0.0000000 -0.0138230
v 0.0144777 0.0000000 -0.0134219
v 0.0272693 0.0000000 -0.0138617
v 0.0125000 0.0000000 -0.0120000
v 0.0125019 0.0000000 -0.0119252
v 0.0125075 0.0000000 -0.0118506
v 0.0125168 0.0000000 -0.0117764
v 0.0125297 0.0000000 -0.0117028
v 0.0125464 0.0000000 -0.0116299
v 0.0125666 0.0000000 -0.0115579
v 0.0125905 0.0000000 -0.0114870
v 0.0126178 0.0000000 -0.0114173
v 0.0126485 0.0000000 -0.0113492
v 0.0126827 0.0000000 -0.0112826
v 0.0127201 0.0000000 -0.0112178
v 0.0127606 0.0000000 -0.0111550
v 0.0000000 0.0000000 -0.0210000
v 0.0128043 0.0000000 -0.0129057
v 0.0127606 0.0000000 -0.0128450
v 0.0127201 0.0000000 -0.0127822
v 0.0126827 0.0000000 -0.0127174
v 0.0126485 0.0000000 -0.0126508
v 0.0126178 0.0000000 -0.0125827
v 0.0125905 0.0000000 -0.0125130
v 0.0125666 0.0000000 -0.0124421
v 0.0125464 0.0000000 -0.0123701
v 0.0125297 0.0000000 -0.0122972
v 0.0125168 0.0000000 -0.0122236
v 0.0125075 0.0000000 -0.0121494
v 0.0125019 0.0000000 -0.0120748
v 0.0030000 0.0000000 -0.0240000
v 0.0280499 0.0000000 -0.0139994
v 0.0279501 0.0000000 -0.0139994
v 0.0278505 0.0000000 -0.0139944
v 0.0277513 0.0000000 -0.0139845
v 0.0276527 0.0000000 -0.0139696
v 0.0275550 0.0000000 -0.0139499
v 0.0274583 0.0000000 -0.0139252
v 0.0273630 0.0000000 -0.0138959
v 0.0144063 0.0000000 -0.0134439
v 0.0143338 0.0000000 -0.0134624
v 0.0142605 0.0000000 -0.0134772
v 0.0141865 0.0000000 -0.0134884
v 0.0141121 0.0000000 -0.0134958
v 0.0140374 0.0000000 -0.0134995
v 0.0139626 0.0000000 -0.0134995
v 0.0138879 0.0000000 -0.0134958
v 0.0138135 0.0000000 -0.0134884
v 0.0137395 0.0000000 -0.0134772
v 0.0136662 0.0000000 -0.0134624
v 0.0135937 0.0000000 -0.0134439
v 0.0135223 0.0000000 -0.0134219
v 0.0134520 0.0000000 -0.0133963
v 0.0133831 0.0000000 -0.0133673
v 0.0133157 0.0000000 -0.0133348
v 0.0132500 0.0000000 -0.0132990
v 0.0131862 0.0000000 -0.0132600
v 0.0131244 0.0000000 -0.0132179
v 0.0130648 0.0000000 -0.0131727
v 0.0130075 0.0000000 -0.0131247
v 0.0129526 0.0000000 -0.0130738
v 0.0129004 0.0000000 -0.0130203
v 0.0128509 0.0000000 -0.0129642
v 0.0000576 0.0000000 -0.0215853
v 0.0000144 0.0000000 -0.0212941
v 0.0000325 0.0000000 -0.0214402
v 0.0000036 0.0000000 -0.0211472
v 0.0022711 0.0000000 -0.0239101
v 0.0027059 0.0000000 -0.0239856
v 0.0028528 0.0000000 -0.0239964
v 0.0025598 0.0000000 -0.0239675
v 0.0024147 0.0000000 -0.0239424
v 0.0021291 0.0000000 -0.0238708
v 0.0001292 0.0000000 -0.0218709
v 0.0000899 0.0000000 -0.0217289
v 0.0018519 0.0000000 -0.0237716
v 0.0019893 0.0000000 -0.0238246
v 0.0002284 0.0000000 -0.0221481
v 0.0001754 0.0000000 -0.0220107
v 0.0002880 0.0000000 -0.0222827
v 0.0014577 0.0000000 -0.0235732
v 0.0017173 0.0000000 -0.0237120
v 0.0015858 0.0000000 -0.0236458
v 0.0013333 0.0000000 -0.0234944
v 0.0005904 0.0000000 -0.0227871
v 0.0004268 0.0000000 -0.0225423
v 0.0005056 0.0000000 -0.0226667
v 0.0003542 0.0000000 -0.0224142
v 0.0010968 0.0000000 -0.0233190
v 0.0012129 0.0000000 -0.0234096
v 0.0007771 0.0000000 -0.0230147
v 0.0006810 0.0000000 -0.0229032
v 0.0008787 0.0000000 -0.0231213
v 0.0009853 0.0000000 -0.0232229
v 0.0418132 0.0000000 -0.0144930
v 0.0416891 0.0000000 -0.0144806
v 0.0415659 0.0000000 -0.0144620
v 0.0281495 0.0000000 -0.0139944
f 1 2 3
f 1 3 4
f 5 4 6
f 5 6 7
f 5 1 4
f 8 5 7
f 9 7 10
f 9 8 7
f 11 10 12
f 11 12 13
f 11 9 10
f 14 11 13
f 15 13 16
f 15 14 13
f 17 16 18
f 17 15 16
f 19 17 18
f 19 18 20
f 21 19 20
f 21 20 22
f 23 21 22
f 23 22 24
f 23 24 25
f 26 23 25
f 27 26 25
f 27 25 28
f 29 27 28
f 29 28 30
f 31 29 30
f 31 30 32
f 33 31 32
f 33 32 34
f 35 33 34
f 35 34 36
f 37 35 36
f 37 36 38
f 39 37 38
f 39 38 40
f 41 39 40
f 41 40 42
f 43 42 44
f 43 41 42
f 45 43 44
f 45 44 46
f 47 46 48
f 47 45 46
f 49 48 50
f 49 47 48
f 51 50 52
f 51 49 50
f 53 52 54
f 53 51 52
f 55 54 56
f 55 53 54
f 57 56 58
f 57 55 56
f 59 58 60
f 59 57 58
f 61 60 62
f 61 62 63
f 61 59 60
f 64 61 63
f 64 63 65
f 66 64 65
f 26 27 29
f 26 29 31
f 26 31 33
f 43 35 37
f 43 37 39
f 43 39 41
f 23 26 33
f 17 19 21
f 17 21 23
f 17 33 35
f 17 23 33
f 51 43 45
f 51 45 47
f 51 47 49
f 53 43 51
f 14 15 17
f 57 53 55
f 57 43 53
f 9 11 14
f 9 14 17
f 1 5 8
f 2 8 9
f 2 1 8
f 66 57 59
f 66 59 61
f 66 61 64
f 66 35 43
f 66 17 35
f 66 43 57
f 66 9 17
f 66 2 9
f 67 68 69
f 67 69 70
f 71 67 70
f 71 72 67
f 73 74 75
f 73 75 71
f 76 73 71
f 77 76 71
f 77 78 79
f 77 79 76
f 80 81 77
f 80 77 71
f 82 66 83
f 84 83 66
f 85 66 82
f 86 84 66
f 87 66 85
f 87 2 66
f 88 86 66
f 89 2 87
f 90 88 66
f 91 2 89
f 92 90 66
f 93 2 91
f 94 92 66
f 95 2 93
f 96 97 80
f 98 94 66
f 99 2 95
f 100 98 66
f 101 2 99
f 102 100 66
f 103 2 101
f 104 102 66
f 105 2 103
f 106 104 66
f 107 2 105
f 108 106 66
f 109 2 107
f 110 108 66
f 111 2 109
f 112 110 66
f 113 114 96
f 113 96 80
f 115 2 111
f 116 112 66
f 117 70 2
f 117 2 115
f 118 116 66
f 119 70 117
f 120 118 66
f 121 70 119
f 122 120 66
f 123 70 121
f 124 122 66
f 125 70 123
f 126 127 113
f 126 80 71
f 126 113 80
f 128 124 66
f 129 70 125
f 130 128 66
f 131 70 129
f 132 130 66
f 133 70 131
f 134 70 133
f 135 136 126
f 137 70 134
f 138 70 137
f 139 70 138
f 140 70 139
f 141 142 135
f 141 135 126
f 143 70 140
f 144 145 141
f 144 126 71
f 144 71 70
f 144 141 126
f 146 147 144
f 146 144 70
f 148 149 146
f 150 151 148
f 150 148 146
f 150 70 143
f 150 152 153
f 150 154 152
f 150 155 154
f 150 156 155
f 150 157 156
f 150 158 157
f 150 159 158
f 150 160 159
f 150 161 160
f 150 162 161
f 150 163 162
f 150 143 163
f 150 146 70
f 164 150 153
f 165 150 164
f 166 150 165
f 167 150 166
f 168 150 167
f 169 150 168
f 170 150 169
f 171 150 170
f 172 150 171
f 173 150 172
f 174 150 173
f 175 150 174
f 176 150 175
f 177 178 179
f 180 181 178
f 180 182 181
f 180 178 177
f 183 179 184
f 183 177 179
f 185 186 182
f 185 182 180
f 187 183 184
f 187 184 188
f 189 190 186
f 189 186 185
f 191 187 188
f 191 188 192
f 193 190 189
f 193 194 190
f 195 191 192
f 195 192 196
f 197 194 193
f 197 198 194
f 199 195 196
f 199 196 200
f 201 202 198
f 201 198 197
f 203 200 204
f 203 199 200
f 205 202 201
f 205 206 202
f 207 204 132
f 207 203 204
f 208 206 205
f 208 209 206
f 210 132 66
f 210 207 132
f 211 212 209
f 211 209 208
f 213 210 66
f 214 215 212
f 214 212 211
f 216 213 66
f 217 218 215
f 217 215 214
f 219 216 66
f 220 221 218
f 220 218 217
f 222 219 66
f 223 224 221
f 223 221 220
f 225 222 66
f 226 224 223
f 226 227 224
f 228 225 66
f 229 230 227
f 229 227 226
f 231 228 66
f 232 233 234
f 232 234 230
f 232 230 229
f 235 231 66
f 236 237 233
f 236 233 232
f 238 235 66
f 239 240 237
f 239 237 236
f 241 238 66
f 242 243 240
f 242 240 239
f 244 245 243
f 244 243 242
f 246 247 245
f 246 245 244
f 248 249 247
f 248 247 246
f 250 251 249
f 250 249 248
f 252 253 251
f 252 251 250
f 254 255 253
f 254 253 252
f 256 255 254
f 256 257 255
f 258 257 256
f 258 259 257
f 260 259 258
f 260 261 259
f 262 263 261
f 262 261 260
f 264 263 262
f 264 265 263
f 266 265 264
f 266 267 265
f 266 268 267
f 269 268 266
f 269 270 268
f 271 272 270
f 271 270 269
f 273 272 271
f 273 274 272
f 275 274 273
f 275 276 274
f 277 276 275
f 277 278 276
f 279 278 277
f 279 280 278
f 281 282 280
f 281 280 279
f 283 176 282
f 283 282 281
f 284 150 176
f 284 176 283
f 285 150 284
f 286 150 285
f 287 150 286
f 288 150 287
f 289 150 288
f 290 150 289
f 291 150 290
f 292 150 291
f 293 294 295
f 296 294 293
f 296 297 294
f 296 298 297
f 299 293 295
f 299 295 300
f 301 302 298
f 301 298 296
f 303 300 304
f 303 299 300
f 305 306 302
f 305 302 301
f 307 303 304
f 307 304 308
f 309 306 305
f 309 310 306
f 311 308 312
f 311 307 308
f 313 310 309
f 313 314 310
f 315 312 316
f 315 311 312
f 317 314 313
f 317 318 314
f 319 315 316
f 319 316 320
f 321 318 317
f 321 322 318
f 323 319 320
f 323 320 324
f 325 322 321
f 325 326 322
f 327 323 324
f 327 324 328
f 329 330 326
f 329 326 325
f 331 327 328
f 331 328 332
f 333 334 330
f 333 330 329
f 335 332 336
f 335 331 332
f 337 334 333
f 337 338 334
f 339 336 241
f 339 335 336
f 340 338 337
f 340 341 338
f 342 241 66
f 342 339 241
f 343 341 340
f 343 344 341
f 345 342 66
f 346 344 343
f 346 347 344
f 348 347 346
f 348 349 347
f 350 349 348
f 350 351 352
f 350 352 349
f 353 351 350
f 353 354 351
f 355 354 353
f 355 356 354
f 357 356 355
f 357 358 356
f 359 358 357
f 359 360 358
f 361 360 359
f 361 362 360
f 363 362 361
f 363 364 362
f 365 364 363
f 365 366 364
f 367 366 365
f 367 368 366
f 369 370 368
f 369 368 367
f 371 370 369
f 371 372 370
f 373 372 371
f 373 374 372
f 375 374 373
f 375 376 374
f 377 376 375
f 377 378 376
f 379 380 378
f 379 378 377
f 381 382 380
f 381 383 382
f 381 380 379
f 384 385 383
f 384 383 381
f 386 385 384
f 386 387 385
f 388 389 387
f 388 387 386
f 390 389 388
f 390 391 389
f 392 391 390
f 392 393 391
f 394 393 392
f 394 395 393
f 396 395 394
f 396 397 395
f 398 397 396
f 398 399 397
f 400 399 398
f 400 401 399
f 402 401 400
f 402 403 401
f 404 403 402
f 404 405 403
f 406 405 404
f 406 407 405
f 408 409 410
f 411 409 408
f 411 412 409
f 411 413 412
f 414 408 410
f 414 410 415
f 416 413 411
f 416 417 413
f 418 414 415
f 418 415 419
f 420 417 416
f 420 421 417
f 422 418 419
f 422 419 423
f 424 421 420
f 424 425 421
f 426 422 423
f 426 423 427
f 428 425 424
f 428 429 425
f 430 426 427
f 430 427 431
f 432 429 428
f 432 433 429
f 434 430 431
f 434 431 435
f 436 433 432
f 436 437 433
f 438 434 435
f 438 435 439
f 440 437 436
f 440 441 437
f 442 438 439
f 442 439 443
f 444 441 440
f 444 445 441
f 446 442 443
f 446 443 447
f 448 445 444
f 448 449 445
f 450 451 449
f 450 449 448
f 452 453 451
f 452 451 450
f 454 455 453
f 454 453 452
f 456 457 455
f 456 455 454
f 458 459 457
f 458 457 456
f 460 461 459
f 460 459 458
f 460 462 461
f 463 462 460
f 463 464 462
f 465 464 463
f 465 466 464
f 467 466 465
f 467 468 466
f 469 470 468
f 469 468 467
f 471 472 470
f 471 470 469
f 473 474 472
f 473 472 471
f 475 476 474
f 475 474 473
f 477 476 475
f 477 478 476
f 479 478 477
f 479 480 478
f 481 480 479
f 481 482 480
f 483 484 485
f 483 486 484
f 483 487 486
f 483 488 487
f 483 489 488
f 483 490 489
f 483 491 490
f 483 492 491
f 483 493 492
f 483 494 493
f 483 345 66
f 483 446 447
f 483 495 345
f 483 496 495
f 483 497 496
f 483 498 497
f 483 499 498
f 483 500 499
f 483 447 500
f 483 501 446
f 483 502 501
f 483 503 502
f 483 504 503
f 483 505 504
f 483 506 505
f 483 485 506
f 507 482 481
f 507 508 482
f 509 494 483
f 510 508 507
f 510 511 508
f 512 509 483
f 513 511 510
f 513 514 511
f 515 516 517
f 518 512 483
f 519 514 513
f 519 520 514
f 521 483 516
f 521 516 515
f 522 518 483
f 523 520 519
f 523 524 520
f 523 525 524
f 526 522 483
f 527 521 528
f 529 525 523
f 529 530 525
f 531 526 483
f 532 483 521
f 532 521 527
f 533 530 529
f 533 534 530
f 535 531 483
f 536 537 534
f 536 534 533
f 538 532 539
f 540 535 483
f 541 542 537
f 541 537 536
f 543 532 538
f 544 545 542
f 544 542 541
f 546 483 532
f 546 532 543
f 547 548 545
f 547 545 544
f 549 550 548
f 549 548 547
f 551 546 552
f 551 483 546
f 553 554 550
f 553 550 549
f 555 483 551
f 556 557 554
f 556 554 553
f 558 483 555
f 559 560 557
f 559 557 556
f 561 483 558
f 562 563 564
f 562 564 565
f 566 563 562
f 566 562 567
f 568 569 570
f 568 570 563
f 568 566 571
f 568 563 566
f 572 569 568
f 573 572 574
f 575 483 561
f 575 569 572
f 575 561 569
f 575 572 573
f 576 577 540
f 576 578 577
f 576 579 578
f 576 580 579
f 576 581 580
f 576 582 581
f 576 583 582
f 576 584 583
f 576 585 584
f 576 586 585
f 576 587 586
f 576 588 587
f 576 589 588
f 576 483 575
f 576 540 483
f 576 575 590
f 591 589 576
f 591 592 589
f 591 593 592
f 591 594 593
f 591 595 594
f 591 596 595
f 591 597 596
f 591 598 597
f 591 599 598
f 591 600 599
f 591 601 600
f 591 602 601
f 591 603 602
f 591 604 603
f 605 560 559
f 605 606 560
f 605 607 606
f 605 608 607
f 605 609 608
f 605 610 609
f 605 611 604
f 605 612 611
f 605 613 612
f 605 614 613
f 605 615 614
f 605 616 615
f 605 617 616
f 605 618 617
f 605 619 618
f 605 620 619
f 605 621 620
f 605 622 621
f 605 623 622
f 605 624 623
f 605 625 624
f 605 626 625
f 605 627 626
f 605 628 627
f 605 629 628
f 605 630 629
f 605 631 630
f 605 632 631
f 605 633 632
f 605 634 633
f 605 559 634
f 605 604 591
f 635 605 591
f 635 636 637
f 635 637 605
f 638 635 591
f 639 640 641
f 639 641 642
f 643 644 638
f 645 640 639
f 645 646 640
f 645 639 647
f 648 638 591
f 648 643 638
f 648 591 646
f 649 646 645
f 649 648 646
f 650 651 648
f 652 650 648
f 653 649 654
f 653 654 655
f 656 657 652
f 658 653 659
f 660 656 652
f 660 652 648
f 660 661 656
f 662 648 649
f 662 649 653
f 662 658 663
f 662 663 664
f 662 653 658
f 662 665 660
f 662 660 648
f 605 150 610
f 610 150 666
f 666 150 667
f 667 150 668
f 668 150 406
f 406 150 407
f 407 150 669
f 669 150 292
f 670 483 65
f 65 483 66
f 671 672 673
f 671 674 672
f 675 676 677
f 675 678 676
f 679 680 681
f 679 671 680
f 679 674 671
f 682 683 675
f 684 679 685
f 686 679 684
f 687 688 682
f 687 675 677
f 687 682 675
f 689 686 690
f 691 692 687
f 691 693 692
f 694 689 695
f 694 686 689
f 694 679 686
f 696 697 698
f 699 700 701
f 699 694 700
f 699 679 694
f 702 677 674
f 702 698 691
f 702 674 679
f 702 687 677
f 702 679 699
f 702 691 687
f 702 696 698
f 670 702 699
f 703 704 705
f 706 703 705
f 707 670 708
f 709 708 670
f 710 670 707
f 711 709 670
f 712 670 710
f 712 702 670
f 713 711 670
f 714 706 705
f 714 715 706
f 716 702 712
f 717 713 670
f 718 702 716
f 719 717 670
f 720 702 718
f 721 719 670
f 722 702 720
f 723 721 670
f 724 702 722
f 725 723 670
f 726 702 724
f 727 728 714
f 729 725 670
f 730 702 726
f 731 729 670
f 732 702 730
f 733 727 714
f 733 714 705
f 734 731 670
f 735 702 732
f 736 734 670
f 737 733 705
f 738 702 735
f 739 736 670
f 740 702 738
f 741 739 670
f 742 702 740
f 743 741 670
f 744 702 742
f 744 705 702
f 745 743 670
f 746 705 744
f 747 748 737
f 747 749 748
f 750 745 670
f 751 705 746
f 752 747 737
f 753 750 670
f 754 705 751
f 755 753 670
f 756 705 754
f 757 755 670
f 758 759 752
f 758 752 737
f 760 705 756
f 761 757 670
f 762 705 760
f 763 761 670
f 764 705 762
f 765 758 737
f 765 737 705
f 765 766 758
f 767 705 764
f 768 705 767
f 769 765 705
f 769 770 765
f 771 705 768
f 772 769 705
f 773 705 771
f 774 705 773
f 775 776 772
f 777 705 774
f 778 775 772
f 778 779 775
f 780 772 705
f 780 778 772
f 780 781 778
f 782 780 705
f 782 783 780
f 784 777 785
f 784 785 786
f 784 786 787
f 784 787 788
f 784 788 789
f 784 789 790
f 784 790 791
f 784 705 777
f 784 782 705
f 784 792 782
f 784 793 792
f 784 794 793
f 795 784 791
f 796 784 795
f 797 784 796
f 798 784 797
f 799 784 798
f 800 784 799
f 801 784 800
f 802 784 801
f 803 784 802
f 804 784 803
f 805 784 804
f 806 784 805
f 807 784 806
f 808 784 807
f 809 784 808
f 810 784 809
f 811 784 810
f 812 784 811
f 813 814 815
f 813 816 814
f 817 815 814
f 817 814 818
f 819 816 813
f 819 820 816
f 821 818 822
f 821 817 818
f 823 824 820
f 823 820 819
f 825 822 826
f 825 821 822
f 827 828 824
f 827 824 823
f 829 826 830
f 829 825 826
f 831 832 828
f 831 828 827
f 833 830 834
f 833 829 830
f 835 836 832
f 835 832 831
f 837 834 838
f 837 833 834
f 839 840 836
f 839 836 835
f 841 838 842
f 841 837 838
f 843 844 840
f 843 840 839
f 845 842 846
f 845 841 842
f 847 848 844
f 847 844 843
f 849 845 846
f 849 846 850
f 851 848 847
f 851 852 848
f 853 850 763
f 853 849 850
f 854 852 851
f 854 855 852
f 856 853 763
f 856 763 670
f 857 855 854
f 857 858 855
f 859 856 670
f 860 858 857
f 860 861 858
f 862 859 670
f 863 861 860
f 863 864 861
f 865 862 670
f 866 864 863
f 866 867 864
f 868 865 670
f 869 867 866
f 870 868 670
f 871 867 869
f 871 872 867
f 873 870 670
f 874 872 871
f 874 875 872
f 876 873 670
f 877 875 874
f 877 878 875
f 879 878 877
f 879 880 878
f 881 882 880
f 881 880 879
f 883 884 882
f 883 882 881
f 885 884 883
f 885 886 884
f 887 886 885
f 887 888 886
f 889 888 887
f 889 890 888
f 891 890 889
f 891 892 890
f 893 892 891
f 893 894 892
f 895 894 893
f 895 896 894
f 897 896 895
f 897 898 896
f 899 898 897
f 899 900 898
f 901 900 899
f 901 902 900
f 903 902 901
f 904 902 903
f 904 905 902
f 906 905 904
f 906 907 905
f 908 907 906
f 908 909 907
f 910 909 908
f 910 911 909
f 912 911 910
f 912 913 911
f 914 913 912
f 914 915 913
f 916 915 914
f 916 917 915
f 918 917 916
f 918 919 917
f 920 919 918
f 920 921 919
f 922 921 920
f 922 812 921
f 923 812 922
f 923 784 812
f 924 784 923
f 925 784 924
f 926 784 925
f 927 784 926
f 928 784 927
f 929 930 931
f 929 931 932
f 933 931 934
f 933 932 931
f 935 936 930
f 935 930 929
f 937 934 938
f 937 933 934
f 939 940 936
f 939 936 935
f 941 938 942
f 941 937 938
f 943 940 939
f 943 944 940
f 945 941 942
f 945 942 946
f 947 948 944
f 947 944 943
f 949 946 950
f 949 945 946
f 951 952 948
f 951 948 947
f 953 949 950
f 953 950 954
f 955 956 952
f 955 952 951
f 957 954 958
f 957 953 954
f 959 960 956
f 959 956 955
f 961 958 962
f 961 957 958
f 963 964 960
f 963 960 959
f 965 961 962
f 965 962 966
f 967 968 964
f 967 964 963
f 969 966 970
f 969 965 966
f 971 972 968
f 971 968 967
f 973 969 970
f 973 970 974
f 975 976 972
f 975 972 971
f 977 973 974
f 977 974 978
f 979 980 976
f 979 976 975
f 981 978 982
f 981 977 978
f 983 980 979
f 983 984 980
f 985 984 983
f 985 986 984
f 987 986 985
f 988 986 987
f 988 989 986
f 990 991 989
f 990 989 988
f 992 993 991
f 992 991 990
f 994 995 993
f 994 993 992
f 996 997 995
f 996 995 994
f 998 999 997
f 998 997 996
f 1000 1001 999
f 1000 999 998
f 1002 1003 1001
f 1002 1001 1000
f 1004 1005 1003
f 1004 1003 1002
f 1006 1007 1005
f 1006 1005 1004
f 1008 1009 1007
f 1008 1007 1006
f 1010 1011 1009
f 1010 1009 1008
f 1012 1013 1011
f 1012 1011 1010
f 1014 1015 1013
f 1014 1013 1012
f 1016 1017 1015
f 1016 1015 1014
f 1018 1017 1016
f 1019 1020 1017
f 1019 1017 1018
f 1021 1022 1020
f 1021 1020 1019
f 1023 1024 1022
f 1023 1022 1021
f 1025 1026 1024
f 1025 1024 1023
f 1027 1026 1025
f 1027 1028 1026
f 1029 1028 1027
f 1029 1030 1028
f 1031 1030 1029
f 1031 1032 1030
f 1033 1032 1031
f 1033 1034 1032
f 1035 1034 1033
f 1035 1036 1034
f 1037 1036 1035
f 1037 1038 1036
f 1039 1038 1037
f 1039 1040 1038
f 1041 1040 1039
f 1041 1042 1040
f 1043 1042 1041
f 1044 1045 1046
f 1044 1046 1047
f 1048 1046 1049
f 1048 1047 1046
f 1050 1051 1045
f 1050 1045 1044
f 1052 1048 1049
f 1052 1049 1053
f 1054 1055 1051
f 1054 1051 1050
f 1056 1052 1053
f 1056 1053 1057
f 1058 1055 1054
f 1058 1059 1055
f 1060 1056 1057
f 1060 1057 1061
f 1062 1059 1058
f 1062 1063 1059
f 1064 1060 1061
f 1064 1061 1065
f 1066 1063 1062
f 1066 1067 1063
f 1068 1064 1065
f 1068 1065 1069
f 1070 1067 1066
f 1070 1071 1067
f 1072 1068 1069
f 1072 1069 1073
f 1074 1071 1070
f 1074 1075 1071
f 1076 1073 1077
f 1076 1072 1073
f 1078 1075 1074
f 1078 1079 1075
f 1080 1076 1077
f 1080 1077 1081
f 1082 1083 1079
f 1082 1079 1078
f 1084 1083 1082
f 1084 1085 1083
f 1086 1087 1085
f 1086 1085 1084
f 1088 1089 1087
f 1088 1087 1086
f 1090 1091 1089
f 1090 1089 1088
f 1092 1091 1090
f 1092 1093 1091
f 1094 1093 1092
f 1095 1096 1093
f 1095 1093 1094
f 1097 1096 1095
f 1097 1098 1096
f 1099 1100 1098
f 1099 1098 1097
f 1101 1102 1100
f 1101 1100 1099
f 1103 1102 1101
f 1103 1104 1102
f 65 1080 1081
f 65 1105 1106
f 65 1106 1107
f 65 1107 1108
f 65 1108 1109
f 65 1109 1110
f 65 1110 1080
f 65 981 982
f 65 982 876
f 65 1081 1111
f 65 1111 1112
f 65 1112 1113
f 65 1113 1114
f 65 1114 1115
f 65 1115 1116
f 65 1116 1117
f 65 1117 1118
f 65 1118 1119
f 65 1119 981
f 65 876 670
f 65 1120 1121
f 65 1121 1122
f 65 1122 1123
f 65 1123 1124
f 65 1124 1125
f 65 1125 1105
f 1126 1127 1104
f 1126 1104 1103
f 1128 1120 65
f 1129 1127 1126
f 1129 1130 1127
f 1131 1128 65
f 1132 1133 1130
f 1132 1130 1129
f 1134 1131 65
f 1135 1133 1132
f 1135 1136 1133
f 62 65 63
f 1137 1134 65
f 1138 1139 1136
f 1138 1136 1135
f 1140 1137 65
f 60 65 62
f 1141 1142 1139
f 1141 1139 1138
f 1143 1140 65
f 1144 1142 1141
f 1144 1145 1142
f 1146 1143 65
f 1147 1148 1145
f 1147 1145 1144
f 1149 1146 65
f 1150 1148 1147
f 1150 1151 1148
f 56 60 58
f 1152 1149 65
f 1153 1151 1150
f 1153 1154 1151
f 1155 1152 65
f 1156 1154 1153
f 1157 1155 65
f 1158 1159 1154
f 1158 1154 1156
f 1160 1157 65
f 52 60 56
f 52 56 54
f 1161 1162 1159
f 1161 1159 1158
f 1163 1160 65
f 1164 1165 1162
f 1164 1162 1161
f 50 65 60
f 50 60 52
f 1166 1167 1165
f 1166 1165 1164
f 1168 1169 1167
f 1168 1167 1166
f 1170 1169 1168
f 1170 1171 1169
f 1172 1173 1171
f 1172 1171 1170
f 46 50 48
f 1174 1175 1173
f 1174 1173 1172
f 1176 1175 1174
f 1176 1177 1175
f 44 50 46
f 42 50 44
f 40 65 50
f 40 50 42
f 38 65 40
f 34 38 36
f 32 38 34
f 28 32 30
f 28 38 32
f 24 28 25
f 24 38 28
f 22 38 24
f 22 65 38
f 13 18 16
f 13 20 18
f 12 20 13
f 10 20 12
f 7 20 10
f 7 22 20
f 4 7 6
f 4 22 7
f 3 65 22
f 3 22 4
f 3 1163 65
f 3 1178 1179
f 3 1179 1180
f 3 1180 1181
f 3 1181 1182
f 3 1182 1183
f 3 1183 1184
f 3 1184 1185
f 3 1185 1186
f 3 1186 1187
f 3 1187 1188
f 3 1188 1189
f 3 1189 1190
f 3 1190 1163
f 1191 1178 3
f 1191 1192 1193
f 1191 1193 1194
f 1191 1194 1195
f 1191 1195 1196
f 1191 1196 1197
f 1191 1197 1198
f 1191 1198 1199
f 1191 1199 1200
f 1191 1200 1201
f 1191 1201 1202
f 1191 1202 1203
f 1191 1203 1204
f 1191 1204 1178
f 1205 1206 1207
f 1205 1207 1208
f 1205 1208 1209
f 1205 1209 1210
f 1205 1210 1211
f 1205 1211 1212
f 1205 1212 1213
f 1205 1213 1177
f 1205 1176 1214
f 1205 1214 1215
f 1205 1215 1216
f 1205 1216 1217
f 1205 1217 1218
f 1205 1218 1219
f 1205 1219 1220
f 1205 1220 1221
f 1205 1221 1222
f 1205 1222 1223
f 1205 1223 1224
f 1205 1224 1225
f 1205 1225 1226
f 1205 1226 1227
f 1205 1192 1191
f 1205 1227 1228
f 1205 1228 1229
f 1205 1229 1230
f 1205 1230 1231
f 1205 1231 1232
f 1205 1232 1233
f 1205 1233 1234
f 1205 1234 1235
f 1205 1235 1236
f 1205 1236 1237
f 1205 1237 1192
f 1205 1177 1176
f 1238 1239 1240
f 1238 1241 1239
f 1242 1243 1244
f 1242 1245 1243
f 1242 1246 1245
f 1247 1244 1205
f 1247 1242 1244
f 1247 1205 1191
f 1248 1241 1238
f 1248 1247 1191
f 1248 1238 1249
f 1248 1191 1241
f 1250 1251 1247
f 1252 1247 1248
f 1252 1248 1253
f 1252 1250 1247
f 1254 1250 1252
f 1255 1256 1250
f 1255 1257 1256
f 1258 1255 1250
f 1259 1260 1261
f 1259 1262 1260
f 1259 1254 1262
f 1263 1264 1258
f 1263 1258 1250
f 1265 1259 1266
f 1265 1250 1254
f 1265 1254 1259
f 1267 1268 1263
f 1267 1263 1250
f 1267 1250 1265
f 1205 784 928
f 1205 928 1269
f 1205 1269 1270
f 1205 1270 1271
f 1205 1271 1042
f 1205 1042 1043
f 1205 1043 1272
f 1205 1272 1206
f 3 2 1191
f 1191 2 70
f 151 150 1205
f 151 1205 1244
f 148 1244 1243
f 148 1243 1245
f 148 151 1244
f 149 148 1245
f 146 1245 1246
f 146 149 1245
f 147 1246 1242
f 147 1242 1247
f 147 146 1246
f 144 147 1247
f 145 1247 1251
f 145 144 1247
f 141 1251 1250
f 141 1250 1256
f 141 145 1251
f 142 141 1256
f 135 142 1256
f 135 1256 1257
f 136 135 1257
f 136 1257 1255
f 126 136 1255
f 126 1255 1258
f 127 126 1258
f 127 1258 1264
f 127 1264 1263
f 113 127 1263
f 114 113 1263
f 114 1263 1268
f 96 114 1268
f 96 1268 1267
f 97 96 1267
f 97 1267 1265
f 80 97 1265
f 80 1265 1266
f 81 80 1266
f 81 1266 1259
f 81 1259 1261
f 77 81 1261
f 78 1261 1260
f 78 77 1261
f 79 78 1260
f 79 1260 1262
f 76 1262 1254
f 76 79 1262
f 73 1254 1252
f 73 76 1254
f 74 1252 1253
f 74 73 1252
f 75 1253 1248
f 75 74 1253
f 71 1248 1249
f 71 75 1248
f 72 1249 1238
f 72 71 1249
f 67 1238 1240
f 67 1240 1239
f 67 72 1238
f 68 67 1239
f 69 1239 1241
f 69 1241 1191
f 69 68 1239
f 70 69 1191
f 516 483 670
f 516 670 699
f 517 699 701
f 517 701 700
f 517 516 699
f 515 517 700
f 521 700 694
f 521 515 700
f 528 694 695
f 528 695 689
f 528 521 694
f 527 528 689
f 532 689 690
f 532 527 689
f 539 690 686
f 539 532 690
f 538 539 686
f 538 686 684
f 543 538 684
f 543 684 685
f 546 543 685
f 546 685 679
f 546 679 681
f 552 546 681
f 551 552 681
f 551 681 680
f 555 551 680
f 555 680 671
f 558 555 671
f 558 671 673
f 561 558 673
f 561 673 672
f 569 561 672
f 569 672 674
f 570 569 674
f 570 674 677
f 563 570 677
f 563 677 676
f 564 563 676
f 564 676 678
f 565 678 675
f 565 564 678
f 562 565 675
f 562 675 683
f 567 683 682
f 567 562 683
f 566 682 688
f 566 567 682
f 571 688 687
f 571 566 688
f 568 687 692
f 568 571 687
f 572 692 693
f 572 568 692
f 574 693 691
f 574 572 693
f 573 691 698
f 573 574 691
f 575 698 697
f 575 697 696
f 575 573 698
f 590 575 696
f 590 696 702
f 576 590 702
f 605 784 1205
f 605 1205 150
f 576 702 705
f 576 705 591
f 646 591 705
f 646 705 704
f 640 704 703
f 640 646 704
f 641 703 706
f 641 640 703
f 642 706 715
f 642 641 706
f 639 715 714
f 639 642 715
f 647 714 728
f 647 728 727
f 647 639 714
f 645 647 727
f 649 645 727
f 649 727 733
f 654 649 733
f 654 733 737
f 654 737 748
f 655 654 748
f 653 655 748
f 653 748 749
f 659 653 749
f 659 749 747
f 658 659 747
f 658 747 752
f 658 752 759
f 663 658 759
f 664 663 759
f 664 759 758
f 664 758 766
f 662 664 766
f 665 662 766
f 665 766 765
f 665 765 770
f 660 665 770
f 661 660 770
f 661 770 769
f 656 661 769
f 656 769 772
f 657 772 776
f 657 656 772
f 652 657 776
f 652 776 775
f 650 775 779
f 650 652 775
f 651 779 778
f 651 778 781
f 651 650 779
f 648 651 781
f 643 781 780
f 643 648 781
f 644 780 783
f 644 643 780
f 638 783 782
f 638 644 783
f 635 782 792
f 635 638 782
f 636 792 793
f 636 793 794
f 636 635 792
f 637 636 794
f 637 794 784
f 605 637 784
f 234 233 1094
f 1094 233 1095
f 1095 237 1097
f 1097 237 1099
f 233 237 1095
f 237 240 1099
f 1099 243 1101
f 1101 243 1103
f 240 243 1099
f 243 245 1103
f 1103 247 1126
f 245 247 1103
f 1126 249 1129
f 1129 249 1132
f 247 249 1126
f 249 251 1132
f 1132 253 1135
f 251 253 1132
f 1135 255 1138
f 253 255 1135
f 255 257 1138
f 1138 257 1141
f 1141 257 1144
f 257 259 1144
f 259 261 1144
f 1144 261 1147
f 261 263 1147
f 1147 263 1150
f 263 265 1150
f 1150 265 1153
f 1153 265 1156
f 265 267 1156
f 267 268 1156
f 1156 268 1158
f 268 270 1158
f 1158 270 1161
f 1161 270 1164
f 270 272 1164
f 272 274 1164
f 1164 274 1166
f 274 276 1166
f 1166 276 1168
f 276 278 1168
f 1168 278 1170
f 1170 280 1172
f 278 280 1170
f 1172 282 1174
f 280 282 1172
f 1174 176 1176
f 282 176 1174
f 1176 175 1214
f 176 175 1176
f 1214 174 1215
f 175 174 1214
f 1215 173 1216
f 1216 173 1217
f 174 173 1215
f 173 172 1217
f 1217 171 1218
f 172 171 1217
f 1218 170 1219
f 171 170 1218
f 1219 169 1220
f 170 169 1219
f 1220 168 1221
f 169 168 1220
f 1221 167 1222
f 168 167 1221
f 1222 166 1223
f 167 166 1222
f 1223 165 1224
f 166 165 1223
f 165 164 1224
f 1224 164 1225
f 1225 164 1226
f 164 153 1226
f 1226 153 1227
f 153 152 1227
f 152 154 1227
f 1227 154 1228
f 154 155 1228
f 1228 155 1229
f 155 156 1229
f 1229 156 1230
f 156 157 1230
f 1230 157 1231
f 157 158 1231
f 1231 158 1232
f 158 159 1232
f 1232 159 1233
f 159 160 1233
f 1233 160 1234
f 1234 160 1235
f 160 161 1235
f 161 162 1235
f 1235 162 1236
f 162 163 1236
f 1236 163 1237
f 163 143 1237
f 1237 143 1192
f 1192 143 1193
f 143 140 1193
f 140 139 1193
f 1193 139 1194
f 1194 139 1195
f 139 138 1195
f 138 137 1195
f 1195 137 1196
f 1196 137 1197
f 137 134 1197
f 134 133 1197
f 1197 133 1198
f 133 131 1198
f 1198 131 1199
f 1199 131 1200
f 131 129 1200
f 1200 125 1201
f 129 125 1200
f 1201 123 1202
f 125 123 1201
f 1202 121 1203
f 123 121 1202
f 121 119 1203
f 1203 119 1204
f 1204 119 1178
f 119 117 1178
f 1178 117 1179
f 117 115 1179
f 115 111 1179
f 1179 111 1180
f 1180 111 1181
f 111 109 1181
f 1181 109 1182
f 109 107 1182
f 1182 107 1183
f 107 105 1183
f 105 103 1183
f 1183 103 1184
f 1184 103 1185
f 103 101 1185
f 101 99 1185
f 1185 99 1186
f 99 95 1186
f 1186 95 1187
f 1187 95 1188
f 95 93 1188
f 93 91 1188
f 1188 91 1189
f 1189 89 1190
f 91 89 1189
f 1190 87 1163
f 1163 87 1160
f 89 87 1190
f 87 85 1160
f 1160 82 1157
f 85 82 1160
f 1157 83 1155
f 1155 83 1152
f 82 83 1157
f 83 84 1152
f 1152 86 1149
f 84 86 1152
f 1149 88 1146
f 86 88 1149
f 1146 90 1143
f 1143 90 1140
f 88 90 1146
f 90 92 1140
f 1140 94 1137
f 92 94 1140
f 1137 98 1134
f 94 98 1137
f 1134 100 1131
f 98 100 1134
f 100 102 1131
f 1131 102 1128
f 102 104 1128
f 1128 104 1120
f 104 106 1120
f 1120 106 1121
f 106 108 1121
f 1121 108 1122
f 1122 108 1123
f 108 110 1123
f 1123 112 1124
f 110 112 1123
f 1124 116 1125
f 112 116 1124
f 1125 118 1105
f 116 118 1125
f 1105 120 1106
f 118 120 1105
f 1106 122 1107
f 120 122 1106
f 1107 124 1108
f 122 124 1107
f 1108 128 1109
f 124 128 1108
f 1109 130 1110
f 128 130 1109
f 1110 132 1080
f 130 132 1110
f 1080 204 1076
f 132 204 1080
f 1076 200 1072
f 204 200 1076
f 1072 196 1068
f 1068 196 1064
f 200 196 1072
f 196 192 1064
f 1064 188 1060
f 192 188 1064
f 1060 184 1056
f 188 184 1060
f 1056 179 1052
f 184 179 1056
f 1052 178 1048
f 179 178 1052
f 1048 181 1047
f 178 181 1048
f 1047 182 1044
f 181 182 1047
f 182 186 1044
f 1044 186 1050
f 186 190 1050
f 1050 190 1054
f 190 194 1054
f 1054 194 1058
f 194 198 1058
f 1058 198 1062
f 198 202 1062
f 1062 202 1066
f 202 206 1066
f 1066 206 1070
f 206 209 1070
f 1070 209 1074
f 209 212 1074
f 1074 212 1078
f 1078 212 1082
f 212 215 1082
f 215 218 1082
f 1082 218 1084
f 218 221 1084
f 1084 221 1086
f 221 224 1086
f 1086 224 1088
f 224 227 1088
f 1088 227 1090
f 1090 230 1092
f 227 230 1090
f 1092 230 1094
f 230 234 1094
f 352 351 987
f 987 351 988
f 988 354 990
f 990 354 992
f 351 354 988
f 354 356 992
f 992 358 994
f 994 358 996
f 356 358 992
f 358 360 996
f 996 362 998
f 360 362 996
f 998 364 1000
f 1000 364 1002
f 362 364 998
f 364 366 1002
f 1002 368 1004
f 366 368 1002
f 1004 370 1006
f 368 370 1004
f 370 372 1006
f 1006 372 1008
f 1008 372 1010
f 372 374 1010
f 374 376 1010
f 1010 376 1012
f 376 378 1012
f 1012 378 1014
f 378 380 1014
f 1014 380 1016
f 1016 380 1018
f 380 382 1018
f 382 383 1018
f 1018 383 1019
f 383 385 1019
f 1019 385 1021
f 1021 385 1023
f 385 387 1023
f 387 389 1023
f 1023 389 1025
f 389 391 1025
f 1025 391 1027
f 391 393 1027
f 1027 393 1029
f 1029 395 1031
f 393 395 1029
f 1031 397 1033
f 395 397 1031
f 1033 399 1035
f 397 399 1033
f 1035 401 1037
f 399 401 1035
f 1037 403 1039
f 401 403 1037
f 1039 405 1041
f 1041 405 1043
f 403 405 1039
f 405 407 1043
f 1043 669 1272
f 407 669 1043
f 1272 292 1206
f 669 292 1272
f 1206 291 1207
f 292 291 1206
f 1207 290 1208
f 291 290 1207
f 1208 289 1209
f 290 289 1208
f 1209 288 1210
f 289 288 1209
f 1210 287 1211
f 288 287 1210
f 287 286 1211
f 1211 286 1212
f 1212 286 1213
f 286 285 1213
f 1213 285 1177
f 285 284 1177
f 284 283 1177
f 1177 283 1175
f 283 281 1175
f 1175 281 1173
f 281 279 1173
f 1173 279 1171
f 279 277 1171
f 1171 277 1169
f 277 275 1169
f 1169 275 1167
f 275 273 1167
f 1167 273 1165
f 273 271 1165
f 1165 271 1162
f 1162 271 1159
f 271 269 1159
f 269 266 1159
f 1159 266 1154
f 266 264 1154
f 1154 264 1151
f 264 262 1151
f 1151 262 1148
f 1148 262 1145
f 262 260 1145
f 260 258 1145
f 1145 258 1142
f 1142 258 1139
f 258 256 1139
f 256 254 1139
f 1139 254 1136
f 1136 254 1133
f 254 252 1133
f 252 250 1133
f 1133 250 1130
f 250 248 1130
f 1130 248 1127
f 1127 248 1104
f 248 246 1104
f 1104 244 1102
f 246 244 1104
f 1102 242 1100
f 244 242 1102
f 1100 239 1098
f 242 239 1100
f 239 236 1098
f 1098 236 1096
f 1096 236 1093
f 236 232 1093
f 1093 232 1091
f 232 229 1091
f 229 226 1091
f 1091 226 1089
f 1089 226 1087
f 226 223 1087
f 1087 223 1085
f 223 220 1085
f 1085 220 1083
f 220 217 1083
f 217 214 1083
f 1083 214 1079
f 1079 214 1075
f 214 211 1075
f 211 208 1075
f 1075 208 1071
f 208 205 1071
f 1071 205 1067
f 1067 205 1063
f 205 201 1063
f 201 197 1063
f 1063 197 1059
f 1059 193 1055
f 197 193 1059
f 1055 189 1051
f 1051 189 1045
f 193 189 1055
f 189 185 1045
f 1045 180 1046
f 185 180 1045
f 1046 177 1049
f 1049 177 1053
f 180 177 1046
f 177 183 1053
f 1053 187 1057
f 183 187 1053
f 1057 191 1061
f 187 191 1057
f 1061 195 1065
f 1065 195 1069
f 191 195 1061
f 195 199 1069
f 1069 203 1073
f 199 203 1069
f 1073 207 1077
f 203 207 1073
f 1077 210 1081
f 207 210 1077
f 210 213 1081
f 1081 213 1111
f 213 216 1111
f 1111 216 1112
f 216 219 1112
f 1112 219 1113
f 219 222 1113
f 1113 222 1114
f 1114 222 1115
f 222 225 1115
f 1115 228 1116
f 225 228 1115
f 1116 231 1117
f 228 231 1116
f 1117 235 1118
f 231 235 1117
f 1118 238 1119
f 235 238 1118
f 1119 241 981
f 238 241 1119
f 981 336 977
f 241 336 981
f 977 332 973
f 336 332 977
f 973 328 969
f 332 328 973
f 969 324 965
f 328 324 969
f 965 320 961
f 324 320 965
f 961 316 957
f 320 316 961
f 957 312 953
f 953 312 949
f 316 312 957
f 312 308 949
f 949 304 945
f 308 304 949
f 945 300 941
f 304 300 945
f 941 295 937
f 300 295 941
f 937 294 933
f 295 294 937
f 933 297 932
f 294 297 933
f 932 298 929
f 297 298 932
f 298 302 929
f 929 302 935
f 302 306 935
f 935 306 939
f 306 310 939
f 939 310 943
f 310 314 943
f 943 314 947
f 314 318 947
f 947 318 951
f 318 322 951
f 951 322 955
f 322 326 955
f 955 326 959
f 326 330 959
f 959 330 963
f 963 330 967
f 330 334 967
f 334 338 967
f 967 338 971
f 338 341 971
f 971 341 975
f 341 344 975
f 975 344 979
f 344 347 979
f 979 347 983
f 983 349 985
f 347 349 983
f 985 349 987
f 349 352 987
f 461 462 869
f 869 462 871
f 871 464 874
f 874 464 877
f 462 464 871
f 464 466 877
f 877 468 879
f 879 468 881
f 466 468 877
f 468 470 881
f 881 472 883
f 470 472 881
f 883 474 885
f 885 474 887
f 472 474 883
f 474 476 887
f 887 478 889
f 476 478 887
f 889 480 891
f 478 480 889
f 480 482 891
f 891 482 893
f 893 482 895
f 482 508 895
f 508 511 895
f 895 511 897
f 511 514 897
f 897 514 899
f 514 520 899
f 899 520 901
f 901 520 903
f 520 524 903
f 524 525 903
f 903 525 904
f 525 530 904
f 904 530 906
f 906 530 908
f 530 534 908
f 534 537 908
f 908 537 910
f 537 542 910
f 910 542 912
f 542 545 912
f 912 545 914
f 914 548 916
f 545 548 914
f 916 550 918
f 548 550 916
f 918 554 920
f 550 554 918
f 920 557 922
f 554 557 920
f 922 560 923
f 557 560 922
f 923 606 924
f 924 606 925
f 560 606 923
f 606 607 925
f 925 608 926
f 607 608 925
f 926 609 927
f 608 609 926
f 927 610 928
f 609 610 927
f 928 666 1269
f 610 666 928
f 1269 667 1270
f 666 667 1269
f 1270 668 1271
f 667 668 1270
f 1271 406 1042
f 668 406 1271
f 406 404 1042
f 1042 404 1040
f 1040 404 1038
f 404 402 1038
f 1038 402 1036
f 402 400 1036
f 400 398 1036
f 1036 398 1034
f 398 396 1034
f 1034 396 1032
f 396 394 1032
f 1032 394 1030
f 394 392 1030
f 1030 392 1028
f 392 390 1028
f 1028 390 1026
f 390 388 1026
f 1026 388 1024
f 388 386 1024
f 1024 386 1022
f 1022 386 1020
f 386 384 1020
f 384 381 1020
f 1020 381 1017
f 381 379 1017
f 1017 379 1015
f 379 377 1015
f 1015 377 1013
f 1013 377 1011
f 377 375 1011
f 375 373 1011
f 1011 373 1009
f 1009 373 1007
f 373 371 1007
f 371 369 1007
f 1007 369 1005
f 1005 369 1003
f 369 367 1003
f 367 365 1003
f 1003 365 1001
f 365 363 1001
f 1001 363 999
f 999 363 997
f 363 361 997
f 997 359 995
f 361 359 997
f 995 357 993
f 359 357 995
f 993 355 991
f 357 355 993
f 355 353 991
f 991 353 989
f 989 353 986
f 353 350 986
f 986 350 984
f 350 348 984
f 348 346 984
f 984 346 980
f 980 346 976
f 346 343 976
f 976 343 972
f 343 340 972
f 972 340 968
f 340 337 968
f 337 333 968
f 968 333 964
f 964 333 960
f 333 329 960
f 329 325 960
f 960 325 956
f 325 321 956
f 956 321 952
f 952 321 948
f 321 317 948
f 317 313 948
f 948 313 944
f 944 309 940
f 313 309 944
f 940 305 936
f 936 305 930
f 309 305 940
f 305 301 930
f 930 296 931
f 301 296 930
f 931 293 934
f 934 293 938
f 296 293 931
f 293 299 938
f 938 303 942
f 299 303 938
f 942 307 946
f 303 307 942
f 946 311 950
f 950 311 954
f 307 311 946
f 311 315 954
f 954 319 958
f 315 319 954
f 958 323 962
f 319 323 958
f 962 327 966
f 323 327 962
f 327 331 966
f 966 331 970
f 331 335 970
f 970 335 974
f 335 339 974
f 974 339 978
f 339 342 978
f 978 342 982
f 982 342 876
f 342 345 876
f 876 495 873
f 345 495 876
f 873 496 870
f 495 496 873
f 870 497 868
f 496 497 870
f 868 498 865
f 497 498 868
f 865 499 862
f 498 499 865
f 862 500 859
f 499 500 862
f 859 447 856
f 500 447 859
f 856 443 853
f 447 443 856
f 853 439 849
f 443 439 853
f 849 435 845
f 439 435 849
f 845 431 841
f 435 431 845
f 841 427 837
f 837 427 833
f 431 427 841
f 427 423 833
f 833 419 829
f 423 419 833
f 829 415 825
f 419 415 829
f 825 410 821
f 415 410 825
f 821 409 817
f 410 409 821
f 817 412 815
f 409 412 817
f 815 413 813
f 412 413 815
f 413 417 813
f 813 417 819
f 417 421 819
f 819 421 823
f 421 425 823
f 823 425 827
f 425 429 827
f 827 429 831
f 429 433 831
f 831 433 835
f 433 437 835
f 835 437 839
f 437 441 839
f 839 441 843
f 441 445 843
f 843 445 847
f 847 445 851
f 445 449 851
f 449 451 851
f 851 451 854
f 451 453 854
f 854 453 857
f 453 455 857
f 857 455 860
f 455 457 860
f 860 457 863
f 863 459 866
f 457 459 863
f 866 459 869
f 459 461 869
f 589 592 744
f 744 592 746
f 746 593 751
f 751 593 754
f 592 593 746
f 593 594 754
f 754 595 756
f 756 595 760
f 594 595 754
f 595 596 760
f 760 597 762
f 596 597 760
f 762 598 764
f 764 598 767
f 597 598 762
f 598 599 767
f 767 600 768
f 599 600 767
f 768 601 771
f 600 601 768
f 601 602 771
f 771 602 773
f 773 602 774
f 602 603 774
f 603 604 774
f 774 604 777
f 604 611 777
f 777 611 785
f 611 612 785
f 785 612 786
f 786 612 787
f 612 613 787
f 613 614 787
f 787 614 788
f 614 615 788
f 788 615 789
f 789 615 790
f 615 616 790
f 616 617 790
f 790 617 791
f 617 618 791
f 791 618 795
f 618 619 795
f 795 619 796
f 796 620 797
f 619 620 796
f 797 621 798
f 620 621 797
f 798 622 799
f 621 622 798
f 799 623 800
f 622 623 799
f 800 624 801
f 623 624 800
f 801 625 802
f 802 625 803
f 624 625 801
f 625 626 803
f 803 627 804
f 626 627 803
f 804 628 805
f 627 628 804
f 805 629 806
f 628 629 805
f 806 630 807
f 629 630 806
f 807 631 808
f 630 631 807
f 808 632 809
f 631 632 808
f 809 633 810
f 632 633 809
f 633 634 810
f 810 634 811
f 811 634 812
f 634 559 812
f 812 559 921
f 559 556 921
f 556 553 921
f 921 553 919
f 553 549 919
f 919 549 917
f 549 547 917
f 917 547 915
f 547 544 915
f 915 544 913
f 544 541 913
f 913 541 911
f 541 536 911
f 911 536 909
f 536 533 909
f 909 533 907
f 907 533 905
f 533 529 905
f 529 523 905
f 905 523 902
f 523 519 902
f 902 519 900
f 519 513 900
f 900 513 898
f 898 513 896
f 513 510 896
f 510 507 896
f 896 507 894
f 894 507 892
f 507 481 892
f 481 479 892
f 892 479 890
f 890 479 888
f 479 477 888
f 477 475 888
f 888 475 886
f 475 473 886
f 886 473 884
f 884 473 882
f 473 471 882
f 882 469 880
f 471 469 882
f 880 467 878
f 469 467 880
f 878 465 875
f 467 465 878
f 465 463 875
f 875 463 872
f 872 463 867
f 463 460 867
f 867 460 864
f 460 458 864
f 458 456 864
f 864 456 861
f 861 456 858
f 456 454 858
f 858 454 855
f 454 452 855
f 855 452 852
f 452 450 852
f 450 448 852
f 852 448 848
f 848 448 844
f 448 444 844
f 444 440 844
f 844 440 840
f 440 436 840
f 840 436 836
f 836 436 832
f 436 432 832
f 432 428 832
f 832 428 828
f 828 424 824
f 428 424 828
f 824 420 820
f 820 420 816
f 424 420 824
f 420 416 816
f 816 411 814
f 416 411 816
f 814 408 818
f 818 408 822
f 411 408 814
f 408 414 822
f 822 418 826
f 414 418 822
f 826 422 830
f 418 422 826
f 830 426 834
f 834 426 838
f 422 426 830
f 426 430 838
f 838 434 842
f 430 434 838
f 842 438 846
f 434 438 842
f 846 442 850
f 438 442 846
f 442 446 850
f 850 446 763
f 446 501 763
f 763 501 761
f 501 502 761
f 761 502 757
f 502 503 757
f 757 503 755
f 755 503 753
f 503 504 753
f 753 505 750
f 504 505 753
f 750 506 745
f 505 506 750
f 745 485 743
f 506 485 745
f 743 484 741
f 485 484 743
f 741 486 739
f 484 486 741
f 739 487 736
f 486 487 739
f 736 488 734
f 487 488 736
f 734 489 731
f 488 489 734
f 731 490 729
f 489 490 731
f 729 491 725
f 490 491 729
f 725 492 723
f 491 492 725
f 723 493 721
f 721 493 719
f 492 493 723
f 493 494 719
f 719 509 717
f 494 509 719
f 717 512 713
f 509 512 717
f 713 518 711
f 512 518 713
f 711 522 709
f 518 522 711
f 709 526 708
f 522 526 709
f 708 531 707
f 526 531 708
f 531 535 707
f 707 535 710
f 535 540 710
f 710 540 712
f 540 577 712
f 712 577 716
f 577 578 716
f 716 578 718
f 578 579 718
f 718 579 720
f 579 580 720
f 720 580 722
f 580 581 722
f 722 581 724
f 581 582 724
f 724 582 726
f 726 582 730
f 582 583 730
f 583 584 730
f 730 584 732
f 584 585 732
f 732 585 735
f 585 586 735
f 735 586 738
f 586 587 738
f 738 587 740
f 740 588 742
f 587 588 740
f 742 588 744
f 588 589 744
