# Headed Pin — generated by Menno Creator Kit
# Coordinates are metres; FreeCAD Z-up becomes Godot Y-up.
o Headed_Pin
v 0.0039950 0.0350000 -0.0001994
v 0.0040000 0.0350000 0.0000000
v 0.0040000 0.0000000 0.0000000
v 0.0039950 0.0000000 -0.0001994
v 0.0039801 0.0350000 -0.0003983
v 0.0039801 0.0000000 -0.0003983
v 0.0039553 0.0350000 -0.0005962
v 0.0039553 0.0000000 -0.0005962
v 0.0039207 0.0350000 -0.0007926
v 0.0039207 0.0000000 -0.0007926
v 0.0038763 0.0350000 -0.0009870
v 0.0038763 0.0000000 -0.0009870
v 0.0038223 0.0350000 -0.0011790
v 0.0038223 0.0000000 -0.0011790
v 0.0037588 0.0350000 -0.0013681
v 0.0037588 0.0000000 -0.0013681
v 0.0036859 0.0000000 -0.0015537
v 0.0036859 0.0350000 -0.0015537
v 0.0036039 0.0350000 -0.0017355
v 0.0036039 0.0000000 -0.0017355
v 0.0035129 0.0350000 -0.0019130
v 0.0035129 0.0000000 -0.0019130
v 0.0034132 0.0350000 -0.0020857
v 0.0034132 0.0000000 -0.0020857
v 0.0033050 0.0350000 -0.0022533
v 0.0033050 0.0000000 -0.0022533
v 0.0031885 0.0350000 -0.0024152
v 0.0031885 0.0000000 -0.0024152
v 0.0030642 0.0350000 -0.0025712
v 0.0030642 0.0000000 -0.0025712
v 0.0029322 0.0350000 -0.0027207
v 0.0029322 0.0000000 -0.0027207
v 0.0027929 0.0000000 -0.0028635
v 0.0027929 0.0350000 -0.0028635
v 0.0026467 0.0000000 -0.0029991
v 0.0026467 0.0350000 -0.0029991
v 0.0024940 0.0350000 -0.0031273
v 0.0024940 0.0000000 -0.0031273
v 0.0023350 0.0000000 -0.0032478
v 0.0023350 0.0350000 -0.0032478
v 0.0021702 0.0350000 -0.0033601
v 0.0021702 0.0000000 -0.0033601
v 0.0020000 0.0350000 -0.0034641
v 0.0020000 0.0000000 -0.0034641
v 0.0018248 0.0000000 -0.0035595
v 0.0018248 0.0350000 -0.0035595
v 0.0016451 0.0350000 -0.0036460
v 0.0016451 0.0000000 -0.0036460
v 0.0014614 0.0350000 -0.0037235
v 0.0014614 0.0000000 -0.0037235
v 0.0012739 0.0350000 -0.0037917
v 0.0012739 0.0000000 -0.0037917
v 0.0010834 0.0000000 -0.0038505
v 0.0010834 0.0350000 -0.0038505
v 0.0008901 0.0350000 -0.0038997
v 0.0008901 0.0000000 -0.0038997
v 0.0006946 0.0350000 -0.0039392
v 0.0006946 0.0000000 -0.0039392
v 0.0004974 0.0350000 -0.0039690
v 0.0004974 0.0000000 -0.0039690
v 0.0002989 0.0350000 -0.0039888
v 0.0002989 0.0000000 -0.0039888
v 0.0000997 0.0350000 -0.0039988
v 0.0000997 0.0000000 -0.0039988
v -0.0000997 0.0350000 -0.0039988
v -0.0000997 0.0000000 -0.0039988
v -0.0002989 0.0350000 -0.0039888
v -0.0002989 0.0000000 -0.0039888
v -0.0004974 0.0350000 -0.0039690
v -0.0004974 0.0000000 -0.0039690
v -0.0006946 0.0350000 -0.0039392
v -0.0006946 0.0000000 -0.0039392
v -0.0008901 0.0350000 -0.0038997
v -0.0008901 0.0000000 -0.0038997
v -0.0010834 0.0350000 -0.0038505
v -0.0010834 0.0000000 -0.0038505
v -0.0012739 0.0000000 -0.0037917
v -0.0012739 0.0350000 -0.0037917
v -0.0014614 0.0350000 -0.0037235
v -0.0014614 0.0000000 -0.0037235
v -0.0016451 0.0350000 -0.0036460
v -0.0016451 0.0000000 -0.0036460
v -0.0018248 0.0350000 -0.0035595
v -0.0018248 0.0000000 -0.0035595
v -0.0020000 0.0350000 -0.0034641
v -0.0020000 0.0000000 -0.0034641
v -0.0021702 0.0350000 -0.0033601
v -0.0021702 0.0000000 -0.0033601
v -0.0023350 0.0000000 -0.0032478
v -0.0023350 0.0350000 -0.0032478
v -0.0024940 0.0350000 -0.0031273
v -0.0024940 0.0000000 -0.0031273
v -0.0026467 0.0350000 -0.0029991
v -0.0026467 0.0000000 -0.0029991
v -0.0027929 0.0350000 -0.0028635
v -0.0027929 0.0000000 -0.0028635
v -0.0029322 0.0350000 -0.0027207
v -0.0029322 0.0000000 -0.0027207
v -0.0030642 0.0000000 -0.0025712
v -0.0030642 0.0350000 -0.0025712
v -0.0031885 0.0000000 -0.0024152
v -0.0031885 0.0350000 -0.0024152
v -0.0033050 0.0350000 -0.0022533
v -0.0033050 0.0000000 -0.0022533
v -0.0034132 0.0350000 -0.0020857
v -0.0034132 0.0000000 -0.0020857
v -0.0035129 0.0000000 -0.0019130
v -0.0035129 0.0350000 -0.0019130
v -0.0036039 0.0350000 -0.0017355
v -0.0036039 0.0000000 -0.0017355
v -0.0036859 0.0000000 -0.0015537
v -0.0036859 0.0350000 -0.0015537
v -0.0037588 0.0350000 -0.0013681
v -0.0037588 0.0000000 -0.0013681
v -0.0038223 0.0350000 -0.0011790
v -0.0038223 0.0000000 -0.0011790
v -0.0038763 0.0350000 -0.0009870
v -0.0038763 0.0000000 -0.0009870
v -0.0039207 0.0000000 -0.0007926
v -0.0039207 0.0350000 -0.0007926
v -0.0039553 0.0350000 -0.0005962
v -0.0039553 0.0000000 -0.0005962
v -0.0039801 0.0350000 -0.0003983
v -0.0039801 0.0000000 -0.0003983
v -0.0039950 0.0000000 -0.0001994
v -0.0039950 0.0350000 -0.0001994
v -0.0040000 0.0350000 0.0000000
v -0.0040000 0.0000000 0.0000000
v -0.0039950 0.0350000 0.0001994
v -0.0039950 0.0000000 0.0001994
v -0.0039801 0.0000000 0.0003983
v -0.0039801 0.0350000 0.0003983
v -0.0039553 0.0000000 0.0005962
v -0.0039553 0.0350000 0.0005962
v -0.0039207 0.0350000 0.0007926
v -0.0039207 0.0000000 0.0007926
v -0.0038763 0.0350000 0.0009870
v -0.0038763 0.0000000 0.0009870
v -0.0038223 0.0350000 0.0011790
v -0.0038223 0.0000000 0.0011790
v -0.0037588 0.0000000 0.0013681
v -0.0037588 0.0350000 0.0013681
v -0.0036859 0.0350000 0.0015537
v -0.0036859 0.0000000 0.0015537
v -0.0036039 0.0350000 0.0017355
v -0.0036039 0.0000000 0.0017355
v -0.0035129 0.0000000 0.0019130
v -0.0035129 0.0350000 0.0019130
v -0.0034132 0.0350000 0.0020857
v -0.0034132 0.0000000 0.0020857
v -0.0033050 0.0000000 0.0022533
v -0.0033050 0.0350000 0.0022533
v -0.0031885 0.0350000 0.0024152
v -0.0031885 0.0000000 0.0024152
v -0.0030642 0.0000000 0.0025712
v -0.0030642 0.0350000 0.0025712
v -0.0029322 0.0350000 0.0027207
v -0.0029322 0.0000000 0.0027207
v -0.0027929 0.0350000 0.0028635
v -0.0027929 0.0000000 0.0028635
v -0.0026467 0.0350000 0.0029991
v -0.0026467 0.0000000 0.0029991
v -0.0024940 0.0000000 0.0031273
v -0.0024940 0.0350000 0.0031273
v -0.0023350 0.0000000 0.0032478
v -0.0023350 0.0350000 0.0032478
v -0.0021702 0.0350000 0.0033601
v -0.0021702 0.0000000 0.0033601
v -0.0020000 0.0000000 0.0034641
v -0.0020000 0.0350000 0.0034641
v -0.0018248 0.0350000 0.0035595
v -0.0018248 0.0000000 0.0035595
v -0.0016451 0.0350000 0.0036460
v -0.0016451 0.0000000 0.0036460
v -0.0014614 0.0000000 0.0037235
v -0.0014614 0.0350000 0.0037235
v -0.0012739 0.0350000 0.0037917
v -0.0012739 0.0000000 0.0037917
v -0.0010834 0.0350000 0.0038505
v -0.0010834 0.0000000 0.0038505
v -0.0008901 0.0350000 0.0038997
v -0.0008901 0.0000000 0.0038997
v -0.0006946 0.0350000 0.0039392
v -0.0006946 0.0000000 0.0039392
v -0.0004974 0.0000000 0.0039690
v -0.0004974 0.0350000 0.0039690
v -0.0002989 0.0350000 0.0039888
v -0.0002989 0.0000000 0.0039888
v -0.0000997 0.0000000 0.0039988
v -0.0000997 0.0350000 0.0039988
v 0.0000997 0.0350000 0.0039988
v 0.0000997 0.0000000 0.0039988
v 0.0002989 0.0350000 0.0039888
v 0.0002989 0.0000000 0.0039888
v 0.0004974 0.0000000 0.0039690
v 0.0004974 0.0350000 0.0039690
v 0.0006946 0.0350000 0.0039392
v 0.0006946 0.0000000 0.0039392
v 0.0008901 0.0350000 0.0038997
v 0.0008901 0.0000000 0.0038997
v 0.0010834 0.0350000 0.0038505
v 0.0010834 0.0000000 0.0038505
v 0.0012739 0.0350000 0.0037917
v 0.0012739 0.0000000 0.0037917
v 0.0014614 0.0000000 0.0037235
v 0.0014614 0.0350000 0.0037235
v 0.0016451 0.0000000 0.0036460
v 0.0016451 0.0350000 0.0036460
v 0.0018248 0.0350000 0.0035595
v 0.0018248 0.0000000 0.0035595
v 0.0020000 0.0350000 0.0034641
v 0.0020000 0.0000000 0.0034641
v 0.0021702 0.0350000 0.0033601
v 0.0021702 0.0000000 0.0033601
v 0.0023350 0.0000000 0.0032478
v 0.0023350 0.0350000 0.0032478
v 0.0024940 0.0000000 0.0031273
v 0.0024940 0.0350000 0.0031273
v 0.0026467 0.0350000 0.0029991
v 0.0026467 0.0000000 0.0029991
v 0.0027929 0.0350000 0.0028635
v 0.0027929 0.0000000 0.0028635
v 0.0029322 0.0350000 0.0027207
v 0.0029322 0.0000000 0.0027207
v 0.0030642 0.0000000 0.0025712
v 0.0030642 0.0350000 0.0025712
v 0.0031885 0.0350000 0.0024152
v 0.0031885 0.0000000 0.0024152
v 0.0033050 0.0350000 0.0022533
v 0.0033050 0.0000000 0.0022533
v 0.0034132 0.0000000 0.0020857
v 0.0034132 0.0350000 0.0020857
v 0.0035129 0.0350000 0.0019130
v 0.0035129 0.0000000 0.0019130
v 0.0036039 0.0350000 0.0017355
v 0.0036039 0.0000000 0.0017355
v 0.0036859 0.0350000 0.0015537
v 0.0036859 0.0000000 0.0015537
v 0.0037588 0.0350000 0.0013681
v 0.0037588 0.0000000 0.0013681
v 0.0038223 0.0000000 0.0011790
v 0.0038223 0.0350000 0.0011790
v 0.0038763 0.0350000 0.0009870
v 0.0038763 0.0000000 0.0009870
v 0.0039207 0.0350000 0.0007926
v 0.0039207 0.0000000 0.0007926
v 0.0039553 0.0350000 0.0005962
v 0.0039553 0.0000000 0.0005962
v 0.0039801 0.0000000 0.0003983
v 0.0039801 0.0350000 0.0003983
v 0.0039950 0.0350000 0.0001994
v 0.0039950 0.0000000 0.0001994
v -0.0051314 0.0350000 0.0047612
v -0.0048877 0.0350000 0.0050111
v -0.0046318 0.0350000 0.0052485
v -0.0053623 0.0350000 0.0044995
v -0.0043644 0.0350000 0.0054728
v -0.0040862 0.0350000 0.0056836
v -0.0055799 0.0350000 0.0042266
v -0.0057837 0.0350000 0.0039432
v -0.0037978 0.0350000 0.0058802
v -0.0059730 0.0350000 0.0036500
v -0.0035000 0.0350000 0.0060622
v -0.0061476 0.0350000 0.0033478
v -0.0031935 0.0350000 0.0062291
v -0.0063068 0.0350000 0.0030372
v -0.0028790 0.0350000 0.0063805
v -0.0064503 0.0350000 0.0027190
v -0.0025574 0.0350000 0.0065161
v -0.0065778 0.0350000 0.0023941
v -0.0022294 0.0350000 0.0066355
v -0.0066890 0.0350000 0.0020633
v -0.0018959 0.0350000 0.0067384
v -0.0067835 0.0350000 0.0017273
v -0.0015576 0.0350000 0.0068245
v -0.0068612 0.0350000 0.0013870
v -0.0012155 0.0350000 0.0068937
v -0.0069218 0.0350000 0.0010433
v -0.0008704 0.0350000 0.0069457
v -0.0069652 0.0350000 0.0006970
v -0.0005231 0.0350000 0.0069804
v -0.0001745 0.0350000 0.0069978
v -0.0069913 0.0350000 0.0003489
v -0.0070000 0.0350000 0.0000000
v 0.0001745 0.0350000 0.0069978
v -0.0069913 0.0350000 -0.0003489
v 0.0005231 0.0350000 0.0069804
v 0.0008704 0.0350000 0.0069457
v -0.0069652 0.0350000 -0.0006970
v -0.0069218 0.0350000 -0.0010433
v 0.0012155 0.0350000 0.0068937
v -0.0068612 0.0350000 -0.0013870
v 0.0015576 0.0350000 0.0068245
v -0.0067835 0.0350000 -0.0017273
v 0.0018959 0.0350000 0.0067384
v -0.0066890 0.0350000 -0.0020633
v 0.0022294 0.0350000 0.0066355
v -0.0065778 0.0350000 -0.0023941
v 0.0025574 0.0350000 0.0065161
v -0.0064503 0.0350000 -0.0027190
v 0.0028790 0.0350000 0.0063805
v -0.0063068 0.0350000 -0.0030372
v 0.0031935 0.0350000 0.0062291
v -0.0061476 0.0350000 -0.0033478
v 0.0035000 0.0350000 0.0060622
v -0.0059730 0.0350000 -0.0036500
v 0.0037978 0.0350000 0.0058802
v -0.0057837 0.0350000 -0.0039432
v 0.0040862 0.0350000 0.0056836
v -0.0055799 0.0350000 -0.0042266
v 0.0043644 0.0350000 0.0054728
v -0.0053623 0.0350000 -0.0044995
v 0.0046318 0.0350000 0.0052485
v -0.0051314 0.0350000 -0.0047612
v 0.0048877 0.0350000 0.0050111
v -0.0048877 0.0350000 -0.0050111
v 0.0051314 0.0350000 0.0047612
v -0.0046318 0.0350000 -0.0052485
v 0.0053623 0.0350000 0.0044995
v -0.0043644 0.0350000 -0.0054728
v 0.0055799 0.0350000 0.0042266
v -0.0040862 0.0350000 -0.0056836
v 0.0057837 0.0350000 0.0039432
v -0.0037978 0.0350000 -0.0058802
v 0.0059730 0.0350000 0.0036500
v -0.0035000 0.0350000 -0.0060622
v 0.0061476 0.0350000 0.0033478
v -0.0031935 0.0350000 -0.0062291
v 0.0063068 0.0350000 0.0030372
v -0.0028790 0.0350000 -0.0063805
v 0.0064503 0.0350000 0.0027190
v -0.0025574 0.0350000 -0.0065161
v 0.0065778 0.0350000 0.0023941
v -0.0022294 0.0350000 -0.0066355
v 0.0066890 0.0350000 0.0020633
v -0.0018959 0.0350000 -0.0067384
v 0.0067835 0.0350000 0.0017273
v -0.0015576 0.0350000 -0.0068245
v 0.0068612 0.0350000 0.0013870
v -0.0012155 0.0350000 -0.0068937
v 0.0069218 0.0350000 0.0010433
v -0.0008704 0.0350000 -0.0069457
v 0.0069652 0.0350000 0.0006970
v -0.0005231 0.0350000 -0.0069804
v 0.0069913 0.0350000 0.0003489
v -0.0001745 0.0350000 -0.0069978
v 0.0070000 0.0350000 0.0000000
v 0.0001745 0.0350000 -0.0069978
v 0.0069913 0.0350000 -0.0003489
v 0.0005231 0.0350000 -0.0069804
v 0.0069652 0.0350000 -0.0006970
v 0.0008704 0.0350000 -0.0069457
v 0.0069218 0.0350000 -0.0010433
v 0.0012155 0.0350000 -0.0068937
v 0.0068612 0.0350000 -0.0013870
v 0.0015576 0.0350000 -0.0068245
v 0.0067835 0.0350000 -0.0017273
v 0.0018959 0.0350000 -0.0067384
v 0.0066890 0.0350000 -0.0020633
v 0.0022294 0.0350000 -0.0066355
v 0.0065778 0.0350000 -0.0023941
v 0.0025574 0.0350000 -0.0065161
v 0.0064503 0.0350000 -0.0027190
v 0.0028790 0.0350000 -0.0063805
v 0.0063068 0.0350000 -0.0030372
v 0.0031935 0.0350000 -0.0062291
v 0.0061476 0.0350000 -0.0033478
v 0.0035000 0.0350000 -0.0060622
v 0.0059730 0.0350000 -0.0036500
v 0.0037978 0.0350000 -0.0058802
v 0.0057837 0.0350000 -0.0039432
v 0.0040862 0.0350000 -0.0056836
v 0.0055799 0.0350000 -0.0042266
v 0.0043644 0.0350000 -0.0054728
v 0.0053623 0.0350000 -0.0044995
v 0.0046318 0.0350000 -0.0052485
v 0.0051314 0.0350000 -0.0047612
v 0.0048877 0.0350000 -0.0050111
v 0.0069913 0.0390000 -0.0003489
v 0.0070000 0.0390000 0.0000000
v 0.0069652 0.0390000 -0.0006970
v 0.0069218 0.0390000 -0.0010433
v 0.0068612 0.0390000 -0.0013870
v 0.0067835 0.0390000 -0.0017273
v 0.0066890 0.0390000 -0.0020633
v 0.0065778 0.0390000 -0.0023941
v 0.0064503 0.0390000 -0.0027190
v 0.0063068 0.0390000 -0.0030372
v 0.0061476 0.0390000 -0.0033478
v 0.0059730 0.0390000 -0.0036500
v 0.0057837 0.0390000 -0.0039432
v 0.0055799 0.0390000 -0.0042266
v 0.0053623 0.0390000 -0.0044995
v 0.0051314 0.0390000 -0.0047612
v 0.0048877 0.0390000 -0.0050111
v 0.0046318 0.0390000 -0.0052485
v 0.0043644 0.0390000 -0.0054728
v 0.0040862 0.0390000 -0.0056836
v 0.0037978 0.0390000 -0.0058802
v 0.0035000 0.0390000 -0.0060622
v 0.0031935 0.0390000 -0.0062291
v 0.0028790 0.0390000 -0.0063805
v 0.0025574 0.0390000 -0.0065161
v 0.0022294 0.0390000 -0.0066355
v 0.0018959 0.0390000 -0.0067384
v 0.0015576 0.0390000 -0.0068245
v 0.0012155 0.0390000 -0.0068937
v 0.0008704 0.0390000 -0.0069457
v 0.0005231 0.0390000 -0.0069804
v 0.0001745 0.0390000 -0.0069978
v -0.0001745 0.0390000 -0.0069978
v -0.0005231 0.0390000 -0.0069804
v -0.0008704 0.0390000 -0.0069457
v -0.0012155 0.0390000 -0.0068937
v -0.0015576 0.0390000 -0.0068245
v -0.0018959 0.0390000 -0.0067384
v -0.0022294 0.0390000 -0.0066355
v -0.0025574 0.0390000 -0.0065161
v -0.0028790 0.0390000 -0.0063805
v -0.0031935 0.0390000 -0.0062291
v -0.0035000 0.0390000 -0.0060622
v -0.0037978 0.0390000 -0.0058802
v -0.0040862 0.0390000 -0.0056836
v -0.0043644 0.0390000 -0.0054728
v -0.0046318 0.0390000 -0.0052485
v -0.0048877 0.0390000 -0.0050111
v -0.0051314 0.0390000 -0.0047612
v -0.0053623 0.0390000 -0.0044995
v -0.0055799 0.0390000 -0.0042266
v -0.0057837 0.0390000 -0.0039432
v -0.0059730 0.0390000 -0.0036500
v -0.0061476 0.0390000 -0.0033478
v -0.0063068 0.0390000 -0.0030372
v -0.0064503 0.0390000 -0.0027190
v -0.0065778 0.0390000 -0.0023941
v -0.0066890 0.0390000 -0.0020633
v -0.0067835 0.0390000 -0.0017273
v -0.0068612 0.0390000 -0.0013870
v -0.0069218 0.0390000 -0.0010433
v -0.0069652 0.0390000 -0.0006970
v -0.0069913 0.0390000 -0.0003489
v -0.0070000 0.0390000 0.0000000
v -0.0069913 0.0390000 0.0003489
v -0.0069652 0.0390000 0.0006970
v -0.0069218 0.0390000 0.0010433
v -0.0068612 0.0390000 0.0013870
v -0.0067835 0.0390000 0.0017273
v -0.0066890 0.0390000 0.0020633
v -0.0065778 0.0390000 0.0023941
v -0.0064503 0.0390000 0.0027190
v -0.0063068 0.0390000 0.0030372
v -0.0061476 0.0390000 0.0033478
v -0.0059730 0.0390000 0.0036500
v -0.0057837 0.0390000 0.0039432
v -0.0055799 0.0390000 0.0042266
v -0.0053623 0.0390000 0.0044995
v -0.0051314 0.0390000 0.0047612
v -0.0048877 0.0390000 0.0050111
v -0.0046318 0.0390000 0.0052485
v -0.0043644 0.0390000 0.0054728
v -0.0040862 0.0390000 0.0056836
v -0.0037978 0.0390000 0.0058802
v -0.0035000 0.0390000 0.0060622
v -0.0031935 0.0390000 0.0062291
v -0.0028790 0.0390000 0.0063805
v -0.0025574 0.0390000 0.0065161
v -0.0022294 0.0390000 0.0066355
v -0.0018959 0.0390000 0.0067384
v -0.0015576 0.0390000 0.0068245
v -0.0012155 0.0390000 0.0068937
v -0.0008704 0.0390000 0.0069457
v -0.0005231 0.0390000 0.0069804
v -0.0001745 0.0390000 0.0069978
v 0.0001745 0.0390000 0.0069978
v 0.0005231 0.0390000 0.0069804
v 0.0008704 0.0390000 0.0069457
v 0.0012155 0.0390000 0.0068937
v 0.0015576 0.0390000 0.0068245
v 0.0018959 0.0390000 0.0067384
v 0.0022294 0.0390000 0.0066355
v 0.0025574 0.0390000 0.0065161
v 0.0028790 0.0390000 0.0063805
v 0.0031935 0.0390000 0.0062291
v 0.0035000 0.0390000 0.0060622
v 0.0037978 0.0390000 0.0058802
v 0.0040862 0.0390000 0.0056836
v 0.0043644 0.0390000 0.0054728
v 0.0046318 0.0390000 0.0052485
v 0.0048877 0.0390000 0.0050111
v 0.0051314 0.0390000 0.0047612
v 0.0053623 0.0390000 0.0044995
v 0.0055799 0.0390000 0.0042266
v 0.0057837 0.0390000 0.0039432
v 0.0059730 0.0390000 0.0036500
v 0.0061476 0.0390000 0.0033478
v 0.0063068 0.0390000 0.0030372
v 0.0064503 0.0390000 0.0027190
v 0.0065778 0.0390000 0.0023941
v 0.0066890 0.0390000 0.0020633
v 0.0067835 0.0390000 0.0017273
v 0.0068612 0.0390000 0.0013870
v 0.0069218 0.0390000 0.0010433
v 0.0069652 0.0390000 0.0006970
v 0.0069913 0.0390000 0.0003489
f 1 2 3
f 1 3 4
f 5 4 6
f 5 1 4
f 7 6 8
f 7 5 6
f 9 8 10
f 9 7 8
f 11 10 12
f 11 9 10
f 13 12 14
f 13 11 12
f 15 14 16
f 15 16 17
f 15 13 14
f 18 15 17
f 19 17 20
f 19 18 17
f 21 20 22
f 21 19 20
f 23 21 22
f 23 22 24
f 25 23 24
f 25 24 26
f 27 25 26
f 27 26 28
f 29 27 28
f 29 28 30
f 31 29 30
f 31 30 32
f 31 32 33
f 34 31 33
f 34 33 35
f 36 34 35
f 37 36 35
f 37 35 38
f 37 38 39
f 40 37 39
f 41 40 39
f 41 39 42
f 43 41 42
f 43 42 44
f 43 44 45
f 46 43 45
f 47 45 48
f 47 46 45
f 49 48 50
f 49 47 48
f 51 50 52
f 51 52 53
f 51 49 50
f 54 51 53
f 55 53 56
f 55 54 53
f 57 56 58
f 57 55 56
f 59 58 60
f 59 57 58
f 61 60 62
f 61 59 60
f 63 62 64
f 63 61 62
f 65 64 66
f 65 63 64
f 67 66 68
f 67 65 66
f 69 68 70
f 69 67 68
f 71 70 72
f 71 69 70
f 73 72 74
f 73 71 72
f 75 73 74
f 75 74 76
f 75 76 77
f 78 75 77
f 79 78 77
f 79 77 80
f 81 79 80
f 81 80 82
f 83 81 82
f 83 82 84
f 85 83 84
f 85 84 86
f 87 85 86
f 87 86 88
f 87 88 89
f 90 87 89
f 91 90 89
f 91 89 92
f 93 91 92
f 93 92 94
f 95 93 94
f 95 94 96
f 97 95 96
f 97 96 98
f 97 98 99
f 100 97 99
f 100 99 101
f 102 100 101
f 103 102 101
f 103 101 104
f 105 103 104
f 105 104 106
f 105 106 107
f 108 105 107
f 109 108 107
f 109 107 110
f 109 110 111
f 112 109 111
f 113 112 111
f 113 111 114
f 115 113 114
f 115 114 116
f 117 116 118
f 117 115 116
f 117 118 119
f 120 117 119
f 121 119 122
f 121 120 119
f 123 122 124
f 123 124 125
f 123 121 122
f 126 123 125
f 127 126 125
f 127 125 128
f 129 127 128
f 129 128 130
f 129 130 131
f 132 129 131
f 132 131 133
f 134 132 133
f 135 134 133
f 135 133 136
f 137 135 136
f 137 136 138
f 139 137 138
f 139 138 140
f 139 140 141
f 142 139 141
f 143 142 141
f 143 141 144
f 145 143 144
f 145 144 146
f 145 146 147
f 148 145 147
f 149 150 151
f 149 148 147
f 149 147 150
f 152 149 151
f 153 151 154
f 153 154 155
f 153 152 151
f 156 153 155
f 157 155 158
f 157 156 155
f 159 158 160
f 159 157 158
f 161 160 162
f 161 162 163
f 161 159 160
f 164 163 165
f 164 161 163
f 166 164 165
f 167 165 168
f 167 168 169
f 167 166 165
f 170 167 169
f 171 169 172
f 171 170 169
f 173 172 174
f 173 174 175
f 173 171 172
f 176 173 175
f 177 176 175
f 177 175 178
f 179 177 178
f 179 178 180
f 181 179 180
f 181 180 182
f 183 181 182
f 183 182 184
f 183 184 185
f 186 183 185
f 187 185 188
f 187 188 189
f 187 186 185
f 190 187 189
f 191 189 192
f 191 190 189
f 193 192 194
f 193 194 195
f 193 191 192
f 196 193 195
f 197 195 198
f 197 196 195
f 199 198 200
f 199 197 198
f 201 200 202
f 201 199 200
f 203 202 204
f 203 204 205
f 203 201 202
f 206 205 207
f 206 203 205
f 208 206 207
f 209 207 210
f 209 208 207
f 211 210 212
f 211 209 210
f 213 212 214
f 213 214 215
f 213 211 212
f 216 213 215
f 216 215 217
f 218 216 217
f 219 217 220
f 219 218 217
f 221 220 222
f 221 219 220
f 223 222 224
f 223 224 225
f 223 221 222
f 226 223 225
f 227 226 225
f 227 225 228
f 229 227 228
f 229 228 230
f 229 230 231
f 232 229 231
f 233 232 231
f 233 231 234
f 235 233 234
f 235 234 236
f 237 235 236
f 237 236 238
f 239 237 238
f 239 238 240
f 239 240 241
f 242 239 241
f 243 242 241
f 243 241 244
f 245 243 244
f 245 244 246
f 247 245 246
f 247 246 248
f 247 248 249
f 250 247 249
f 251 249 252
f 251 252 3
f 251 250 249
f 2 251 3
f 253 157 254
f 254 157 159
f 254 161 255
f 159 161 254
f 253 156 157
f 256 156 253
f 161 164 255
f 255 164 257
f 257 164 258
f 256 153 156
f 259 153 256
f 164 166 258
f 259 152 153
f 260 152 259
f 166 167 258
f 258 167 261
f 260 149 152
f 262 149 260
f 261 170 263
f 167 170 261
f 262 148 149
f 264 148 262
f 170 171 263
f 263 171 265
f 264 145 148
f 266 145 264
f 171 173 265
f 265 173 267
f 266 143 145
f 268 143 266
f 173 176 267
f 267 176 269
f 268 142 143
f 270 142 268
f 269 177 271
f 176 177 269
f 272 139 270
f 270 139 142
f 177 179 271
f 271 179 273
f 274 137 272
f 272 137 139
f 179 181 273
f 273 181 275
f 274 135 137
f 276 135 274
f 181 183 275
f 275 183 277
f 278 134 276
f 276 134 135
f 183 186 277
f 277 186 279
f 278 132 134
f 280 132 278
f 186 187 279
f 279 187 281
f 281 187 282
f 283 129 280
f 280 129 132
f 187 190 282
f 284 127 283
f 283 127 129
f 190 191 282
f 282 191 285
f 286 126 284
f 284 126 127
f 191 193 285
f 285 193 287
f 287 193 288
f 289 123 286
f 286 123 126
f 193 196 288
f 289 121 123
f 290 121 289
f 196 197 288
f 288 197 291
f 290 120 121
f 292 120 290
f 197 199 291
f 291 199 293
f 292 117 120
f 294 117 292
f 199 201 293
f 293 201 295
f 294 115 117
f 296 115 294
f 295 203 297
f 201 203 295
f 296 113 115
f 298 113 296
f 297 206 299
f 203 206 297
f 298 112 113
f 300 112 298
f 299 208 301
f 206 208 299
f 302 109 300
f 300 109 112
f 301 209 303
f 208 209 301
f 304 108 302
f 302 108 109
f 303 211 305
f 209 211 303
f 304 105 108
f 306 105 304
f 305 213 307
f 211 213 305
f 308 103 306
f 306 103 105
f 307 216 309
f 213 216 307
f 310 102 308
f 308 102 103
f 309 218 311
f 216 218 309
f 312 100 310
f 310 100 102
f 311 219 313
f 218 219 311
f 314 97 312
f 312 97 100
f 313 221 315
f 219 221 313
f 97 316 95
f 314 316 97
f 223 317 221
f 221 317 315
f 316 318 95
f 95 318 93
f 318 91 93
f 223 319 317
f 226 319 223
f 227 319 226
f 318 320 91
f 227 321 319
f 320 322 91
f 90 322 87
f 91 322 90
f 227 323 321
f 229 323 227
f 322 324 87
f 87 324 85
f 229 325 323
f 232 325 229
f 324 326 85
f 233 327 232
f 232 327 325
f 326 328 85
f 85 328 83
f 235 329 233
f 237 329 235
f 233 329 327
f 81 330 79
f 83 330 81
f 328 330 83
f 237 331 329
f 330 332 79
f 239 333 237
f 242 333 239
f 237 333 331
f 79 334 78
f 332 334 79
f 242 335 333
f 243 335 242
f 78 336 75
f 334 336 78
f 243 337 335
f 336 338 75
f 73 338 71
f 75 338 73
f 243 339 337
f 245 339 243
f 247 339 245
f 338 340 71
f 247 341 339
f 340 342 71
f 71 342 69
f 250 343 247
f 247 343 341
f 69 344 67
f 342 344 69
f 251 345 250
f 2 345 251
f 250 345 343
f 67 346 65
f 344 346 67
f 2 347 345
f 65 348 63
f 346 348 65
f 1 349 2
f 5 349 1
f 2 349 347
f 61 350 59
f 63 350 61
f 348 350 63
f 5 351 349
f 59 352 57
f 350 352 59
f 7 353 5
f 5 353 351
f 352 354 57
f 9 355 7
f 7 355 353
f 57 356 55
f 354 356 57
f 11 357 9
f 9 357 355
f 356 358 55
f 54 358 51
f 55 358 54
f 11 359 357
f 13 359 11
f 358 360 51
f 13 361 359
f 15 361 13
f 360 362 51
f 51 362 49
f 15 363 361
f 18 363 15
f 362 364 49
f 49 364 47
f 19 365 18
f 18 365 363
f 364 366 47
f 47 366 46
f 19 367 365
f 21 367 19
f 366 368 46
f 46 368 43
f 21 369 367
f 23 369 21
f 368 370 43
f 43 370 41
f 23 371 369
f 25 371 23
f 27 371 25
f 370 372 41
f 41 372 40
f 27 373 371
f 372 374 40
f 40 374 37
f 27 375 373
f 29 375 27
f 37 376 36
f 374 376 37
f 31 377 29
f 29 377 375
f 34 378 31
f 36 378 34
f 376 378 36
f 31 378 377
f 155 154 158
f 154 151 158
f 158 151 160
f 160 168 162
f 162 168 163
f 163 168 165
f 169 174 172
f 151 144 160
f 146 144 147
f 147 144 150
f 150 144 151
f 174 178 175
f 141 140 144
f 174 180 178
f 138 136 140
f 136 133 140
f 180 185 182
f 182 185 184
f 169 188 174
f 174 188 180
f 180 188 185
f 130 128 131
f 131 128 133
f 124 122 125
f 122 119 125
f 195 200 198
f 125 118 128
f 119 118 125
f 195 202 200
f 189 202 192
f 192 202 194
f 194 202 195
f 118 116 128
f 189 204 202
f 189 205 204
f 114 111 116
f 111 110 116
f 144 110 160
f 140 110 144
f 133 110 140
f 128 110 133
f 116 110 128
f 207 212 210
f 107 106 110
f 205 214 207
f 207 214 212
f 214 217 215
f 205 217 214
f 101 99 104
f 104 99 106
f 99 96 106
f 98 96 99
f 220 225 222
f 222 225 224
f 106 89 110
f 96 89 106
f 160 89 168
f 92 89 94
f 94 89 96
f 169 89 188
f 168 89 169
f 110 89 160
f 188 89 189
f 217 230 220
f 225 230 228
f 205 230 217
f 220 230 225
f 230 236 231
f 231 236 234
f 84 82 86
f 86 82 88
f 88 82 89
f 236 240 238
f 205 240 230
f 230 240 236
f 205 241 240
f 77 76 80
f 80 76 82
f 89 76 189
f 82 76 89
f 241 246 244
f 74 72 76
f 246 249 248
f 241 249 246
f 68 66 70
f 70 66 72
f 241 4 249
f 249 4 252
f 252 4 3
f 66 60 72
f 62 60 64
f 64 60 66
f 72 60 76
f 4 12 6
f 6 12 8
f 8 12 10
f 56 53 58
f 12 17 14
f 14 17 16
f 48 45 50
f 50 45 52
f 52 45 53
f 53 45 58
f 17 24 20
f 20 24 22
f 4 24 12
f 12 24 17
f 241 26 4
f 4 26 24
f 60 39 76
f 42 39 44
f 44 39 45
f 58 39 60
f 45 39 58
f 241 28 26
f 241 30 28
f 205 30 241
f 30 33 32
f 35 33 38
f 38 33 39
f 39 33 76
f 205 33 30
f 76 33 189
f 189 33 205
f 379 380 347
f 379 347 349
f 381 349 351
f 381 379 349
f 382 351 353
f 382 381 351
f 383 353 355
f 383 382 353
f 384 355 357
f 384 383 355
f 385 357 359
f 385 359 361
f 385 384 357
f 386 385 361
f 387 361 363
f 387 386 361
f 388 363 365
f 388 387 363
f 389 365 367
f 389 388 365
f 390 389 367
f 390 367 369
f 391 390 369
f 391 369 371
f 392 391 371
f 392 371 373
f 393 392 373
f 393 373 375
f 394 393 375
f 394 375 377
f 395 394 377
f 395 377 378
f 396 395 378
f 396 378 376
f 397 396 376
f 397 376 374
f 398 397 374
f 398 374 372
f 398 372 370
f 399 398 370
f 399 370 368
f 400 399 368
f 401 400 368
f 401 368 366
f 402 366 364
f 402 401 366
f 403 364 362
f 403 402 364
f 404 362 360
f 404 403 362
f 405 360 358
f 405 404 360
f 406 358 356
f 406 405 358
f 407 356 354
f 407 406 356
f 408 354 352
f 408 407 354
f 409 352 350
f 409 408 352
f 410 350 348
f 410 409 350
f 411 348 346
f 411 346 344
f 411 410 348
f 412 411 344
f 413 344 342
f 413 412 344
f 414 342 340
f 414 413 342
f 415 340 338
f 415 414 340
f 416 415 338
f 416 338 336
f 417 416 336
f 417 336 334
f 418 417 334
f 418 334 332
f 419 418 332
f 419 332 330
f 420 419 330
f 420 330 328
f 420 328 326
f 421 420 326
f 422 421 326
f 422 326 324
f 423 422 324
f 423 324 322
f 424 423 322
f 424 322 320
f 425 424 320
f 425 320 318
f 426 425 318
f 426 318 316
f 427 426 316
f 427 316 314
f 428 427 314
f 428 314 312
f 429 428 312
f 429 312 310
f 430 429 310
f 430 310 308
f 431 430 308
f 431 308 306
f 432 431 306
f 432 306 304
f 433 432 304
f 433 304 302
f 434 433 302
f 434 302 300
f 435 434 300
f 435 300 298
f 436 435 298
f 436 298 296
f 437 296 294
f 437 436 296
f 438 294 292
f 438 437 294
f 439 292 290
f 439 438 292
f 440 290 289
f 440 439 290
f 441 440 289
f 441 289 286
f 442 441 286
f 442 286 284
f 443 442 284
f 443 284 283
f 444 443 283
f 444 283 280
f 445 444 280
f 445 280 278
f 446 445 278
f 446 278 276
f 447 446 276
f 447 276 274
f 448 447 274
f 448 274 272
f 449 448 272
f 449 272 270
f 450 449 270
f 450 270 268
f 451 450 268
f 451 268 266
f 452 451 266
f 452 266 264
f 452 264 262
f 453 452 262
f 454 262 260
f 454 453 262
f 455 260 259
f 455 454 260
f 456 259 256
f 456 455 259
f 457 256 253
f 457 456 256
f 458 253 254
f 458 457 253
f 459 254 255
f 459 458 254
f 460 255 257
f 460 459 255
f 461 257 258
f 461 460 257
f 462 258 261
f 462 461 258
f 463 261 263
f 463 462 261
f 464 263 265
f 464 463 263
f 465 265 267
f 465 464 265
f 466 267 269
f 466 465 267
f 467 466 269
f 467 269 271
f 468 467 271
f 468 271 273
f 469 468 273
f 469 273 275
f 470 469 275
f 470 275 277
f 471 277 279
f 471 470 277
f 472 279 281
f 472 471 279
f 473 281 282
f 473 472 281
f 474 282 285
f 474 473 282
f 475 285 287
f 475 474 285
f 476 287 288
f 476 475 287
f 477 288 291
f 477 476 288
f 478 291 293
f 478 477 291
f 479 293 295
f 479 478 293
f 480 295 297
f 480 479 295
f 481 297 299
f 481 480 297
f 482 299 301
f 482 481 299
f 483 301 303
f 483 482 301
f 484 303 305
f 484 483 303
f 485 305 307
f 485 484 305
f 486 307 309
f 486 485 307
f 487 309 311
f 487 486 309
f 488 311 313
f 488 487 311
f 489 313 315
f 489 488 313
f 490 315 317
f 490 489 315
f 491 490 317
f 491 317 319
f 492 491 319
f 492 319 321
f 493 492 321
f 493 321 323
f 494 493 323
f 494 323 325
f 495 494 325
f 495 325 327
f 496 495 327
f 496 327 329
f 497 496 329
f 497 329 331
f 498 497 331
f 498 331 333
f 499 498 333
f 499 333 335
f 500 499 335
f 500 335 337
f 501 500 337
f 501 337 339
f 502 501 339
f 502 339 341
f 503 502 341
f 503 341 343
f 504 343 345
f 504 503 343
f 380 345 347
f 380 504 345
f 460 458 459
f 461 458 460
f 454 455 456
f 454 456 457
f 463 458 461
f 463 457 458
f 463 461 462
f 450 451 452
f 450 452 453
f 450 453 454
f 466 463 464
f 466 464 465
f 468 466 467
f 469 466 468
f 446 454 457
f 446 450 454
f 446 447 448
f 446 448 449
f 446 449 450
f 442 443 444
f 476 473 474
f 476 474 475
f 439 446 457
f 439 457 463
f 439 440 441
f 439 463 466
f 439 441 442
f 439 444 445
f 439 445 446
f 439 466 469
f 439 442 444
f 439 469 470
f 477 473 476
f 477 470 471
f 477 471 472
f 477 472 473
f 480 478 479
f 435 436 437
f 434 435 437
f 434 437 438
f 482 480 481
f 482 478 480
f 482 477 478
f 432 433 434
f 431 432 434
f 431 434 438
f 431 438 439
f 485 482 483
f 485 483 484
f 485 477 482
f 430 431 439
f 428 429 430
f 489 486 487
f 489 487 488
f 426 428 430
f 426 427 428
f 490 486 489
f 425 430 439
f 425 426 430
f 492 490 491
f 492 486 490
f 422 423 424
f 494 492 493
f 421 424 425
f 421 422 424
f 495 492 494
f 420 421 425
f 496 485 486
f 496 486 492
f 496 492 495
f 497 485 496
f 417 418 419
f 416 417 419
f 500 497 498
f 500 498 499
f 415 416 419
f 414 439 470
f 414 477 485
f 414 419 420
f 414 425 439
f 414 415 419
f 414 420 425
f 414 470 477
f 502 500 501
f 502 485 497
f 502 497 500
f 504 502 503
f 411 412 413
f 411 413 414
f 379 504 380
f 382 379 381
f 407 408 409
f 407 409 410
f 407 410 411
f 383 504 379
f 383 379 382
f 385 383 384
f 385 504 383
f 404 411 414
f 404 407 411
f 404 405 406
f 404 406 407
f 387 385 386
f 401 402 403
f 401 403 404
f 389 387 388
f 390 502 504
f 390 504 385
f 390 385 387
f 390 387 389
f 398 399 400
f 398 400 401
f 398 401 404
f 392 390 391
f 397 398 404
f 394 392 393
f 395 485 502
f 395 396 397
f 395 404 414
f 395 397 404
f 395 502 390
f 395 390 392
f 395 392 394
f 395 414 485
