# Ring / Collar — generated by Menno Creator Kit
# Coordinates are metres; FreeCAD Z-up becomes Godot Y-up.
o Ring___Collar
v 0.0249689 0.0080000 -0.0012461
v 0.0250000 0.0080000 0.0000000
v 0.0250000 0.0000000 0.0000000
v 0.0249689 0.0000000 -0.0012461
v 0.0248758 0.0080000 -0.0024892
v 0.0248758 0.0000000 -0.0024892
v 0.0247208 0.0080000 -0.0037261
v 0.0247208 0.0000000 -0.0037261
v 0.0245043 0.0080000 -0.0049537
v 0.0245043 0.0000000 -0.0049537
v 0.0242269 0.0080000 -0.0061689
v 0.0242269 0.0000000 -0.0061689
v 0.0238893 0.0080000 -0.0073689
v 0.0238893 0.0000000 -0.0073689
v 0.0234923 0.0080000 -0.0085505
v 0.0234923 0.0000000 -0.0085505
v 0.0230369 0.0080000 -0.0097109
v 0.0230369 0.0000000 -0.0097109
v 0.0225242 0.0080000 -0.0108471
v 0.0225242 0.0000000 -0.0108471
v 0.0219555 0.0080000 -0.0119563
v 0.0219555 0.0000000 -0.0119563
v 0.0213323 0.0080000 -0.0130359
v 0.0213323 0.0000000 -0.0130359
v 0.0206560 0.0080000 -0.0140830
v 0.0206560 0.0000000 -0.0140830
v 0.0199283 0.0080000 -0.0150951
v 0.0199283 0.0000000 -0.0150951
v 0.0191511 0.0000000 -0.0160697
v 0.0191511 0.0080000 -0.0160697
v 0.0183263 0.0080000 -0.0170043
v 0.0183263 0.0000000 -0.0170043
v 0.0174559 0.0080000 -0.0178967
v 0.0174559 0.0000000 -0.0178967
v 0.0165421 0.0080000 -0.0187445
v 0.0165421 0.0000000 -0.0187445
v 0.0155872 0.0000000 -0.0195458
v 0.0155872 0.0080000 -0.0195458
v 0.0145936 0.0080000 -0.0202985
v 0.0145936 0.0000000 -0.0202985
v 0.0135637 0.0000000 -0.0210006
v 0.0135637 0.0080000 -0.0210006
v 0.0125000 0.0080000 -0.0216506
v 0.0125000 0.0000000 -0.0216506
v 0.0114053 0.0000000 -0.0222468
v 0.0114053 0.0080000 -0.0222468
v 0.0102822 0.0080000 -0.0227876
v 0.0102822 0.0000000 -0.0227876
v 0.0091335 0.0080000 -0.0232718
v 0.0091335 0.0000000 -0.0232718
v 0.0079622 0.0080000 -0.0236982
v 0.0079622 0.0000000 -0.0236982
v 0.0067710 0.0080000 -0.0240656
v 0.0067710 0.0000000 -0.0240656
v 0.0055630 0.0080000 -0.0243732
v 0.0055630 0.0000000 -0.0243732
v 0.0043412 0.0080000 -0.0246202
v 0.0043412 0.0000000 -0.0246202
v 0.0031086 0.0080000 -0.0248060
v 0.0031086 0.0000000 -0.0248060
v 0.0018683 0.0080000 -0.0249301
v 0.0018683 0.0000000 -0.0249301
v 0.0006233 0.0080000 -0.0249922
v 0.0006233 0.0000000 -0.0249922
v -0.0006233 0.0080000 -0.0249922
v -0.0006233 0.0000000 -0.0249922
v -0.0018683 0.0000000 -0.0249301
v -0.0018683 0.0080000 -0.0249301
v -0.0031086 0.0080000 -0.0248060
v -0.0031086 0.0000000 -0.0248060
v -0.0043412 0.0080000 -0.0246202
v -0.0043412 0.0000000 -0.0246202
v -0.0055630 0.0080000 -0.0243732
v -0.0055630 0.0000000 -0.0243732
v -0.0067710 0.0080000 -0.0240656
v -0.0067710 0.0000000 -0.0240656
v -0.0079622 0.0080000 -0.0236982
v -0.0079622 0.0000000 -0.0236982
v -0.0091335 0.0000000 -0.0232718
v -0.0091335 0.0080000 -0.0232718
v -0.0102822 0.0080000 -0.0227876
v -0.0102822 0.0000000 -0.0227876
v -0.0114053 0.0080000 -0.0222468
v -0.0114053 0.0000000 -0.0222468
v -0.0125000 0.0080000 -0.0216506
v -0.0125000 0.0000000 -0.0216506
v -0.0135637 0.0080000 -0.0210006
v -0.0135637 0.0000000 -0.0210006
v -0.0145936 0.0080000 -0.0202985
v -0.0145936 0.0000000 -0.0202985
v -0.0155872 0.0080000 -0.0195458
v -0.0155872 0.0000000 -0.0195458
v -0.0165421 0.0080000 -0.0187445
v -0.0165421 0.0000000 -0.0187445
v -0.0174559 0.0080000 -0.0178967
v -0.0174559 0.0000000 -0.0178967
v -0.0183263 0.0080000 -0.0170043
v -0.0183263 0.0000000 -0.0170043
v -0.0191511 0.0080000 -0.0160697
v -0.0191511 0.0000000 -0.0160697
v -0.0199283 0.0080000 -0.0150951
v -0.0199283 0.0000000 -0.0150951
v -0.0206560 0.0080000 -0.0140830
v -0.0206560 0.0000000 -0.0140830
v -0.0213323 0.0080000 -0.0130359
v -0.0213323 0.0000000 -0.0130359
v -0.0219555 0.0000000 -0.0119563
v -0.0219555 0.0080000 -0.0119563
v -0.0225242 0.0080000 -0.0108471
v -0.0225242 0.0000000 -0.0108471
v -0.0230369 0.0080000 -0.0097109
v -0.0230369 0.0000000 -0.0097109
v -0.0234923 0.0080000 -0.0085505
v -0.0234923 0.0000000 -0.0085505
v -0.0238893 0.0080000 -0.0073689
v -0.0238893 0.0000000 -0.0073689
v -0.0242269 0.0080000 -0.0061689
v -0.0242269 0.0000000 -0.0061689
v -0.0245043 0.0080000 -0.0049537
v -0.0245043 0.0000000 -0.0049537
v -0.0247208 0.0080000 -0.0037261
v -0.0247208 0.0000000 -0.0037261
v -0.0248758 0.0080000 -0.0024892
v -0.0248758 0.0000000 -0.0024892
v -0.0249689 0.0080000 -0.0012461
v -0.0249689 0.0000000 -0.0012461
v -0.0250000 0.0080000 0.0000000
v -0.0250000 0.0000000 0.0000000
v -0.0249689 0.0080000 0.0012461
v -0.0249689 0.0000000 0.0012461
v -0.0248758 0.0080000 0.0024892
v -0.0248758 0.0000000 0.0024892
v -0.0247208 0.0080000 0.0037261
v -0.0247208 0.0000000 0.0037261
v -0.0245043 0.0080000 0.0049537
v -0.0245043 0.0000000 0.0049537
v -0.0242269 0.0080000 0.0061689
v -0.0242269 0.0000000 0.0061689
v -0.0238893 0.0080000 0.0073689
v -0.0238893 0.0000000 0.0073689
v -0.0234923 0.0080000 0.0085505
v -0.0234923 0.0000000 0.0085505
v -0.0230369 0.0080000 0.0097109
v -0.0230369 0.0000000 0.0097109
v -0.0225242 0.0080000 0.0108471
v -0.0225242 0.0000000 0.0108471
v -0.0219555 0.0080000 0.0119563
v -0.0219555 0.0000000 0.0119563
v -0.0213323 0.0000000 0.0130359
v -0.0213323 0.0080000 0.0130359
v -0.0206560 0.0080000 0.0140830
v -0.0206560 0.0000000 0.0140830
v -0.0199283 0.0080000 0.0150951
v -0.0199283 0.0000000 0.0150951
v -0.0191511 0.0080000 0.0160697
v -0.0191511 0.0000000 0.0160697
v -0.0183263 0.0080000 0.0170043
v -0.0183263 0.0000000 0.0170043
v -0.0174559 0.0080000 0.0178967
v -0.0174559 0.0000000 0.0178967
v -0.0165421 0.0080000 0.0187445
v -0.0165421 0.0000000 0.0187445
v -0.0155872 0.0080000 0.0195458
v -0.0155872 0.0000000 0.0195458
v -0.0145936 0.0080000 0.0202985
v -0.0145936 0.0000000 0.0202985
v -0.0135637 0.0080000 0.0210006
v -0.0135637 0.0000000 0.0210006
v -0.0125000 0.0080000 0.0216506
v -0.0125000 0.0000000 0.0216506
v -0.0114053 0.0000000 0.0222468
v -0.0114053 0.0080000 0.0222468
v -0.0102822 0.0080000 0.0227876
v -0.0102822 0.0000000 0.0227876
v -0.0091335 0.0080000 0.0232718
v -0.0091335 0.0000000 0.0232718
v -0.0079622 0.0080000 0.0236982
v -0.0079622 0.0000000 0.0236982
v -0.0067710 0.0080000 0.0240656
v -0.0067710 0.0000000 0.0240656
v -0.0055630 0.0080000 0.0243732
v -0.0055630 0.0000000 0.0243732
v -0.0043412 0.0080000 0.0246202
v -0.0043412 0.0000000 0.0246202
v -0.0031086 0.0080000 0.0248060
v -0.0031086 0.0000000 0.0248060
v -0.0018683 0.0080000 0.0249301
v -0.0018683 0.0000000 0.0249301
v -0.0006233 0.0080000 0.0249922
v -0.0006233 0.0000000 0.0249922
v 0.0006233 0.0080000 0.0249922
v 0.0006233 0.0000000 0.0249922
v 0.0018683 0.0080000 0.0249301
v 0.0018683 0.0000000 0.0249301
v 0.0031086 0.0080000 0.0248060
v 0.0031086 0.0000000 0.0248060
v 0.0043412 0.0080000 0.0246202
v 0.0043412 0.0000000 0.0246202
v 0.0055630 0.0080000 0.0243732
v 0.0055630 0.0000000 0.0243732
v 0.0067710 0.0080000 0.0240656
v 0.0067710 0.0000000 0.0240656
v 0.0079622 0.0080000 0.0236982
v 0.0079622 0.0000000 0.0236982
v 0.0091335 0.0080000 0.0232718
v 0.0091335 0.0000000 0.0232718
v 0.0102822 0.0080000 0.0227876
v 0.0102822 0.0000000 0.0227876
v 0.0114053 0.0080000 0.0222468
v 0.0114053 0.0000000 0.0222468
v 0.0125000 0.0080000 0.0216506
v 0.0125000 0.0000000 0.0216506
v 0.0135637 0.0080000 0.0210006
v 0.0135637 0.0000000 0.0210006
v 0.0145936 0.0080000 0.0202985
v 0.0145936 0.0000000 0.0202985
v 0.0155872 0.0080000 0.0195458
v 0.0155872 0.0000000 0.0195458
v 0.0165421 0.0080000 0.0187445
v 0.0165421 0.0000000 0.0187445
v 0.0174559 0.0080000 0.0178967
v 0.0174559 0.0000000 0.0178967
v 0.0183263 0.0080000 0.0170043
v 0.0183263 0.0000000 0.0170043
v 0.0191511 0.0080000 0.0160697
v 0.0191511 0.0000000 0.0160697
v 0.0199283 0.0080000 0.0150951
v 0.0199283 0.0000000 0.0150951
v 0.0206560 0.0080000 0.0140830
v 0.0206560 0.0000000 0.0140830
v 0.0213323 0.0080000 0.0130359
v 0.0213323 0.0000000 0.0130359
v 0.0219555 0.0080000 0.0119563
v 0.0219555 0.0000000 0.0119563
v 0.0225242 0.0080000 0.0108471
v 0.0225242 0.0000000 0.0108471
v 0.0230369 0.0080000 0.0097109
v 0.0230369 0.0000000 0.0097109
v 0.0234923 0.0080000 0.0085505
v 0.0234923 0.0000000 0.0085505
v 0.0238893 0.0080000 0.0073689
v 0.0238893 0.0000000 0.0073689
v 0.0242269 0.0080000 0.0061689
v 0.0242269 0.0000000 0.0061689
v 0.0245043 0.0080000 0.0049537
v 0.0245043 0.0000000 0.0049537
v 0.0247208 0.0080000 0.0037261
v 0.0247208 0.0000000 0.0037261
v 0.0248758 0.0080000 0.0024892
v 0.0248758 0.0000000 0.0024892
v 0.0249689 0.0080000 0.0012461
v 0.0249689 0.0000000 0.0012461
v -0.0139280 0.0080000 0.0129233
v -0.0132665 0.0080000 0.0136015
v -0.0125720 0.0080000 0.0142458
v -0.0145548 0.0080000 0.0122130
v -0.0118463 0.0080000 0.0148548
v -0.0151455 0.0080000 0.0114723
v -0.0110911 0.0080000 0.0154268
v -0.0156985 0.0080000 0.0107031
v -0.0103084 0.0080000 0.0159605
v -0.0162125 0.0080000 0.0099073
v -0.0095000 0.0080000 0.0164545
v -0.0166862 0.0080000 0.0090868
v -0.0086680 0.0080000 0.0169076
v -0.0171184 0.0080000 0.0082438
v -0.0078145 0.0080000 0.0173186
v -0.0175080 0.0080000 0.0073803
v -0.0069415 0.0080000 0.0176866
v -0.0178542 0.0080000 0.0064984
v -0.0060512 0.0080000 0.0180106
v -0.0181559 0.0080000 0.0056003
v -0.0051460 0.0080000 0.0182899
v -0.0184125 0.0080000 0.0046884
v -0.0042279 0.0080000 0.0185236
v -0.0186233 0.0080000 0.0037648
v -0.0032993 0.0080000 0.0187113
v -0.0187878 0.0080000 0.0028318
v -0.0023625 0.0080000 0.0188525
v -0.0189056 0.0080000 0.0018918
v -0.0014199 0.0080000 0.0189469
v -0.0189764 0.0080000 0.0009471
v -0.0004737 0.0080000 0.0189941
v -0.0190000 0.0080000 0.0000000
v 0.0004737 0.0080000 0.0189941
v -0.0189764 0.0080000 -0.0009471
v 0.0014199 0.0080000 0.0189469
v -0.0189056 0.0080000 -0.0018918
v 0.0023625 0.0080000 0.0188525
v -0.0187878 0.0080000 -0.0028318
v 0.0032993 0.0080000 0.0187113
v -0.0186233 0.0080000 -0.0037648
v 0.0042279 0.0080000 0.0185236
v -0.0184125 0.0080000 -0.0046884
v 0.0051460 0.0080000 0.0182899
v -0.0181559 0.0080000 -0.0056003
v 0.0060512 0.0080000 0.0180106
v -0.0178542 0.0080000 -0.0064984
v 0.0069415 0.0080000 0.0176866
v -0.0175080 0.0080000 -0.0073803
v 0.0078145 0.0080000 0.0173186
v -0.0171184 0.0080000 -0.0082438
v 0.0086680 0.0080000 0.0169076
v -0.0166862 0.0080000 -0.0090868
v 0.0095000 0.0080000 0.0164545
v -0.0162125 0.0080000 -0.0099073
v 0.0103084 0.0080000 0.0159605
v -0.0156985 0.0080000 -0.0107031
v 0.0110911 0.0080000 0.0154268
v -0.0151455 0.0080000 -0.0114723
v 0.0118463 0.0080000 0.0148548
v -0.0145548 0.0080000 -0.0122130
v 0.0125720 0.0080000 0.0142458
v -0.0139280 0.0080000 -0.0129233
v 0.0132665 0.0080000 0.0136015
v -0.0132665 0.0080000 -0.0136015
v 0.0139280 0.0080000 0.0129233
v -0.0125720 0.0080000 -0.0142458
v 0.0145548 0.0080000 0.0122130
v -0.0118463 0.0080000 -0.0148548
v 0.0151455 0.0080000 0.0114723
v 0.0156985 0.0080000 0.0107031
v -0.0110911 0.0080000 -0.0154268
v 0.0162125 0.0080000 0.0099073
v -0.0103084 0.0080000 -0.0159605
v -0.0095000 0.0080000 -0.0164545
v 0.0166862 0.0080000 0.0090868
v -0.0086680 0.0080000 -0.0169076
v 0.0171184 0.0080000 0.0082438
v 0.0175080 0.0080000 0.0073803
v -0.0078145 0.0080000 -0.0173186
v 0.0178542 0.0080000 0.0064984
v -0.0069415 0.0080000 -0.0176866
v -0.0060512 0.0080000 -0.0180106
v 0.0181559 0.0080000 0.0056003
v -0.0051460 0.0080000 -0.0182899
v 0.0184125 0.0080000 0.0046884
v -0.0042279 0.0080000 -0.0185236
v 0.0186233 0.0080000 0.0037648
v 0.0187878 0.0080000 0.0028318
v -0.0032993 0.0080000 -0.0187113
v -0.0023625 0.0080000 -0.0188525
v 0.0189056 0.0080000 0.0018918
v -0.0014199 0.0080000 -0.0189469
v 0.0189764 0.0080000 0.0009471
v 0.0190000 0.0080000 0.0000000
v -0.0004737 0.0080000 -0.0189941
v 0.0004737 0.0080000 -0.0189941
v 0.0189764 0.0080000 -0.0009471
v 0.0014199 0.0080000 -0.0189469
v 0.0189056 0.0080000 -0.0018918
v 0.0023625 0.0080000 -0.0188525
v 0.0187878 0.0080000 -0.0028318
v 0.0032993 0.0080000 -0.0187113
v 0.0186233 0.0080000 -0.0037648
v 0.0184125 0.0080000 -0.0046884
v 0.0042279 0.0080000 -0.0185236
v 0.0051460 0.0080000 -0.0182899
v 0.0181559 0.0080000 -0.0056003
v 0.0060512 0.0080000 -0.0180106
v 0.0178542 0.0080000 -0.0064984
v 0.0175080 0.0080000 -0.0073803
v 0.0069415 0.0080000 -0.0176866
v 0.0078145 0.0080000 -0.0173186
v 0.0171184 0.0080000 -0.0082438
v 0.0166862 0.0080000 -0.0090868
v 0.0086680 0.0080000 -0.0169076
v 0.0162125 0.0080000 -0.0099073
v 0.0095000 0.0080000 -0.0164545
v 0.0103084 0.0080000 -0.0159605
v 0.0156985 0.0080000 -0.0107031
v 0.0110911 0.0080000 -0.0154268
v 0.0151455 0.0080000 -0.0114723
v 0.0118463 0.0080000 -0.0148548
v 0.0145548 0.0080000 -0.0122130
v 0.0125720 0.0080000 -0.0142458
v 0.0139280 0.0080000 -0.0129233
v 0.0132665 0.0080000 -0.0136015
v -0.0139280 0.0000000 0.0129233
v -0.0132665 0.0000000 0.0136015
v -0.0125720 0.0000000 0.0142458
v -0.0145548 0.0000000 0.0122130
v -0.0118463 0.0000000 0.0148548
v -0.0151455 0.0000000 0.0114723
v -0.0110911 0.0000000 0.0154268
v -0.0156985 0.0000000 0.0107031
v -0.0103084 0.0000000 0.0159605
v -0.0162125 0.0000000 0.0099073
v -0.0095000 0.0000000 0.0164545
v -0.0166862 0.0000000 0.0090868
v -0.0086680 0.0000000 0.0169076
v -0.0171184 0.0000000 0.0082438
v -0.0078145 0.0000000 0.0173186
v -0.0175080 0.0000000 0.0073803
v -0.0069415 0.0000000 0.0176866
v -0.0178542 0.0000000 0.0064984
v -0.0060512 0.0000000 0.0180106
v -0.0181559 0.0000000 0.0056003
v -0.0051460 0.0000000 0.0182899
v -0.0184125 0.0000000 0.0046884
v -0.0042279 0.0000000 0.0185236
v -0.0186233 0.0000000 0.0037648
v -0.0032993 0.0000000 0.0187113
v -0.0187878 0.0000000 0.0028318
v -0.0023625 0.0000000 0.0188525
v -0.0189056 0.0000000 0.0018918
v -0.0014199 0.0000000 0.0189469
v -0.0189764 0.0000000 0.0009471
v -0.0004737 0.0000000 0.0189941
v -0.0190000 0.0000000 0.0000000
v 0.0004737 0.0000000 0.0189941
v -0.0189764 0.0000000 -0.0009471
v 0.0014199 0.0000000 0.0189469
v -0.0189056 0.0000000 -0.0018918
v 0.0023625 0.0000000 0.0188525
v -0.0187878 0.0000000 -0.0028318
v 0.0032993 0.0000000 0.0187113
v -0.0186233 0.0000000 -0.0037648
v 0.0042279 0.0000000 0.0185236
v -0.0184125 0.0000000 -0.0046884
v 0.0051460 0.0000000 0.0182899
v -0.0181559 0.0000000 -0.0056003
v 0.0060512 0.0000000 0.0180106
v -0.0178542 0.0000000 -0.0064984
v 0.0069415 0.0000000 0.0176866
v -0.0175080 0.0000000 -0.0073803
v 0.0078145 0.0000000 0.0173186
v -0.0171184 0.0000000 -0.0082438
v 0.0086680 0.0000000 0.0169076
v -0.0166862 0.0000000 -0.0090868
v 0.0095000 0.0000000 0.0164545
v -0.0162125 0.0000000 -0.0099073
v 0.0103084 0.0000000 0.0159605
v -0.0156985 0.0000000 -0.0107031
v 0.0110911 0.0000000 0.0154268
v -0.0151455 0.0000000 -0.0114723
v 0.0118463 0.0000000 0.0148548
v -0.0145548 0.0000000 -0.0122130
v 0.0125720 0.0000000 0.0142458
v -0.0139280 0.0000000 -0.0129233
v 0.0132665 0.0000000 0.0136015
v -0.0132665 0.0000000 -0.0136015
v 0.0139280 0.0000000 0.0129233
v -0.0125720 0.0000000 -0.0142458
v 0.0145548 0.0000000 0.0122130
v -0.0118463 0.0000000 -0.0148548
v 0.0151455 0.0000000 0.0114723
v 0.0156985 0.0000000 0.0107031
v -0.0110911 0.0000000 -0.0154268
v 0.0162125 0.0000000 0.0099073
v -0.0103084 0.0000000 -0.0159605
v -0.0095000 0.0000000 -0.0164545
v 0.0166862 0.0000000 0.0090868
v -0.0086680 0.0000000 -0.0169076
v 0.0171184 0.0000000 0.0082438
v 0.0175080 0.0000000 0.0073803
v -0.0078145 0.0000000 -0.0173186
v 0.0178542 0.0000000 0.0064984
v -0.0069415 0.0000000 -0.0176866
v -0.0060512 0.0000000 -0.0180106
v 0.0181559 0.0000000 0.0056003
v -0.0051460 0.0000000 -0.0182899
v 0.0184125 0.0000000 0.0046884
v -0.0042279 0.0000000 -0.0185236
v 0.0186233 0.0000000 0.0037648
v 0.0187878 0.0000000 0.0028318
v -0.0032993 0.0000000 -0.0187113
v -0.0023625 0.0000000 -0.0188525
v 0.0189056 0.0000000 0.0018918
v -0.0014199 0.0000000 -0.0189469
v 0.0189764 0.0000000 0.0009471
v 0.0190000 0.0000000 0.0000000
v -0.0004737 0.0000000 -0.0189941
v 0.0004737 0.0000000 -0.0189941
v 0.0189764 0.0000000 -0.0009471
v 0.0014199 0.0000000 -0.0189469
v 0.0189056 0.0000000 -0.0018918
v 0.0023625 0.0000000 -0.0188525
v 0.0187878 0.0000000 -0.0028318
v 0.0032993 0.0000000 -0.0187113
v 0.0186233 0.0000000 -0.0037648
v 0.0184125 0.0000000 -0.0046884
v 0.0042279 0.0000000 -0.0185236
v 0.0051460 0.0000000 -0.0182899
v 0.0181559 0.0000000 -0.0056003
v 0.0060512 0.0000000 -0.0180106
v 0.0178542 0.0000000 -0.0064984
v 0.0175080 0.0000000 -0.0073803
v 0.0069415 0.0000000 -0.0176866
v 0.0078145 0.0000000 -0.0173186
v 0.0171184 0.0000000 -0.0082438
v 0.0166862 0.0000000 -0.0090868
v 0.0086680 0.0000000 -0.0169076
v 0.0162125 0.0000000 -0.0099073
v 0.0095000 0.0000000 -0.0164545
v 0.0103084 0.0000000 -0.0159605
v 0.0156985 0.0000000 -0.0107031
v 0.0110911 0.0000000 -0.0154268
v 0.0151455 0.0000000 -0.0114723
v 0.0118463 0.0000000 -0.0148548
v 0.0145548 0.0000000 -0.0122130
v 0.0125720 0.0000000 -0.0142458
v 0.0139280 0.0000000 -0.0129233
v 0.0132665 0.0000000 -0.0136015
f 1 2 3
f 1 3 4
f 5 4 6
f 5 1 4
f 7 6 8
f 7 5 6
f 9 8 10
f 9 7 8
f 11 10 12
f 11 9 10
f 13 12 14
f 13 11 12
f 15 14 16
f 15 13 14
f 17 16 18
f 17 15 16
f 19 18 20
f 19 17 18
f 21 20 22
f 21 19 20
f 23 21 22
f 23 22 24
f 25 23 24
f 25 24 26
f 27 25 26
f 27 26 28
f 27 28 29
f 30 27 29
f 31 30 29
f 31 29 32
f 33 31 32
f 33 32 34
f 35 33 34
f 35 34 36
f 35 36 37
f 38 35 37
f 39 38 37
f 39 37 40
f 39 40 41
f 42 39 41
f 43 42 41
f 43 41 44
f 43 44 45
f 46 43 45
f 47 45 48
f 47 46 45
f 49 48 50
f 49 47 48
f 51 50 52
f 51 49 50
f 53 52 54
f 53 51 52
f 55 54 56
f 55 53 54
f 57 56 58
f 57 55 56
f 59 58 60
f 59 57 58
f 61 60 62
f 61 59 60
f 63 62 64
f 63 61 62
f 65 64 66
f 65 66 67
f 65 63 64
f 68 65 67
f 69 67 70
f 69 68 67
f 71 70 72
f 71 69 70
f 73 72 74
f 73 71 72
f 75 73 74
f 75 74 76
f 77 75 76
f 77 76 78
f 77 78 79
f 80 77 79
f 81 80 79
f 81 79 82
f 83 81 82
f 83 82 84
f 85 83 84
f 85 84 86
f 87 85 86
f 87 86 88
f 89 87 88
f 89 88 90
f 91 89 90
f 91 90 92
f 93 91 92
f 93 92 94
f 95 93 94
f 95 94 96
f 97 95 96
f 97 96 98
f 99 97 98
f 99 98 100
f 101 99 100
f 101 100 102
f 103 101 102
f 103 102 104
f 105 103 104
f 105 104 106
f 105 106 107
f 108 105 107
f 109 108 107
f 109 107 110
f 111 109 110
f 111 110 112
f 113 111 112
f 113 112 114
f 115 113 114
f 115 114 116
f 117 116 118
f 117 115 116
f 119 118 120
f 119 117 118
f 121 120 122
f 121 119 120
f 123 122 124
f 123 121 122
f 125 123 124
f 125 124 126
f 127 125 126
f 127 126 128
f 129 127 128
f 129 128 130
f 131 129 130
f 131 130 132
f 133 131 132
f 133 132 134
f 135 133 134
f 135 134 136
f 137 135 136
f 137 136 138
f 139 137 138
f 139 138 140
f 141 139 140
f 141 140 142
f 143 141 142
f 143 142 144
f 145 143 144
f 145 144 146
f 147 145 146
f 147 146 148
f 147 148 149
f 150 147 149
f 151 149 152
f 151 150 149
f 153 152 154
f 153 151 152
f 155 154 156
f 155 153 154
f 157 156 158
f 157 155 156
f 159 158 160
f 159 157 158
f 161 160 162
f 161 159 160
f 163 162 164
f 163 161 162
f 165 164 166
f 165 163 164
f 167 166 168
f 167 165 166
f 169 168 170
f 169 170 171
f 169 167 168
f 172 169 171
f 173 171 174
f 173 172 171
f 175 174 176
f 175 173 174
f 177 175 176
f 177 176 178
f 179 177 178
f 179 178 180
f 181 179 180
f 181 180 182
f 183 181 182
f 183 182 184
f 185 184 186
f 185 183 184
f 187 186 188
f 187 185 186
f 189 188 190
f 189 187 188
f 191 190 192
f 191 189 190
f 193 192 194
f 193 191 192
f 195 194 196
f 195 193 194
f 197 196 198
f 197 195 196
f 199 198 200
f 199 197 198
f 201 200 202
f 201 199 200
f 203 202 204
f 203 201 202
f 205 204 206
f 205 203 204
f 207 206 208
f 207 205 206
f 209 208 210
f 209 207 208
f 211 210 212
f 211 209 210
f 213 212 214
f 213 211 212
f 215 214 216
f 215 213 214
f 217 216 218
f 217 215 216
f 219 218 220
f 219 217 218
f 221 220 222
f 221 219 220
f 223 222 224
f 223 221 222
f 225 223 224
f 225 224 226
f 227 225 226
f 227 226 228
f 229 227 228
f 229 228 230
f 231 229 230
f 231 230 232
f 233 231 232
f 233 232 234
f 235 233 234
f 235 234 236
f 237 235 236
f 237 236 238
f 239 237 238
f 239 238 240
f 241 239 240
f 241 240 242
f 243 241 242
f 243 242 244
f 245 243 244
f 245 244 246
f 247 245 246
f 247 246 248
f 249 247 248
f 249 248 250
f 251 250 252
f 251 249 250
f 2 252 3
f 2 251 252
f 253 159 254
f 253 157 159
f 255 254 159
f 255 159 161
f 255 161 163
f 256 157 253
f 256 155 157
f 257 255 163
f 258 155 256
f 258 153 155
f 259 257 163
f 259 163 165
f 259 165 167
f 260 153 258
f 260 151 153
f 261 259 167
f 262 151 260
f 262 150 151
f 263 261 167
f 263 167 169
f 264 150 262
f 264 145 147
f 264 147 150
f 265 263 169
f 265 169 172
f 266 145 264
f 266 143 145
f 267 265 172
f 267 172 173
f 267 173 175
f 268 143 266
f 269 267 175
f 269 175 177
f 270 143 268
f 270 141 143
f 271 269 177
f 272 141 270
f 272 139 141
f 273 271 177
f 273 177 179
f 273 179 181
f 274 139 272
f 274 137 139
f 275 273 181
f 276 137 274
f 276 135 137
f 277 181 183
f 277 183 185
f 277 275 181
f 278 133 135
f 278 135 276
f 279 277 185
f 279 185 187
f 280 131 133
f 280 133 278
f 281 279 187
f 282 131 280
f 282 129 131
f 283 281 187
f 283 187 189
f 283 189 191
f 284 127 129
f 284 129 282
f 285 283 191
f 285 191 193
f 286 127 284
f 286 125 127
f 287 285 193
f 287 193 195
f 288 125 286
f 288 123 125
f 289 287 195
f 290 119 121
f 290 121 123
f 290 123 288
f 291 289 195
f 291 195 197
f 292 119 290
f 293 291 197
f 293 197 199
f 294 119 292
f 294 117 119
f 295 293 199
f 295 199 201
f 296 117 294
f 296 115 117
f 297 201 203
f 297 203 205
f 297 295 201
f 298 115 296
f 298 113 115
f 299 205 207
f 299 297 205
f 300 113 298
f 300 111 113
f 301 299 207
f 302 111 300
f 302 108 109
f 302 109 111
f 303 207 209
f 303 301 207
f 304 105 108
f 304 108 302
f 305 209 211
f 305 303 209
f 306 105 304
f 307 211 213
f 307 305 211
f 308 103 105
f 308 105 306
f 309 213 215
f 309 307 213
f 310 101 103
f 310 103 308
f 99 101 310
f 311 215 217
f 311 309 215
f 312 99 310
f 219 311 217
f 313 311 219
f 314 97 99
f 314 99 312
f 315 219 221
f 315 313 219
f 95 314 316
f 95 97 314
f 317 315 221
f 223 317 221
f 93 95 316
f 93 316 318
f 319 317 223
f 225 319 223
f 91 93 318
f 91 318 320
f 227 319 225
f 227 321 319
f 322 321 227
f 89 91 320
f 89 320 323
f 229 322 227
f 229 324 322
f 87 89 323
f 87 325 326
f 87 323 325
f 231 324 229
f 231 327 324
f 85 87 326
f 233 327 231
f 83 85 326
f 83 326 328
f 235 329 327
f 235 330 329
f 235 327 233
f 81 83 328
f 81 328 331
f 237 330 235
f 237 332 330
f 80 333 334
f 80 331 333
f 80 81 331
f 239 335 332
f 239 332 237
f 77 80 334
f 241 335 239
f 75 334 336
f 75 77 334
f 243 337 335
f 243 335 241
f 73 336 338
f 73 75 336
f 245 339 337
f 245 340 339
f 245 337 243
f 71 73 338
f 71 338 341
f 247 340 245
f 69 71 341
f 69 341 342
f 249 340 247
f 249 343 340
f 68 69 342
f 68 342 344
f 251 343 249
f 251 345 343
f 251 346 345
f 65 68 344
f 65 347 348
f 65 344 347
f 2 346 251
f 63 65 348
f 1 349 346
f 1 346 2
f 61 348 350
f 61 63 348
f 5 351 349
f 5 349 1
f 59 350 352
f 59 61 350
f 7 353 351
f 7 351 5
f 57 352 354
f 57 59 352
f 9 355 353
f 9 356 355
f 9 353 7
f 55 57 354
f 55 354 357
f 11 356 9
f 53 55 357
f 53 357 358
f 13 359 356
f 13 356 11
f 51 53 358
f 51 358 360
f 15 359 13
f 15 361 359
f 15 362 361
f 49 51 360
f 49 360 363
f 17 362 15
f 47 49 363
f 47 363 364
f 19 365 362
f 19 366 365
f 19 362 17
f 46 47 364
f 46 364 367
f 21 368 366
f 21 366 19
f 43 46 367
f 43 367 369
f 23 368 21
f 42 43 369
f 42 369 370
f 25 368 23
f 25 371 368
f 39 42 370
f 39 370 372
f 27 371 25
f 27 373 371
f 38 39 372
f 38 372 374
f 30 373 27
f 30 375 373
f 35 374 376
f 35 38 374
f 31 377 375
f 31 378 377
f 31 375 30
f 33 376 378
f 33 35 376
f 33 378 31
f 160 379 380
f 158 379 160
f 380 381 160
f 160 381 162
f 162 381 164
f 158 382 379
f 156 382 158
f 381 383 164
f 156 384 382
f 154 384 156
f 383 385 164
f 164 385 166
f 166 385 168
f 154 386 384
f 152 386 154
f 385 387 168
f 152 388 386
f 149 388 152
f 387 389 168
f 168 389 170
f 149 390 388
f 146 390 148
f 148 390 149
f 389 391 170
f 170 391 171
f 146 392 390
f 144 392 146
f 391 393 171
f 171 393 174
f 174 393 176
f 144 394 392
f 393 395 176
f 176 395 178
f 144 396 394
f 142 396 144
f 395 397 178
f 142 398 396
f 140 398 142
f 397 399 178
f 178 399 180
f 180 399 182
f 140 400 398
f 138 400 140
f 399 401 182
f 138 402 400
f 136 402 138
f 182 403 184
f 184 403 186
f 401 403 182
f 134 404 136
f 136 404 402
f 403 405 186
f 186 405 188
f 132 406 134
f 134 406 404
f 405 407 188
f 132 408 406
f 130 408 132
f 407 409 188
f 188 409 190
f 190 409 192
f 128 410 130
f 130 410 408
f 409 411 192
f 192 411 194
f 128 412 410
f 126 412 128
f 411 413 194
f 194 413 196
f 126 414 412
f 124 414 126
f 413 415 196
f 120 416 122
f 122 416 124
f 124 416 414
f 415 417 196
f 196 417 198
f 120 418 416
f 417 419 198
f 198 419 200
f 120 420 418
f 118 420 120
f 419 421 200
f 200 421 202
f 118 422 420
f 116 422 118
f 202 423 204
f 204 423 206
f 421 423 202
f 116 424 422
f 114 424 116
f 206 425 208
f 423 425 206
f 114 426 424
f 112 426 114
f 425 427 208
f 112 428 426
f 107 428 110
f 110 428 112
f 208 429 210
f 427 429 208
f 106 430 107
f 107 430 428
f 210 431 212
f 429 431 210
f 106 432 430
f 212 433 214
f 431 433 212
f 104 434 106
f 106 434 432
f 214 435 216
f 433 435 214
f 102 436 104
f 104 436 434
f 102 100 436
f 216 437 218
f 435 437 216
f 100 438 436
f 437 220 218
f 437 439 220
f 98 440 100
f 100 440 438
f 220 441 222
f 439 441 220
f 440 96 442
f 98 96 440
f 441 443 222
f 443 224 222
f 96 94 442
f 442 94 444
f 443 445 224
f 445 226 224
f 94 92 444
f 444 92 446
f 445 228 226
f 447 228 445
f 447 448 228
f 92 90 446
f 446 90 449
f 448 230 228
f 450 230 448
f 90 88 449
f 451 88 452
f 449 88 451
f 450 232 230
f 453 232 450
f 88 86 452
f 453 234 232
f 86 84 452
f 452 84 454
f 455 236 453
f 456 236 455
f 453 236 234
f 84 82 454
f 454 82 457
f 456 238 236
f 458 238 456
f 459 79 460
f 457 79 459
f 82 79 457
f 461 240 458
f 458 240 238
f 79 78 460
f 461 242 240
f 460 76 462
f 78 76 460
f 463 244 461
f 461 244 242
f 462 74 464
f 76 74 462
f 465 246 463
f 466 246 465
f 463 246 244
f 74 72 464
f 464 72 467
f 466 248 246
f 72 70 467
f 467 70 468
f 466 250 248
f 469 250 466
f 70 67 468
f 468 67 470
f 469 252 250
f 471 252 469
f 472 252 471
f 67 66 470
f 473 66 474
f 470 66 473
f 472 3 252
f 66 64 474
f 475 4 472
f 472 4 3
f 474 62 476
f 64 62 474
f 477 6 475
f 475 6 4
f 476 60 478
f 62 60 476
f 479 8 477
f 477 8 6
f 478 58 480
f 60 58 478
f 481 10 479
f 482 10 481
f 479 10 8
f 58 56 480
f 480 56 483
f 482 12 10
f 56 54 483
f 483 54 484
f 485 14 482
f 482 14 12
f 54 52 484
f 484 52 486
f 485 16 14
f 487 16 485
f 488 16 487
f 52 50 486
f 486 50 489
f 488 18 16
f 50 48 489
f 489 48 490
f 491 20 488
f 492 20 491
f 488 20 18
f 48 45 490
f 490 45 493
f 494 22 492
f 492 22 20
f 45 44 493
f 493 44 495
f 494 24 22
f 44 41 495
f 495 41 496
f 494 26 24
f 497 26 494
f 41 40 496
f 496 40 498
f 497 28 26
f 499 28 497
f 40 37 498
f 498 37 500
f 499 29 28
f 501 29 499
f 500 36 502
f 37 36 500
f 503 32 501
f 504 32 503
f 501 32 29
f 502 34 504
f 36 34 502
f 504 34 32
f 346 349 472
f 472 349 475
f 475 351 477
f 349 351 475
f 477 353 479
f 351 353 477
f 479 355 481
f 353 355 479
f 481 356 482
f 355 356 481
f 482 359 485
f 356 359 482
f 485 361 487
f 359 361 485
f 487 362 488
f 361 362 487
f 488 365 491
f 362 365 488
f 491 366 492
f 365 366 491
f 366 368 492
f 492 368 494
f 368 371 494
f 494 371 497
f 371 373 497
f 497 373 499
f 499 373 501
f 373 375 501
f 375 377 501
f 501 377 503
f 377 378 503
f 503 378 504
f 378 376 504
f 504 376 502
f 502 376 500
f 376 374 500
f 374 372 500
f 500 372 498
f 498 372 496
f 372 370 496
f 370 369 496
f 496 369 495
f 495 369 493
f 369 367 493
f 493 364 490
f 367 364 493
f 490 363 489
f 364 363 490
f 489 360 486
f 363 360 489
f 486 358 484
f 360 358 486
f 484 357 483
f 358 357 484
f 483 354 480
f 357 354 483
f 480 352 478
f 354 352 480
f 478 350 476
f 352 350 478
f 476 348 474
f 350 348 476
f 474 347 473
f 473 347 470
f 348 347 474
f 347 344 470
f 470 342 468
f 344 342 470
f 468 341 467
f 342 341 468
f 467 338 464
f 341 338 467
f 338 336 464
f 464 336 462
f 336 334 462
f 462 334 460
f 460 334 459
f 334 333 459
f 333 331 459
f 459 331 457
f 331 328 457
f 457 328 454
f 328 326 454
f 454 326 452
f 326 325 452
f 452 325 451
f 325 323 451
f 451 323 449
f 323 320 449
f 449 320 446
f 320 318 446
f 446 318 444
f 318 316 444
f 444 316 442
f 316 314 442
f 442 314 440
f 314 312 440
f 440 312 438
f 312 310 438
f 438 310 436
f 310 308 436
f 436 308 434
f 308 306 434
f 434 306 432
f 432 306 430
f 306 304 430
f 304 302 430
f 430 302 428
f 302 300 428
f 428 300 426
f 300 298 426
f 426 298 424
f 298 296 424
f 424 296 422
f 422 294 420
f 296 294 422
f 420 292 418
f 294 292 420
f 418 290 416
f 292 290 418
f 416 288 414
f 290 288 416
f 288 286 414
f 414 286 412
f 286 284 412
f 412 284 410
f 284 282 410
f 410 282 408
f 282 280 408
f 408 280 406
f 280 278 406
f 406 278 404
f 278 276 404
f 404 276 402
f 276 274 402
f 402 274 400
f 274 272 400
f 400 272 398
f 272 270 398
f 398 270 396
f 270 268 396
f 396 268 394
f 268 266 394
f 394 266 392
f 266 264 392
f 392 264 390
f 390 264 388
f 264 262 388
f 388 260 386
f 262 260 388
f 386 258 384
f 260 258 386
f 384 256 382
f 258 256 384
f 382 253 379
f 256 253 382
f 379 254 380
f 253 254 379
f 380 255 381
f 254 255 380
f 381 257 383
f 255 257 381
f 383 259 385
f 257 259 383
f 385 261 387
f 259 261 385
f 387 263 389
f 389 263 391
f 261 263 387
f 263 265 391
f 391 267 393
f 265 267 391
f 393 269 395
f 267 269 393
f 269 271 395
f 395 271 397
f 271 273 397
f 397 273 399
f 273 275 399
f 399 275 401
f 275 277 401
f 401 277 403
f 403 279 405
f 277 279 403
f 405 281 407
f 279 281 405
f 407 283 409
f 281 283 407
f 409 285 411
f 283 285 409
f 411 287 413
f 285 287 411
f 413 289 415
f 287 289 413
f 415 291 417
f 289 291 415
f 417 293 419
f 291 293 417
f 419 295 421
f 293 295 419
f 421 297 423
f 295 297 421
f 423 299 425
f 297 299 423
f 425 301 427
f 299 301 425
f 427 303 429
f 301 303 427
f 429 305 431
f 303 305 429
f 431 307 433
f 305 307 431
f 433 309 435
f 307 309 433
f 435 311 437
f 309 311 435
f 437 313 439
f 311 313 437
f 439 315 441
f 313 315 439
f 441 317 443
f 315 317 441
f 317 319 443
f 443 319 445
f 319 321 445
f 445 321 447
f 321 322 447
f 447 322 448
f 322 324 448
f 448 324 450
f 324 327 450
f 450 327 453
f 327 329 453
f 453 329 455
f 329 330 455
f 455 330 456
f 330 332 456
f 456 332 458
f 332 335 458
f 458 335 461
f 335 337 461
f 461 337 463
f 337 339 463
f 463 339 465
f 339 340 465
f 465 340 466
f 340 343 466
f 466 343 469
f 469 345 471
f 343 345 469
f 471 346 472
f 345 346 471
