# Rounded Box — generated by Menno Creator Kit
# Coordinates are metres; FreeCAD Z-up becomes Godot Y-up.
o Rounded_Box
v 0.0000048 0.0250000 -0.0038037
v 0.0000000 0.0250000 -0.0040000
v 0.0000000 0.0000000 -0.0040000
v 0.0000048 0.0000000 -0.0038037
v 0.0000193 0.0000000 -0.0036079
v 0.0000193 0.0250000 -0.0036079
v 0.0000433 0.0000000 -0.0034131
v 0.0000433 0.0250000 -0.0034131
v 0.0000769 0.0250000 -0.0032196
v 0.0000769 0.0000000 -0.0032196
v 0.0001199 0.0250000 -0.0030281
v 0.0001199 0.0000000 -0.0030281
v 0.0001722 0.0250000 -0.0028389
v 0.0001722 0.0000000 -0.0028389
v 0.0002338 0.0000000 -0.0026524
v 0.0002338 0.0250000 -0.0026524
v 0.0003045 0.0250000 -0.0024693
v 0.0003045 0.0000000 -0.0024693
v 0.0003840 0.0250000 -0.0022898
v 0.0003840 0.0000000 -0.0022898
v 0.0004723 0.0250000 -0.0021144
v 0.0004723 0.0000000 -0.0021144
v 0.0005691 0.0250000 -0.0019436
v 0.0005691 0.0000000 -0.0019436
v 0.0006741 0.0000000 -0.0017777
v 0.0006741 0.0250000 -0.0017777
v 0.0007872 0.0000000 -0.0016172
v 0.0007872 0.0250000 -0.0016172
v 0.0009080 0.0250000 -0.0014624
v 0.0009080 0.0000000 -0.0014624
v 0.0010362 0.0250000 -0.0013138
v 0.0010362 0.0000000 -0.0013138
v 0.0011716 0.0250000 -0.0011716
v 0.0011716 0.0000000 -0.0011716
v 0.0013138 0.0250000 -0.0010362
v 0.0013138 0.0000000 -0.0010362
v 0.0014624 0.0000000 -0.0009080
v 0.0014624 0.0250000 -0.0009080
v 0.0016172 0.0250000 -0.0007872
v 0.0016172 0.0000000 -0.0007872
v 0.0017777 0.0250000 -0.0006741
v 0.0017777 0.0000000 -0.0006741
v 0.0019436 0.0250000 -0.0005691
v 0.0019436 0.0000000 -0.0005691
v 0.0021144 0.0250000 -0.0004723
v 0.0021144 0.0000000 -0.0004723
v 0.0022898 0.0250000 -0.0003840
v 0.0022898 0.0000000 -0.0003840
v 0.0024693 0.0000000 -0.0003045
v 0.0024693 0.0250000 -0.0003045
v 0.0026524 0.0250000 -0.0002338
v 0.0026524 0.0000000 -0.0002338
v 0.0028389 0.0250000 -0.0001722
v 0.0028389 0.0000000 -0.0001722
v 0.0030281 0.0250000 -0.0001199
v 0.0030281 0.0000000 -0.0001199
v 0.0032196 0.0250000 -0.0000769
v 0.0032196 0.0000000 -0.0000769
v 0.0034131 0.0250000 -0.0000433
v 0.0034131 0.0000000 -0.0000433
v 0.0036079 0.0250000 -0.0000193
v 0.0036079 0.0000000 -0.0000193
v 0.0038037 0.0250000 -0.0000048
v 0.0038037 0.0000000 -0.0000048
v 0.0040000 0.0000000 -0.0000000
v 0.0040000 0.0250000 -0.0000000
v 0.0560000 0.0000000 -0.0000000
v 0.0560000 0.0250000 -0.0000000
v 0.0000000 0.0000000 -0.0360000
v 0.0000000 0.0250000 -0.0360000
v 0.0561963 0.0250000 -0.0000048
v 0.0561963 0.0000000 -0.0000048
v 0.0563921 0.0000000 -0.0000193
v 0.0563921 0.0250000 -0.0000193
v 0.0565869 0.0000000 -0.0000433
v 0.0565869 0.0250000 -0.0000433
v 0.0567804 0.0250000 -0.0000769
v 0.0567804 0.0000000 -0.0000769
v 0.0569719 0.0250000 -0.0001199
v 0.0569719 0.0000000 -0.0001199
v 0.0571611 0.0250000 -0.0001722
v 0.0571611 0.0000000 -0.0001722
v 0.0573476 0.0000000 -0.0002338
v 0.0573476 0.0250000 -0.0002338
v 0.0575307 0.0250000 -0.0003045
v 0.0575307 0.0000000 -0.0003045
v 0.0577102 0.0250000 -0.0003840
v 0.0577102 0.0000000 -0.0003840
v 0.0578856 0.0250000 -0.0004723
v 0.0578856 0.0000000 -0.0004723
v 0.0580564 0.0250000 -0.0005691
v 0.0580564 0.0000000 -0.0005691
v 0.0582223 0.0000000 -0.0006741
v 0.0582223 0.0250000 -0.0006741
v 0.0583828 0.0000000 -0.0007872
v 0.0583828 0.0250000 -0.0007872
v 0.0585376 0.0250000 -0.0009080
v 0.0585376 0.0000000 -0.0009080
v 0.0586862 0.0250000 -0.0010362
v 0.0586862 0.0000000 -0.0010362
v 0.0588284 0.0250000 -0.0011716
v 0.0588284 0.0000000 -0.0011716
v 0.0589638 0.0250000 -0.0013138
v 0.0589638 0.0000000 -0.0013138
v 0.0590920 0.0000000 -0.0014624
v 0.0590920 0.0250000 -0.0014624
v 0.0592128 0.0250000 -0.0016172
v 0.0592128 0.0000000 -0.0016172
v 0.0593259 0.0250000 -0.0017777
v 0.0593259 0.0000000 -0.0017777
v 0.0594309 0.0250000 -0.0019436
v 0.0594309 0.0000000 -0.0019436
v 0.0595277 0.0250000 -0.0021144
v 0.0595277 0.0000000 -0.0021144
v 0.0596160 0.0250000 -0.0022898
v 0.0596160 0.0000000 -0.0022898
v 0.0596955 0.0000000 -0.0024693
v 0.0596955 0.0250000 -0.0024693
v 0.0597662 0.0250000 -0.0026524
v 0.0597662 0.0000000 -0.0026524
v 0.0598278 0.0250000 -0.0028389
v 0.0598278 0.0000000 -0.0028389
v 0.0598801 0.0250000 -0.0030281
v 0.0598801 0.0000000 -0.0030281
v 0.0599231 0.0250000 -0.0032196
v 0.0599231 0.0000000 -0.0032196
v 0.0599567 0.0250000 -0.0034131
v 0.0599567 0.0000000 -0.0034131
v 0.0599807 0.0250000 -0.0036079
v 0.0599807 0.0000000 -0.0036079
v 0.0599952 0.0250000 -0.0038037
v 0.0599952 0.0000000 -0.0038037
v 0.0600000 0.0000000 -0.0040000
v 0.0600000 0.0250000 -0.0040000
v 0.0038037 0.0250000 -0.0399952
v 0.0040000 0.0250000 -0.0400000
v 0.0040000 0.0000000 -0.0400000
v 0.0038037 0.0000000 -0.0399952
v 0.0036079 0.0250000 -0.0399807
v 0.0036079 0.0000000 -0.0399807
v 0.0034131 0.0000000 -0.0399567
v 0.0034131 0.0250000 -0.0399567
v 0.0032196 0.0250000 -0.0399231
v 0.0032196 0.0000000 -0.0399231
v 0.0030281 0.0000000 -0.0398801
v 0.0030281 0.0250000 -0.0398801
v 0.0028389 0.0000000 -0.0398278
v 0.0028389 0.0250000 -0.0398278
v 0.0026524 0.0000000 -0.0397662
v 0.0026524 0.0250000 -0.0397662
v 0.0024693 0.0250000 -0.0396955
v 0.0024693 0.0000000 -0.0396955
v 0.0022898 0.0000000 -0.0396160
v 0.0022898 0.0250000 -0.0396160
v 0.0021144 0.0250000 -0.0395277
v 0.0021144 0.0000000 -0.0395277
v 0.0019436 0.0250000 -0.0394309
v 0.0019436 0.0000000 -0.0394309
v 0.0017777 0.0250000 -0.0393259
v 0.0017777 0.0000000 -0.0393259
v 0.0016172 0.0250000 -0.0392128
v 0.0016172 0.0000000 -0.0392128
v 0.0014624 0.0250000 -0.0390920
v 0.0014624 0.0000000 -0.0390920
v 0.0013138 0.0000000 -0.0389638
v 0.0013138 0.0250000 -0.0389638
v 0.0011716 0.0000000 -0.0388284
v 0.0011716 0.0250000 -0.0388284
v 0.0010362 0.0250000 -0.0386862
v 0.0010362 0.0000000 -0.0386862
v 0.0009080 0.0250000 -0.0385376
v 0.0009080 0.0000000 -0.0385376
v 0.0007872 0.0250000 -0.0383828
v 0.0007872 0.0000000 -0.0383828
v 0.0006741 0.0250000 -0.0382223
v 0.0006741 0.0000000 -0.0382223
v 0.0005691 0.0250000 -0.0380564
v 0.0005691 0.0000000 -0.0380564
v 0.0004723 0.0000000 -0.0378856
v 0.0004723 0.0250000 -0.0378856
v 0.0003840 0.0000000 -0.0377102
v 0.0003840 0.0250000 -0.0377102
v 0.0003045 0.0250000 -0.0375307
v 0.0003045 0.0000000 -0.0375307
v 0.0002338 0.0250000 -0.0373476
v 0.0002338 0.0000000 -0.0373476
v 0.0001722 0.0250000 -0.0371611
v 0.0001722 0.0000000 -0.0371611
v 0.0001199 0.0250000 -0.0369719
v 0.0001199 0.0000000 -0.0369719
v 0.0000769 0.0250000 -0.0367804
v 0.0000769 0.0000000 -0.0367804
v 0.0000433 0.0250000 -0.0365869
v 0.0000433 0.0000000 -0.0365869
v 0.0000193 0.0250000 -0.0363921
v 0.0000193 0.0000000 -0.0363921
v 0.0000048 0.0250000 -0.0361963
v 0.0000048 0.0000000 -0.0361963
v 0.0560000 0.0250000 -0.0400000
v 0.0560000 0.0000000 -0.0400000
v 0.0600000 0.0000000 -0.0360000
v 0.0600000 0.0250000 -0.0360000
v 0.0599952 0.0250000 -0.0361963
v 0.0599952 0.0000000 -0.0361963
v 0.0599807 0.0250000 -0.0363921
v 0.0599807 0.0000000 -0.0363921
v 0.0599567 0.0000000 -0.0365869
v 0.0599567 0.0250000 -0.0365869
v 0.0599231 0.0250000 -0.0367804
v 0.0599231 0.0000000 -0.0367804
v 0.0598801 0.0250000 -0.0369719
v 0.0598801 0.0000000 -0.0369719
v 0.0598278 0.0250000 -0.0371611
v 0.0598278 0.0000000 -0.0371611
v 0.0597662 0.0250000 -0.0373476
v 0.0597662 0.0000000 -0.0373476
v 0.0596955 0.0250000 -0.0375307
v 0.0596955 0.0000000 -0.0375307
v 0.0596160 0.0000000 -0.0377102
v 0.0596160 0.0250000 -0.0377102
v 0.0595277 0.0250000 -0.0378856
v 0.0595277 0.0000000 -0.0378856
v 0.0594309 0.0000000 -0.0380564
v 0.0594309 0.0250000 -0.0380564
v 0.0593259 0.0000000 -0.0382223
v 0.0593259 0.0250000 -0.0382223
v 0.0592128 0.0250000 -0.0383828
v 0.0592128 0.0000000 -0.0383828
v 0.0590920 0.0000000 -0.0385376
v 0.0590920 0.0250000 -0.0385376
v 0.0589638 0.0000000 -0.0386862
v 0.0589638 0.0250000 -0.0386862
v 0.0588284 0.0250000 -0.0388284
v 0.0588284 0.0000000 -0.0388284
v 0.0586862 0.0250000 -0.0389638
v 0.0586862 0.0000000 -0.0389638
v 0.0585376 0.0250000 -0.0390920
v 0.0585376 0.0000000 -0.0390920
v 0.0583828 0.0000000 -0.0392128
v 0.0583828 0.0250000 -0.0392128
v 0.0582223 0.0250000 -0.0393259
v 0.0582223 0.0000000 -0.0393259
v 0.0580564 0.0250000 -0.0394309
v 0.0580564 0.0000000 -0.0394309
v 0.0578856 0.0250000 -0.0395277
v 0.0578856 0.0000000 -0.0395277
v 0.0577102 0.0000000 -0.0396160
v 0.0577102 0.0250000 -0.0396160
v 0.0575307 0.0250000 -0.0396955
v 0.0575307 0.0000000 -0.0396955
v 0.0573476 0.0250000 -0.0397662
v 0.0573476 0.0000000 -0.0397662
v 0.0571611 0.0250000 -0.0398278
v 0.0571611 0.0000000 -0.0398278
v 0.0569719 0.0250000 -0.0398801
v 0.0569719 0.0000000 -0.0398801
v 0.0567804 0.0250000 -0.0399231
v 0.0567804 0.0000000 -0.0399231
v 0.0565869 0.0000000 -0.0399567
v 0.0565869 0.0250000 -0.0399567
v 0.0563921 0.0250000 -0.0399807
v 0.0563921 0.0000000 -0.0399807
v 0.0561963 0.0250000 -0.0399952
v 0.0561963 0.0000000 -0.0399952
f 1 2 3
f 1 3 4
f 1 4 5
f 6 5 7
f 6 1 5
f 8 6 7
f 9 7 10
f 9 8 7
f 11 10 12
f 11 9 10
f 13 12 14
f 13 14 15
f 13 11 12
f 16 13 15
f 17 16 15
f 17 15 18
f 19 17 18
f 19 18 20
f 21 19 20
f 21 20 22
f 23 21 22
f 23 22 24
f 23 24 25
f 26 23 25
f 26 25 27
f 28 26 27
f 29 28 27
f 29 27 30
f 31 29 30
f 31 30 32
f 33 31 32
f 33 32 34
f 35 33 34
f 35 34 36
f 35 36 37
f 38 35 37
f 39 38 37
f 39 37 40
f 41 39 40
f 41 40 42
f 43 42 44
f 43 41 42
f 45 43 44
f 45 44 46
f 47 46 48
f 47 48 49
f 47 45 46
f 50 47 49
f 51 49 52
f 51 50 49
f 53 52 54
f 53 51 52
f 55 54 56
f 55 53 54
f 57 56 58
f 57 55 56
f 59 58 60
f 59 57 58
f 61 60 62
f 61 59 60
f 63 62 64
f 63 64 65
f 63 61 62
f 66 63 65
f 67 68 65
f 65 68 66
f 69 3 70
f 3 2 70
f 71 68 67
f 71 67 72
f 71 72 73
f 74 73 75
f 74 71 73
f 76 74 75
f 77 75 78
f 77 76 75
f 79 78 80
f 79 77 78
f 81 80 82
f 81 82 83
f 81 79 80
f 84 81 83
f 85 84 83
f 85 83 86
f 87 85 86
f 87 86 88
f 89 87 88
f 89 88 90
f 91 89 90
f 91 90 92
f 91 92 93
f 94 91 93
f 94 93 95
f 96 94 95
f 97 96 95
f 97 95 98
f 99 97 98
f 99 98 100
f 101 99 100
f 101 100 102
f 103 101 102
f 103 102 104
f 103 104 105
f 106 103 105
f 107 106 105
f 107 105 108
f 109 107 108
f 109 108 110
f 111 110 112
f 111 109 110
f 113 111 112
f 113 112 114
f 115 114 116
f 115 116 117
f 115 113 114
f 118 115 117
f 119 117 120
f 119 118 117
f 121 120 122
f 121 119 120
f 123 122 124
f 123 121 122
f 125 124 126
f 125 123 124
f 127 126 128
f 127 125 126
f 129 128 130
f 129 127 128
f 131 130 132
f 131 132 133
f 131 129 130
f 134 131 133
f 135 136 137
f 135 137 138
f 139 138 140
f 139 140 141
f 139 135 138
f 142 139 141
f 143 141 144
f 143 144 145
f 143 142 141
f 146 145 147
f 146 143 145
f 148 147 149
f 148 146 147
f 150 148 149
f 151 150 149
f 151 149 152
f 151 152 153
f 154 151 153
f 155 154 153
f 155 153 156
f 157 155 156
f 157 156 158
f 159 157 158
f 159 158 160
f 161 159 160
f 161 160 162
f 163 161 162
f 163 162 164
f 163 164 165
f 166 163 165
f 166 165 167
f 168 166 167
f 169 168 167
f 169 167 170
f 171 169 170
f 171 170 172
f 173 171 172
f 173 172 174
f 175 173 174
f 175 174 176
f 177 176 178
f 177 178 179
f 177 175 176
f 180 179 181
f 180 177 179
f 182 180 181
f 183 181 184
f 183 182 181
f 185 184 186
f 185 183 184
f 187 186 188
f 187 185 186
f 189 188 190
f 189 187 188
f 191 190 192
f 191 189 190
f 193 192 194
f 193 191 192
f 195 194 196
f 195 193 194
f 197 196 198
f 197 198 69
f 197 195 196
f 70 197 69
f 199 200 137
f 199 137 136
f 133 201 202
f 134 133 202
f 203 202 201
f 203 201 204
f 205 204 206
f 205 206 207
f 205 203 204
f 208 205 207
f 209 207 210
f 209 208 207
f 211 210 212
f 211 209 210
f 213 212 214
f 213 211 212
f 215 214 216
f 215 213 214
f 217 216 218
f 217 218 219
f 217 215 216
f 220 217 219
f 221 220 219
f 221 219 222
f 221 222 223
f 224 221 223
f 224 223 225
f 226 224 225
f 227 226 225
f 227 225 228
f 227 228 229
f 230 227 229
f 230 229 231
f 232 230 231
f 233 232 231
f 233 231 234
f 235 233 234
f 235 234 236
f 237 235 236
f 237 236 238
f 237 238 239
f 240 237 239
f 241 240 239
f 241 239 242
f 243 242 244
f 243 241 242
f 245 244 246
f 245 246 247
f 245 243 244
f 248 245 247
f 249 248 247
f 249 247 250
f 251 250 252
f 251 249 250
f 253 252 254
f 253 251 252
f 255 254 256
f 255 253 254
f 257 256 258
f 257 258 259
f 257 255 256
f 260 257 259
f 261 259 262
f 261 260 259
f 263 262 264
f 263 261 262
f 199 264 200
f 199 263 264
f 38 33 35
f 28 29 31
f 28 31 33
f 41 38 39
f 41 33 38
f 45 41 43
f 21 23 26
f 21 26 28
f 47 41 45
f 19 28 33
f 19 33 41
f 19 21 28
f 51 47 50
f 16 17 19
f 57 51 53
f 57 53 55
f 9 11 13
f 9 13 16
f 9 41 47
f 9 19 41
f 9 16 19
f 61 57 59
f 61 47 51
f 61 9 47
f 61 51 57
f 2 1 6
f 2 6 8
f 2 8 9
f 66 61 63
f 66 2 9
f 66 9 61
f 191 193 195
f 191 195 197
f 187 191 197
f 187 189 191
f 185 187 197
f 183 185 197
f 180 182 183
f 177 180 183
f 173 177 183
f 173 175 177
f 169 183 197
f 169 171 173
f 169 173 183
f 163 166 168
f 163 168 169
f 163 169 197
f 161 197 70
f 161 163 197
f 159 161 70
f 157 159 70
f 154 155 157
f 151 157 70
f 151 154 157
f 150 151 70
f 148 150 70
f 146 148 70
f 142 143 146
f 135 139 142
f 135 142 146
f 136 70 2
f 136 146 70
f 136 135 146
f 136 2 66
f 74 68 71
f 76 68 74
f 77 68 76
f 79 68 77
f 81 68 79
f 85 81 84
f 85 68 81
f 87 68 85
f 89 68 87
f 91 68 89
f 96 91 94
f 96 68 91
f 99 96 97
f 101 68 96
f 101 96 99
f 107 101 103
f 107 103 106
f 107 68 101
f 109 68 107
f 113 68 109
f 113 109 111
f 115 68 113
f 119 115 118
f 125 115 119
f 125 119 121
f 125 121 123
f 129 125 127
f 131 125 129
f 134 68 115
f 134 115 125
f 134 125 131
f 199 68 134
f 199 66 68
f 199 136 66
f 199 134 202
f 263 199 202
f 205 202 203
f 261 263 202
f 257 260 261
f 211 208 209
f 255 257 261
f 213 202 205
f 213 208 211
f 213 205 208
f 217 202 213
f 217 213 215
f 220 261 202
f 220 255 261
f 220 202 217
f 220 251 253
f 220 253 255
f 245 248 249
f 245 249 251
f 243 245 251
f 227 224 226
f 240 243 251
f 240 241 243
f 230 220 221
f 230 221 224
f 230 224 227
f 235 237 240
f 233 251 220
f 233 220 230
f 233 230 232
f 233 240 251
f 233 235 240
f 98 102 100
f 110 104 102
f 110 105 104
f 110 108 105
f 110 102 98
f 93 98 95
f 90 93 92
f 90 98 93
f 116 112 110
f 116 114 112
f 86 90 88
f 86 98 90
f 120 117 116
f 80 83 82
f 80 86 83
f 78 110 98
f 78 116 110
f 78 98 86
f 78 86 80
f 128 124 122
f 128 126 124
f 73 78 75
f 132 122 120
f 132 130 128
f 132 120 116
f 132 116 78
f 132 128 122
f 67 73 72
f 67 78 73
f 67 132 78
f 133 132 67
f 212 206 204
f 212 207 206
f 212 210 207
f 214 212 204
f 214 204 201
f 219 214 201
f 219 216 214
f 219 218 216
f 223 222 219
f 225 219 201
f 225 223 219
f 231 229 228
f 234 231 228
f 234 228 225
f 238 236 234
f 239 234 225
f 239 238 234
f 244 225 201
f 244 239 225
f 244 242 239
f 247 246 244
f 250 244 201
f 250 247 244
f 252 250 201
f 254 252 201
f 256 254 201
f 259 258 256
f 264 259 256
f 264 262 259
f 200 133 67
f 200 256 201
f 200 264 256
f 200 201 133
f 62 65 64
f 60 65 62
f 58 65 60
f 54 58 56
f 54 65 58
f 52 65 54
f 46 49 48
f 46 52 49
f 44 52 46
f 42 52 44
f 37 42 40
f 37 65 52
f 37 52 42
f 34 37 36
f 32 37 34
f 32 65 37
f 30 65 32
f 27 65 30
f 24 65 27
f 24 27 25
f 22 65 24
f 18 22 20
f 15 22 18
f 12 15 14
f 10 22 15
f 10 15 12
f 5 10 7
f 5 22 10
f 4 22 5
f 3 65 22
f 3 22 4
f 137 65 3
f 137 67 65
f 137 3 69
f 137 200 67
f 196 69 198
f 194 69 196
f 141 140 138
f 149 144 141
f 149 145 144
f 149 147 145
f 186 69 194
f 186 190 188
f 186 192 190
f 186 194 192
f 153 137 69
f 153 138 137
f 153 152 149
f 153 141 138
f 153 149 141
f 179 184 181
f 164 156 153
f 164 158 156
f 164 160 158
f 164 162 160
f 172 176 174
f 172 178 176
f 172 179 178
f 172 186 184
f 172 184 179
f 165 164 153
f 167 172 170
f 167 69 186
f 167 153 69
f 167 186 172
f 167 165 153
