# Open Tray — generated by Menno Creator Kit
# Coordinates are metres; FreeCAD Z-up becomes Godot Y-up.
o Open_Tray
v 0.0000072 0.0120000 -0.0057056
v 0.0000000 0.0120000 -0.0060000
v 0.0000000 0.0000000 -0.0060000
v 0.0000072 0.0000000 -0.0057056
v 0.0000289 0.0120000 -0.0054119
v 0.0000289 0.0000000 -0.0054119
v 0.0000649 0.0120000 -0.0051196
v 0.0000649 0.0000000 -0.0051196
v 0.0001153 0.0120000 -0.0048295
v 0.0001153 0.0000000 -0.0048295
v 0.0001798 0.0120000 -0.0045421
v 0.0001798 0.0000000 -0.0045421
v 0.0002584 0.0120000 -0.0042583
v 0.0002584 0.0000000 -0.0042583
v 0.0003507 0.0120000 -0.0039787
v 0.0003507 0.0000000 -0.0039787
v 0.0004567 0.0120000 -0.0037039
v 0.0004567 0.0000000 -0.0037039
v 0.0005761 0.0120000 -0.0034347
v 0.0005761 0.0000000 -0.0034347
v 0.0007085 0.0120000 -0.0031716
v 0.0007085 0.0000000 -0.0031716
v 0.0008536 0.0120000 -0.0029154
v 0.0008536 0.0000000 -0.0029154
v 0.0010112 0.0120000 -0.0026666
v 0.0010112 0.0000000 -0.0026666
v 0.0011808 0.0120000 -0.0024258
v 0.0011808 0.0000000 -0.0024258
v 0.0013619 0.0120000 -0.0021936
v 0.0013619 0.0000000 -0.0021936
v 0.0015543 0.0120000 -0.0019706
v 0.0015543 0.0000000 -0.0019706
v 0.0017574 0.0120000 -0.0017574
v 0.0017574 0.0000000 -0.0017574
v 0.0019706 0.0120000 -0.0015543
v 0.0019706 0.0000000 -0.0015543
v 0.0021936 0.0120000 -0.0013619
v 0.0021936 0.0000000 -0.0013619
v 0.0024258 0.0000000 -0.0011808
v 0.0024258 0.0120000 -0.0011808
v 0.0026666 0.0120000 -0.0010112
v 0.0026666 0.0000000 -0.0010112
v 0.0029154 0.0120000 -0.0008536
v 0.0029154 0.0000000 -0.0008536
v 0.0031716 0.0000000 -0.0007085
v 0.0031716 0.0120000 -0.0007085
v 0.0034347 0.0120000 -0.0005761
v 0.0034347 0.0000000 -0.0005761
v 0.0037039 0.0120000 -0.0004567
v 0.0037039 0.0000000 -0.0004567
v 0.0039787 0.0120000 -0.0003507
v 0.0039787 0.0000000 -0.0003507
v 0.0042583 0.0120000 -0.0002584
v 0.0042583 0.0000000 -0.0002584
v 0.0045421 0.0120000 -0.0001798
v 0.0045421 0.0000000 -0.0001798
v 0.0048295 0.0120000 -0.0001153
v 0.0048295 0.0000000 -0.0001153
v 0.0051196 0.0000000 -0.0000649
v 0.0051196 0.0120000 -0.0000649
v 0.0054119 0.0000000 -0.0000289
v 0.0054119 0.0120000 -0.0000289
v 0.0057056 0.0120000 -0.0000072
v 0.0057056 0.0000000 -0.0000072
v 0.0060000 0.0120000 -0.0000000
v 0.0060000 0.0000000 -0.0000000
v 0.0037771 0.0120000 -0.0039853
v 0.0038787 0.0120000 -0.0038787
v 0.0039853 0.0120000 -0.0037771
v 0.0040968 0.0120000 -0.0036810
v 0.0036810 0.0120000 -0.0040968
v 0.0042129 0.0120000 -0.0035904
v 0.0035904 0.0120000 -0.0042129
v 0.0043333 0.0120000 -0.0035056
v 0.0035056 0.0120000 -0.0043333
v 0.0044577 0.0120000 -0.0034268
v 0.0034268 0.0120000 -0.0044577
v 0.0045858 0.0120000 -0.0033542
v 0.0033542 0.0120000 -0.0045858
v 0.0047173 0.0120000 -0.0032880
v 0.0032880 0.0120000 -0.0047173
v 0.0048519 0.0120000 -0.0032284
v 0.0032284 0.0120000 -0.0048519
v 0.0049893 0.0120000 -0.0031754
v 0.0031754 0.0120000 -0.0049893
v 0.0051291 0.0120000 -0.0031292
v 0.0031292 0.0120000 -0.0051291
v 0.0052711 0.0120000 -0.0030899
v 0.0030899 0.0120000 -0.0052711
v 0.0054147 0.0120000 -0.0030576
v 0.0030576 0.0120000 -0.0054147
v 0.0055598 0.0120000 -0.0030325
v 0.0030325 0.0120000 -0.0055598
v 0.0057059 0.0120000 -0.0030144
v 0.0030144 0.0120000 -0.0057059
v 0.0058528 0.0120000 -0.0030036
v 0.0030036 0.0120000 -0.0058528
v 0.0060000 0.0120000 -0.0030000
v 0.0030000 0.0120000 -0.0060000
v 0.0030000 0.0120000 -0.0540000
v 0.0000000 0.0120000 -0.0540000
v 0.0030036 0.0120000 -0.0541472
v 0.0000072 0.0120000 -0.0542944
v 0.0030144 0.0120000 -0.0542941
v 0.0000649 0.0120000 -0.0548804
v 0.0000289 0.0120000 -0.0545881
v 0.0030325 0.0120000 -0.0544402
v 0.0030576 0.0120000 -0.0545853
v 0.0001153 0.0120000 -0.0551705
v 0.0030899 0.0120000 -0.0547289
v 0.0001798 0.0120000 -0.0554579
v 0.0031292 0.0120000 -0.0548709
v 0.0002584 0.0120000 -0.0557417
v 0.0031754 0.0120000 -0.0550107
v 0.0003507 0.0120000 -0.0560213
v 0.0032284 0.0120000 -0.0551481
v 0.0005761 0.0120000 -0.0565653
v 0.0004567 0.0120000 -0.0562961
v 0.0032880 0.0120000 -0.0552827
v 0.0033542 0.0120000 -0.0554142
v 0.0007085 0.0120000 -0.0568284
v 0.0034268 0.0120000 -0.0555423
v 0.0008536 0.0120000 -0.0570846
v 0.0035056 0.0120000 -0.0556667
v 0.0010112 0.0120000 -0.0573334
v 0.0035904 0.0120000 -0.0557871
v 0.0013619 0.0120000 -0.0578064
v 0.0011808 0.0120000 -0.0575742
v 0.0036810 0.0120000 -0.0559032
v 0.0037771 0.0120000 -0.0560147
v 0.0015543 0.0120000 -0.0580294
v 0.0017574 0.0120000 -0.0582426
v 0.0038787 0.0120000 -0.0561213
v 0.0019706 0.0120000 -0.0584457
v 0.0039853 0.0120000 -0.0562229
v 0.0021936 0.0120000 -0.0586381
v 0.0040968 0.0120000 -0.0563190
v 0.0024258 0.0120000 -0.0588192
v 0.0042129 0.0120000 -0.0564096
v 0.0043333 0.0120000 -0.0564944
v 0.0026666 0.0120000 -0.0589888
v 0.0029154 0.0120000 -0.0591464
v 0.0044577 0.0120000 -0.0565732
v 0.0031716 0.0120000 -0.0592915
v 0.0045858 0.0120000 -0.0566458
v 0.0034347 0.0120000 -0.0594239
v 0.0047173 0.0120000 -0.0567120
v 0.0037039 0.0120000 -0.0595433
v 0.0048519 0.0120000 -0.0567716
v 0.0039787 0.0120000 -0.0596493
v 0.0049893 0.0120000 -0.0568246
v 0.0042583 0.0120000 -0.0597416
v 0.0051291 0.0120000 -0.0568708
v 0.0052711 0.0120000 -0.0569101
v 0.0045421 0.0120000 -0.0598202
v 0.0054147 0.0120000 -0.0569424
v 0.0048295 0.0120000 -0.0598847
v 0.0051196 0.0120000 -0.0599351
v 0.0055598 0.0120000 -0.0569675
v 0.0054119 0.0120000 -0.0599711
v 0.0057059 0.0120000 -0.0569856
v 0.0057056 0.0120000 -0.0599928
v 0.0058528 0.0120000 -0.0569964
v 0.0060000 0.0120000 -0.0570000
v 0.0060000 0.0120000 -0.0600000
v 0.0740000 0.0120000 -0.0030000
v 0.0740000 0.0120000 -0.0000000
v 0.0741472 0.0120000 -0.0030036
v 0.0742944 0.0120000 -0.0000072
v 0.0742941 0.0120000 -0.0030144
v 0.0745881 0.0120000 -0.0000289
v 0.0744402 0.0120000 -0.0030325
v 0.0748804 0.0120000 -0.0000649
v 0.0745853 0.0120000 -0.0030576
v 0.0751705 0.0120000 -0.0001153
v 0.0747289 0.0120000 -0.0030899
v 0.0754579 0.0120000 -0.0001798
v 0.0748709 0.0120000 -0.0031292
v 0.0757417 0.0120000 -0.0002584
v 0.0760213 0.0120000 -0.0003507
v 0.0750107 0.0120000 -0.0031754
v 0.0751481 0.0120000 -0.0032284
v 0.0762961 0.0120000 -0.0004567
v 0.0765653 0.0120000 -0.0005761
v 0.0752827 0.0120000 -0.0032880
v 0.0754142 0.0120000 -0.0033542
v 0.0768284 0.0120000 -0.0007085
v 0.0755423 0.0120000 -0.0034268
v 0.0770846 0.0120000 -0.0008536
v 0.0756667 0.0120000 -0.0035056
v 0.0773334 0.0120000 -0.0010112
v 0.0757871 0.0120000 -0.0035904
v 0.0775742 0.0120000 -0.0011808
v 0.0759032 0.0120000 -0.0036810
v 0.0778064 0.0120000 -0.0013619
v 0.0760147 0.0120000 -0.0037771
v 0.0780294 0.0120000 -0.0015543
v 0.0761213 0.0120000 -0.0038787
v 0.0782426 0.0120000 -0.0017574
v 0.0784457 0.0120000 -0.0019706
v 0.0762229 0.0120000 -0.0039853
v 0.0786381 0.0120000 -0.0021936
v 0.0763190 0.0120000 -0.0040968
v 0.0764096 0.0120000 -0.0042129
v 0.0788192 0.0120000 -0.0024258
v 0.0764944 0.0120000 -0.0043333
v 0.0789888 0.0120000 -0.0026666
v 0.0791464 0.0120000 -0.0029154
v 0.0765732 0.0120000 -0.0044577
v 0.0792915 0.0120000 -0.0031716
v 0.0766458 0.0120000 -0.0045858
v 0.0794239 0.0120000 -0.0034347
v 0.0767120 0.0120000 -0.0047173
v 0.0767716 0.0120000 -0.0048519
v 0.0795433 0.0120000 -0.0037039
v 0.0796493 0.0120000 -0.0039787
v 0.0768246 0.0120000 -0.0049893
v 0.0797416 0.0120000 -0.0042583
v 0.0768708 0.0120000 -0.0051291
v 0.0769101 0.0120000 -0.0052711
v 0.0798202 0.0120000 -0.0045421
v 0.0798847 0.0120000 -0.0048295
v 0.0769424 0.0120000 -0.0054147
v 0.0799351 0.0120000 -0.0051196
v 0.0769675 0.0120000 -0.0055598
v 0.0799711 0.0120000 -0.0054119
v 0.0769856 0.0120000 -0.0057059
v 0.0769964 0.0120000 -0.0058528
v 0.0799928 0.0120000 -0.0057056
v 0.0800000 0.0120000 -0.0060000
v 0.0770000 0.0120000 -0.0060000
v 0.0800000 0.0120000 -0.0540000
v 0.0770000 0.0120000 -0.0540000
v 0.0740000 0.0120000 -0.0600000
v 0.0740000 0.0120000 -0.0570000
v 0.0741472 0.0120000 -0.0569964
v 0.0799928 0.0120000 -0.0542944
v 0.0769964 0.0120000 -0.0541472
v 0.0742944 0.0120000 -0.0599928
v 0.0799711 0.0120000 -0.0545881
v 0.0769856 0.0120000 -0.0542941
v 0.0745881 0.0120000 -0.0599711
v 0.0742941 0.0120000 -0.0569856
v 0.0799351 0.0120000 -0.0548804
v 0.0769424 0.0120000 -0.0545853
v 0.0769675 0.0120000 -0.0544402
v 0.0748804 0.0120000 -0.0599351
v 0.0744402 0.0120000 -0.0569675
v 0.0798847 0.0120000 -0.0551705
v 0.0769101 0.0120000 -0.0547289
v 0.0751705 0.0120000 -0.0598847
v 0.0745853 0.0120000 -0.0569424
v 0.0798202 0.0120000 -0.0554579
v 0.0768708 0.0120000 -0.0548709
v 0.0754579 0.0120000 -0.0598202
v 0.0747289 0.0120000 -0.0569101
v 0.0797416 0.0120000 -0.0557417
v 0.0757417 0.0120000 -0.0597416
v 0.0748709 0.0120000 -0.0568708
v 0.0796493 0.0120000 -0.0560213
v 0.0768246 0.0120000 -0.0550107
v 0.0767716 0.0120000 -0.0551481
v 0.0760213 0.0120000 -0.0596493
v 0.0750107 0.0120000 -0.0568246
v 0.0751481 0.0120000 -0.0567716
v 0.0795433 0.0120000 -0.0562961
v 0.0762961 0.0120000 -0.0595433
v 0.0794239 0.0120000 -0.0565653
v 0.0767120 0.0120000 -0.0552827
v 0.0765653 0.0120000 -0.0594239
v 0.0752827 0.0120000 -0.0567120
v 0.0792915 0.0120000 -0.0568284
v 0.0766458 0.0120000 -0.0554142
v 0.0768284 0.0120000 -0.0592915
v 0.0754142 0.0120000 -0.0566458
v 0.0791464 0.0120000 -0.0570846
v 0.0765732 0.0120000 -0.0555423
v 0.0764944 0.0120000 -0.0556667
v 0.0770846 0.0120000 -0.0591464
v 0.0755423 0.0120000 -0.0565732
v 0.0789888 0.0120000 -0.0573334
v 0.0773334 0.0120000 -0.0589888
v 0.0756667 0.0120000 -0.0564944
v 0.0775742 0.0120000 -0.0588192
v 0.0757871 0.0120000 -0.0564096
v 0.0759032 0.0120000 -0.0563190
v 0.0788192 0.0120000 -0.0575742
v 0.0764096 0.0120000 -0.0557871
v 0.0763190 0.0120000 -0.0559032
v 0.0786381 0.0120000 -0.0578064
v 0.0778064 0.0120000 -0.0586381
v 0.0784457 0.0120000 -0.0580294
v 0.0762229 0.0120000 -0.0560147
v 0.0780294 0.0120000 -0.0584457
v 0.0760147 0.0120000 -0.0562229
v 0.0782426 0.0120000 -0.0582426
v 0.0761213 0.0120000 -0.0561213
v 0.0740000 0.0000000 -0.0000000
v 0.0786381 0.0000000 -0.0021936
v 0.0784457 0.0000000 -0.0019706
v 0.0782426 0.0000000 -0.0017574
v 0.0778064 0.0000000 -0.0013619
v 0.0780294 0.0000000 -0.0015543
v 0.0773334 0.0000000 -0.0010112
v 0.0775742 0.0000000 -0.0011808
v 0.0791464 0.0000000 -0.0029154
v 0.0788192 0.0000000 -0.0024258
v 0.0789888 0.0000000 -0.0026666
v 0.0768284 0.0000000 -0.0007085
v 0.0770846 0.0000000 -0.0008536
v 0.0794239 0.0000000 -0.0034347
v 0.0792915 0.0000000 -0.0031716
v 0.0762961 0.0000000 -0.0004567
v 0.0765653 0.0000000 -0.0005761
v 0.0796493 0.0000000 -0.0039787
v 0.0795433 0.0000000 -0.0037039
v 0.0797416 0.0000000 -0.0042583
v 0.0757417 0.0000000 -0.0002584
v 0.0760213 0.0000000 -0.0003507
v 0.0799351 0.0000000 -0.0051196
v 0.0798202 0.0000000 -0.0045421
v 0.0798847 0.0000000 -0.0048295
v 0.0748804 0.0000000 -0.0000649
v 0.0754579 0.0000000 -0.0001798
v 0.0751705 0.0000000 -0.0001153
v 0.0799928 0.0000000 -0.0057056
v 0.0799711 0.0000000 -0.0054119
v 0.0742944 0.0000000 -0.0000072
v 0.0745881 0.0000000 -0.0000289
v 0.0800000 0.0000000 -0.0060000
v 0.0798847 0.0000000 -0.0551705
v 0.0799928 0.0000000 -0.0542944
v 0.0800000 0.0000000 -0.0540000
v 0.0799711 0.0000000 -0.0545881
v 0.0799351 0.0000000 -0.0548804
v 0.0798202 0.0000000 -0.0554579
v 0.0796493 0.0000000 -0.0560213
v 0.0797416 0.0000000 -0.0557417
v 0.0792915 0.0000000 -0.0568284
v 0.0795433 0.0000000 -0.0562961
v 0.0794239 0.0000000 -0.0565653
v 0.0789888 0.0000000 -0.0573334
v 0.0791464 0.0000000 -0.0570846
v 0.0780294 0.0000000 -0.0584457
v 0.0786381 0.0000000 -0.0578064
v 0.0788192 0.0000000 -0.0575742
v 0.0784457 0.0000000 -0.0580294
v 0.0782426 0.0000000 -0.0582426
v 0.0775742 0.0000000 -0.0588192
v 0.0778064 0.0000000 -0.0586381
v 0.0773334 0.0000000 -0.0589888
v 0.0770846 0.0000000 -0.0591464
v 0.0762961 0.0000000 -0.0595433
v 0.0765653 0.0000000 -0.0594239
v 0.0768284 0.0000000 -0.0592915
v 0.0760213 0.0000000 -0.0596493
v 0.0754579 0.0000000 -0.0598202
v 0.0757417 0.0000000 -0.0597416
v 0.0751705 0.0000000 -0.0598847
v 0.0748804 0.0000000 -0.0599351
v 0.0740000 0.0000000 -0.0600000
v 0.0745881 0.0000000 -0.0599711
v 0.0742944 0.0000000 -0.0599928
v 0.0060000 0.0000000 -0.0600000
v 0.0000000 0.0000000 -0.0540000
v 0.0054119 0.0000000 -0.0599711
v 0.0057056 0.0000000 -0.0599928
v 0.0048295 0.0000000 -0.0598847
v 0.0051196 0.0000000 -0.0599351
v 0.0001153 0.0000000 -0.0551705
v 0.0000289 0.0000000 -0.0545881
v 0.0000649 0.0000000 -0.0548804
v 0.0000072 0.0000000 -0.0542944
v 0.0045421 0.0000000 -0.0598202
v 0.0003507 0.0000000 -0.0560213
v 0.0001798 0.0000000 -0.0554579
v 0.0002584 0.0000000 -0.0557417
v 0.0037039 0.0000000 -0.0595433
v 0.0039787 0.0000000 -0.0596493
v 0.0042583 0.0000000 -0.0597416
v 0.0034347 0.0000000 -0.0594239
v 0.0005761 0.0000000 -0.0565653
v 0.0004567 0.0000000 -0.0562961
v 0.0031716 0.0000000 -0.0592915
v 0.0008536 0.0000000 -0.0570846
v 0.0007085 0.0000000 -0.0568284
v 0.0026666 0.0000000 -0.0589888
v 0.0029154 0.0000000 -0.0591464
v 0.0024258 0.0000000 -0.0588192
v 0.0011808 0.0000000 -0.0575742
v 0.0010112 0.0000000 -0.0573334
v 0.0021936 0.0000000 -0.0586381
v 0.0013619 0.0000000 -0.0578064
v 0.0019706 0.0000000 -0.0584457
v 0.0015543 0.0000000 -0.0580294
v 0.0017574 0.0000000 -0.0582426
v 0.0030000 0.0030000 -0.0060000
v 0.0030036 0.0030000 -0.0058528
v 0.0030144 0.0030000 -0.0057059
v 0.0030325 0.0030000 -0.0055598
v 0.0030576 0.0030000 -0.0054147
v 0.0030899 0.0030000 -0.0052711
v 0.0031292 0.0030000 -0.0051291
v 0.0031754 0.0030000 -0.0049893
v 0.0032284 0.0030000 -0.0048519
v 0.0032880 0.0030000 -0.0047173
v 0.0033542 0.0030000 -0.0045858
v 0.0034268 0.0030000 -0.0044577
v 0.0035056 0.0030000 -0.0043333
v 0.0035904 0.0030000 -0.0042129
v 0.0036810 0.0030000 -0.0040968
v 0.0037771 0.0030000 -0.0039853
v 0.0038787 0.0030000 -0.0038787
v 0.0039853 0.0030000 -0.0037771
v 0.0040968 0.0030000 -0.0036810
v 0.0042129 0.0030000 -0.0035904
v 0.0043333 0.0030000 -0.0035056
v 0.0044577 0.0030000 -0.0034268
v 0.0045858 0.0030000 -0.0033542
v 0.0047173 0.0030000 -0.0032880
v 0.0048519 0.0030000 -0.0032284
v 0.0049893 0.0030000 -0.0031754
v 0.0051291 0.0030000 -0.0031292
v 0.0052711 0.0030000 -0.0030899
v 0.0054147 0.0030000 -0.0030576
v 0.0055598 0.0030000 -0.0030325
v 0.0057059 0.0030000 -0.0030144
v 0.0058528 0.0030000 -0.0030036
v 0.0060000 0.0030000 -0.0030000
v 0.0740000 0.0030000 -0.0030000
v 0.0741472 0.0030000 -0.0030036
v 0.0742941 0.0030000 -0.0030144
v 0.0744402 0.0030000 -0.0030325
v 0.0745853 0.0030000 -0.0030576
v 0.0747289 0.0030000 -0.0030899
v 0.0748709 0.0030000 -0.0031292
v 0.0750107 0.0030000 -0.0031754
v 0.0751481 0.0030000 -0.0032284
v 0.0752827 0.0030000 -0.0032880
v 0.0754142 0.0030000 -0.0033542
v 0.0755423 0.0030000 -0.0034268
v 0.0756667 0.0030000 -0.0035056
v 0.0757871 0.0030000 -0.0035904
v 0.0759032 0.0030000 -0.0036810
v 0.0760147 0.0030000 -0.0037771
v 0.0761213 0.0030000 -0.0038787
v 0.0762229 0.0030000 -0.0039853
v 0.0763190 0.0030000 -0.0040968
v 0.0764096 0.0030000 -0.0042129
v 0.0764944 0.0030000 -0.0043333
v 0.0765732 0.0030000 -0.0044577
v 0.0766458 0.0030000 -0.0045858
v 0.0767120 0.0030000 -0.0047173
v 0.0767716 0.0030000 -0.0048519
v 0.0768246 0.0030000 -0.0049893
v 0.0768708 0.0030000 -0.0051291
v 0.0769101 0.0030000 -0.0052711
v 0.0769424 0.0030000 -0.0054147
v 0.0769675 0.0030000 -0.0055598
v 0.0769856 0.0030000 -0.0057059
v 0.0769964 0.0030000 -0.0058528
v 0.0770000 0.0030000 -0.0060000
v 0.0770000 0.0030000 -0.0540000
v 0.0769964 0.0030000 -0.0541472
v 0.0769856 0.0030000 -0.0542941
v 0.0769675 0.0030000 -0.0544402
v 0.0769424 0.0030000 -0.0545853
v 0.0769101 0.0030000 -0.0547289
v 0.0768708 0.0030000 -0.0548709
v 0.0768246 0.0030000 -0.0550107
v 0.0767716 0.0030000 -0.0551481
v 0.0767120 0.0030000 -0.0552827
v 0.0766458 0.0030000 -0.0554142
v 0.0765732 0.0030000 -0.0555423
v 0.0764944 0.0030000 -0.0556667
v 0.0764096 0.0030000 -0.0557871
v 0.0763190 0.0030000 -0.0559032
v 0.0762229 0.0030000 -0.0560147
v 0.0761213 0.0030000 -0.0561213
v 0.0760147 0.0030000 -0.0562229
v 0.0759032 0.0030000 -0.0563190
v 0.0757871 0.0030000 -0.0564096
v 0.0756667 0.0030000 -0.0564944
v 0.0755423 0.0030000 -0.0565732
v 0.0754142 0.0030000 -0.0566458
v 0.0752827 0.0030000 -0.0567120
v 0.0751481 0.0030000 -0.0567716
v 0.0750107 0.0030000 -0.0568246
v 0.0748709 0.0030000 -0.0568708
v 0.0747289 0.0030000 -0.0569101
v 0.0745853 0.0030000 -0.0569424
v 0.0744402 0.0030000 -0.0569675
v 0.0742941 0.0030000 -0.0569856
v 0.0741472 0.0030000 -0.0569964
v 0.0740000 0.0030000 -0.0570000
v 0.0060000 0.0030000 -0.0570000
v 0.0058528 0.0030000 -0.0569964
v 0.0057059 0.0030000 -0.0569856
v 0.0055598 0.0030000 -0.0569675
v 0.0054147 0.0030000 -0.0569424
v 0.0052711 0.0030000 -0.0569101
v 0.0051291 0.0030000 -0.0568708
v 0.0049893 0.0030000 -0.0568246
v 0.0048519 0.0030000 -0.0567716
v 0.0047173 0.0030000 -0.0567120
v 0.0045858 0.0030000 -0.0566458
v 0.0044577 0.0030000 -0.0565732
v 0.0043333 0.0030000 -0.0564944
v 0.0042129 0.0030000 -0.0564096
v 0.0040968 0.0030000 -0.0563190
v 0.0039853 0.0030000 -0.0562229
v 0.0038787 0.0030000 -0.0561213
v 0.0037771 0.0030000 -0.0560147
v 0.0036810 0.0030000 -0.0559032
v 0.0035904 0.0030000 -0.0557871
v 0.0035056 0.0030000 -0.0556667
v 0.0034268 0.0030000 -0.0555423
v 0.0033542 0.0030000 -0.0554142
v 0.0032880 0.0030000 -0.0552827
v 0.0032284 0.0030000 -0.0551481
v 0.0031754 0.0030000 -0.0550107
v 0.0031292 0.0030000 -0.0548709
v 0.0030899 0.0030000 -0.0547289
v 0.0030576 0.0030000 -0.0545853
v 0.0030325 0.0030000 -0.0544402
v 0.0030144 0.0030000 -0.0542941
v 0.0030036 0.0030000 -0.0541472
v 0.0030000 0.0030000 -0.0540000
f 1 2 3
f 1 3 4
f 5 4 6
f 5 1 4
f 7 6 8
f 7 5 6
f 9 8 10
f 9 7 8
f 11 10 12
f 11 9 10
f 13 12 14
f 13 11 12
f 15 14 16
f 15 13 14
f 17 16 18
f 17 15 16
f 19 17 18
f 19 18 20
f 21 19 20
f 21 20 22
f 23 21 22
f 23 22 24
f 25 23 24
f 25 24 26
f 27 25 26
f 27 26 28
f 29 27 28
f 29 28 30
f 31 29 30
f 31 30 32
f 33 31 32
f 33 32 34
f 35 33 34
f 35 34 36
f 37 35 36
f 37 36 38
f 37 38 39
f 40 37 39
f 41 40 39
f 41 39 42
f 43 42 44
f 43 44 45
f 43 41 42
f 46 43 45
f 47 45 48
f 47 46 45
f 49 48 50
f 49 47 48
f 51 50 52
f 51 49 50
f 53 52 54
f 53 51 52
f 55 54 56
f 55 53 54
f 57 56 58
f 57 58 59
f 57 55 56
f 60 59 61
f 60 57 59
f 62 60 61
f 63 61 64
f 63 62 61
f 65 63 64
f 65 64 66
f 67 33 68
f 67 31 33
f 69 68 33
f 69 33 35
f 69 35 37
f 70 69 37
f 71 29 31
f 71 31 67
f 72 37 40
f 72 70 37
f 73 29 71
f 73 25 27
f 73 27 29
f 74 40 41
f 74 41 43
f 74 72 40
f 75 25 73
f 76 74 43
f 77 23 25
f 77 25 75
f 78 43 46
f 78 46 47
f 78 76 43
f 79 23 77
f 79 21 23
f 80 78 47
f 81 17 19
f 81 19 21
f 81 21 79
f 82 47 49
f 82 80 47
f 83 17 81
f 84 49 51
f 84 82 49
f 85 13 15
f 85 15 17
f 85 17 83
f 86 51 53
f 86 53 55
f 86 84 51
f 87 11 13
f 87 13 85
f 88 86 55
f 89 11 87
f 90 55 57
f 90 88 55
f 91 9 11
f 91 11 89
f 92 57 60
f 92 60 62
f 92 90 57
f 93 7 9
f 93 9 91
f 94 92 62
f 95 5 7
f 95 7 93
f 96 62 63
f 96 63 65
f 96 94 62
f 97 2 1
f 97 1 5
f 97 5 95
f 98 96 65
f 99 2 97
f 100 101 2
f 100 2 99
f 102 103 101
f 102 101 100
f 104 103 102
f 104 105 106
f 104 106 103
f 107 105 104
f 108 105 107
f 108 109 105
f 110 109 108
f 110 111 109
f 112 111 110
f 112 113 111
f 114 113 112
f 114 115 113
f 116 115 114
f 116 117 118
f 116 118 115
f 119 117 116
f 120 121 117
f 120 117 119
f 122 123 121
f 122 121 120
f 124 123 122
f 124 125 123
f 126 127 128
f 126 128 125
f 126 125 124
f 129 127 126
f 130 131 127
f 130 127 129
f 132 131 130
f 132 130 133
f 134 132 133
f 134 133 135
f 136 134 135
f 136 135 137
f 138 136 137
f 138 139 140
f 138 137 139
f 141 138 140
f 142 140 143
f 142 141 140
f 144 143 145
f 144 142 143
f 146 144 145
f 146 145 147
f 148 146 147
f 148 147 149
f 150 148 149
f 150 149 151
f 152 150 151
f 152 153 154
f 152 151 153
f 155 152 154
f 155 154 156
f 157 155 156
f 158 157 156
f 158 156 159
f 160 158 159
f 160 159 161
f 162 160 161
f 162 163 164
f 162 161 163
f 165 162 164
f 166 65 167
f 166 98 65
f 168 167 169
f 168 166 167
f 170 168 169
f 170 169 171
f 172 170 171
f 172 171 173
f 174 172 173
f 174 173 175
f 176 174 175
f 176 175 177
f 178 177 179
f 178 179 180
f 178 176 177
f 181 178 180
f 182 180 183
f 182 183 184
f 182 181 180
f 185 182 184
f 186 184 187
f 186 185 184
f 188 187 189
f 188 186 187
f 190 189 191
f 190 188 189
f 192 191 193
f 192 190 191
f 194 193 195
f 194 192 193
f 196 195 197
f 196 194 195
f 198 197 199
f 198 196 197
f 200 201 198
f 200 198 199
f 202 203 201
f 202 204 203
f 202 201 200
f 205 206 204
f 205 204 202
f 207 206 205
f 208 209 206
f 208 206 207
f 210 211 209
f 210 209 208
f 212 211 210
f 212 213 211
f 212 214 213
f 215 214 212
f 216 214 215
f 216 217 214
f 218 217 216
f 218 219 217
f 218 220 219
f 221 220 218
f 222 220 221
f 222 223 220
f 224 223 222
f 224 225 223
f 226 225 224
f 226 227 225
f 226 228 227
f 229 228 226
f 230 228 229
f 230 231 228
f 232 233 231
f 232 231 230
f 234 165 164
f 234 235 236
f 234 164 235
f 237 233 232
f 237 238 233
f 239 234 236
f 240 238 237
f 240 241 238
f 242 236 243
f 242 239 236
f 244 245 246
f 244 241 240
f 244 246 241
f 247 243 248
f 247 242 243
f 249 250 245
f 249 245 244
f 251 248 252
f 251 247 248
f 253 254 250
f 253 250 249
f 255 252 256
f 255 251 252
f 257 254 253
f 258 256 259
f 258 255 256
f 260 261 254
f 260 262 261
f 260 254 257
f 263 264 265
f 263 259 264
f 263 258 259
f 266 262 260
f 267 263 265
f 268 269 262
f 268 262 266
f 270 265 271
f 270 267 265
f 272 273 269
f 272 269 268
f 274 271 275
f 274 270 271
f 276 277 273
f 276 278 277
f 276 273 272
f 279 274 275
f 279 275 280
f 281 278 276
f 282 280 283
f 282 279 280
f 284 285 286
f 284 283 285
f 284 282 283
f 287 288 278
f 287 289 288
f 287 278 281
f 290 289 287
f 291 284 286
f 292 293 289
f 292 289 290
f 294 291 286
f 294 286 295
f 296 297 293
f 296 295 297
f 296 294 295
f 296 293 292
f 66 298 65
f 298 167 65
f 299 300 301
f 302 301 303
f 302 299 301
f 304 302 305
f 306 307 299
f 306 308 307
f 309 304 310
f 309 302 304
f 311 312 306
f 311 306 299
f 313 309 314
f 313 302 309
f 315 316 311
f 317 315 311
f 318 313 319
f 318 299 302
f 318 302 313
f 320 321 317
f 320 322 321
f 320 311 299
f 320 317 311
f 323 324 325
f 323 318 324
f 326 327 320
f 326 320 299
f 328 323 329
f 328 299 318
f 328 326 299
f 328 318 323
f 330 326 328
f 330 328 298
f 331 332 333
f 331 334 332
f 331 335 334
f 336 331 333
f 337 338 336
f 337 336 333
f 339 337 333
f 339 340 337
f 339 341 340
f 342 339 333
f 342 343 339
f 344 345 346
f 344 347 345
f 344 348 347
f 349 342 333
f 349 344 346
f 349 346 342
f 349 350 344
f 351 349 333
f 352 351 333
f 353 354 355
f 356 352 333
f 356 353 355
f 356 355 352
f 357 358 356
f 359 356 333
f 359 357 356
f 360 359 333
f 361 330 298
f 361 360 333
f 361 362 360
f 361 363 362
f 361 333 330
f 61 66 64
f 56 59 58
f 56 61 59
f 56 66 61
f 54 66 56
f 50 54 52
f 50 66 54
f 48 66 50
f 44 48 45
f 44 66 48
f 42 66 44
f 38 42 39
f 36 42 38
f 36 66 42
f 32 36 34
f 24 28 26
f 24 30 28
f 22 30 24
f 22 32 30
f 20 32 22
f 18 32 20
f 18 36 32
f 16 36 18
f 16 66 36
f 12 16 14
f 10 66 16
f 10 16 12
f 4 8 6
f 4 10 8
f 4 66 10
f 3 66 4
f 364 66 3
f 364 298 66
f 364 3 365
f 364 361 298
f 366 367 364
f 368 369 366
f 368 366 364
f 370 364 365
f 370 368 364
f 370 371 372
f 370 373 371
f 370 365 373
f 374 368 370
f 375 376 377
f 375 370 376
f 378 379 380
f 381 378 380
f 382 375 383
f 384 381 380
f 385 382 386
f 385 370 375
f 385 375 382
f 387 380 374
f 387 388 384
f 387 384 380
f 389 387 374
f 390 385 391
f 392 389 374
f 393 385 390
f 394 392 374
f 395 374 370
f 395 370 385
f 395 385 393
f 396 394 374
f 396 374 395
f 3 2 365
f 365 2 101
f 162 165 364
f 162 364 367
f 160 367 366
f 160 162 367
f 158 366 369
f 158 160 366
f 157 369 368
f 157 368 374
f 157 158 369
f 155 157 374
f 152 374 380
f 152 155 374
f 150 380 379
f 150 152 380
f 148 379 378
f 148 150 379
f 146 148 378
f 146 378 381
f 144 146 381
f 144 381 384
f 142 144 384
f 142 384 388
f 141 142 388
f 141 388 387
f 141 387 389
f 138 141 389
f 136 138 389
f 136 389 392
f 134 136 392
f 134 392 394
f 132 134 394
f 132 394 396
f 132 396 395
f 131 132 395
f 127 131 395
f 127 395 393
f 128 127 393
f 128 393 390
f 125 128 390
f 125 390 391
f 123 391 385
f 123 385 386
f 123 125 391
f 121 123 386
f 117 386 382
f 117 382 383
f 117 121 386
f 118 117 383
f 115 383 375
f 115 118 383
f 113 375 377
f 113 115 375
f 111 377 376
f 111 376 370
f 111 113 377
f 109 111 370
f 105 370 372
f 105 109 370
f 106 372 371
f 106 105 372
f 103 371 373
f 103 106 371
f 101 373 365
f 101 103 373
f 169 167 298
f 169 298 328
f 171 328 329
f 171 169 328
f 173 329 323
f 173 171 329
f 175 323 325
f 175 173 323
f 177 325 324
f 177 175 325
f 179 324 318
f 179 177 324
f 180 318 319
f 180 179 318
f 183 319 313
f 183 180 319
f 184 183 313
f 184 313 314
f 187 184 314
f 187 314 309
f 189 187 309
f 189 309 310
f 191 189 310
f 191 310 304
f 193 191 304
f 193 304 305
f 195 193 305
f 195 305 302
f 197 195 302
f 197 302 303
f 199 197 303
f 199 303 301
f 200 199 301
f 200 301 300
f 202 200 300
f 202 300 299
f 202 299 307
f 205 202 307
f 207 205 307
f 207 307 308
f 208 308 306
f 208 306 312
f 208 207 308
f 210 208 312
f 212 312 311
f 212 210 312
f 215 311 316
f 215 212 311
f 216 316 315
f 216 215 316
f 218 315 317
f 218 216 315
f 221 317 321
f 221 218 317
f 222 321 322
f 222 322 320
f 222 221 321
f 224 320 327
f 224 222 320
f 226 224 327
f 229 327 326
f 229 226 327
f 230 229 326
f 230 326 330
f 361 364 165
f 234 361 165
f 230 330 333
f 230 333 232
f 237 232 333
f 237 333 332
f 240 332 334
f 240 334 335
f 240 237 332
f 244 240 335
f 249 335 331
f 249 331 336
f 249 244 335
f 253 336 338
f 253 249 336
f 257 253 338
f 260 338 337
f 260 257 338
f 266 337 340
f 266 340 341
f 266 260 337
f 268 266 341
f 272 268 341
f 272 341 339
f 272 339 343
f 276 272 343
f 281 276 343
f 281 343 342
f 287 281 342
f 287 342 346
f 290 287 346
f 290 346 345
f 290 345 347
f 292 290 347
f 292 347 348
f 296 292 348
f 294 296 348
f 294 348 344
f 294 344 350
f 291 294 350
f 284 291 350
f 284 350 349
f 282 284 349
f 282 349 351
f 282 351 352
f 279 282 352
f 274 279 352
f 274 352 355
f 274 355 354
f 270 274 354
f 267 354 353
f 267 270 354
f 267 353 356
f 263 356 358
f 263 267 356
f 258 263 358
f 255 358 357
f 255 258 358
f 251 357 359
f 251 255 357
f 247 359 360
f 247 251 359
f 242 360 362
f 242 247 360
f 239 362 363
f 239 242 362
f 234 363 361
f 234 239 363
f 99 97 397
f 397 97 398
f 398 95 399
f 97 95 398
f 399 93 400
f 95 93 399
f 400 91 401
f 401 91 402
f 93 91 400
f 91 89 402
f 402 87 403
f 89 87 402
f 403 85 404
f 404 85 405
f 87 85 403
f 85 83 405
f 405 83 406
f 83 81 406
f 406 81 407
f 81 79 407
f 79 77 407
f 407 77 408
f 77 75 408
f 408 75 409
f 409 75 410
f 75 73 410
f 73 71 410
f 410 71 411
f 71 67 411
f 411 67 412
f 412 67 413
f 67 68 413
f 68 69 413
f 413 69 414
f 414 69 415
f 69 70 415
f 70 72 415
f 415 72 416
f 72 74 416
f 416 74 417
f 417 76 418
f 74 76 417
f 76 78 418
f 418 78 419
f 419 78 420
f 78 80 420
f 420 82 421
f 421 82 422
f 80 82 420
f 82 84 422
f 422 86 423
f 423 86 424
f 84 86 422
f 86 88 424
f 424 90 425
f 88 90 424
f 425 92 426
f 90 92 425
f 426 94 427
f 427 94 428
f 92 94 426
f 428 96 429
f 94 96 428
f 96 98 429
f 166 430 429
f 166 429 98
f 430 168 431
f 166 168 430
f 431 170 432
f 168 170 431
f 432 172 433
f 170 172 432
f 433 174 434
f 434 174 435
f 172 174 433
f 174 176 435
f 435 178 436
f 176 178 435
f 436 181 437
f 437 181 438
f 178 181 436
f 181 182 438
f 438 182 439
f 182 185 439
f 439 185 440
f 185 186 440
f 440 188 441
f 186 188 440
f 188 190 441
f 441 190 442
f 442 190 443
f 190 192 443
f 443 194 444
f 192 194 443
f 444 196 445
f 445 196 446
f 194 196 444
f 196 198 446
f 446 201 447
f 447 201 448
f 198 201 446
f 201 203 448
f 448 204 449
f 203 204 448
f 449 206 450
f 204 206 449
f 450 209 451
f 206 209 450
f 451 211 452
f 452 211 453
f 209 211 451
f 211 213 453
f 453 214 454
f 454 214 455
f 213 214 453
f 214 217 455
f 455 219 456
f 456 219 457
f 217 219 455
f 219 220 457
f 457 223 458
f 220 223 457
f 458 225 459
f 223 225 458
f 459 227 460
f 460 227 461
f 225 227 459
f 461 228 462
f 227 228 461
f 228 231 462
f 462 231 463
f 463 231 233
f 233 238 463
f 463 238 464
f 464 241 465
f 238 241 464
f 465 246 466
f 241 246 465
f 466 245 467
f 246 245 466
f 467 250 468
f 245 250 467
f 468 254 469
f 250 254 468
f 469 261 470
f 254 261 469
f 470 262 471
f 261 262 470
f 262 269 471
f 471 269 472
f 269 273 472
f 472 273 473
f 473 273 474
f 273 277 474
f 277 278 474
f 474 278 475
f 278 288 475
f 475 288 476
f 476 288 477
f 288 289 477
f 289 293 477
f 477 293 478
f 293 297 478
f 478 297 479
f 479 297 480
f 297 295 480
f 295 286 480
f 480 286 481
f 286 285 481
f 481 285 482
f 285 283 482
f 482 283 483
f 483 280 484
f 283 280 483
f 484 275 485
f 280 275 484
f 485 271 486
f 275 271 485
f 486 265 487
f 271 265 486
f 487 264 488
f 265 264 487
f 488 259 489
f 264 259 488
f 489 256 490
f 259 256 489
f 490 252 491
f 256 252 490
f 491 248 492
f 252 248 491
f 492 243 493
f 248 243 492
f 493 236 494
f 243 236 493
f 236 235 494
f 494 235 495
f 495 235 496
f 496 235 164
f 164 163 496
f 496 163 497
f 497 161 498
f 163 161 497
f 498 159 499
f 161 159 498
f 499 156 500
f 159 156 499
f 500 154 501
f 501 154 502
f 156 154 500
f 154 153 502
f 502 151 503
f 503 151 504
f 153 151 502
f 151 149 504
f 504 149 505
f 149 147 505
f 147 145 505
f 505 145 506
f 506 145 507
f 145 143 507
f 143 140 507
f 507 140 508
f 140 139 508
f 508 139 509
f 509 139 510
f 139 137 510
f 510 137 511
f 137 135 511
f 135 133 511
f 511 133 512
f 512 133 513
f 133 130 513
f 130 129 513
f 513 129 514
f 514 129 515
f 129 126 515
f 126 124 515
f 515 124 516
f 516 122 517
f 124 122 516
f 517 120 518
f 122 120 517
f 518 119 519
f 519 119 520
f 120 119 518
f 119 116 520
f 520 114 521
f 116 114 520
f 521 112 522
f 522 112 523
f 114 112 521
f 112 110 523
f 523 108 524
f 110 108 523
f 524 107 525
f 108 107 524
f 525 104 526
f 526 104 527
f 107 104 525
f 527 102 528
f 104 102 527
f 102 100 528
f 99 397 528
f 99 528 100
f 446 444 445
f 447 444 446
f 448 449 447
f 447 449 444
f 444 442 443
f 450 451 449
f 444 441 442
f 452 453 451
f 441 439 440
f 444 439 441
f 454 455 453
f 453 455 451
f 451 455 449
f 437 435 436
f 438 435 437
f 439 435 438
f 444 435 439
f 456 458 455
f 457 458 456
f 435 433 434
f 444 432 435
f 435 432 433
f 460 461 459
f 459 462 458
f 449 462 444
f 455 462 449
f 444 462 432
f 458 462 455
f 461 462 459
f 432 430 431
f 462 430 432
f 464 466 463
f 465 466 464
f 466 467 463
f 467 468 463
f 468 469 463
f 469 470 463
f 470 472 463
f 471 472 470
f 474 475 473
f 475 476 473
f 473 476 472
f 476 477 472
f 477 478 472
f 479 480 478
f 478 483 472
f 480 483 478
f 481 483 480
f 482 483 481
f 472 484 463
f 483 484 472
f 484 485 463
f 486 488 485
f 487 488 486
f 488 490 485
f 489 490 488
f 491 494 490
f 492 494 491
f 493 494 492
f 462 495 430
f 485 495 463
f 490 495 485
f 494 495 490
f 463 495 462
f 429 427 428
f 427 425 426
f 429 425 427
f 429 424 425
f 429 423 424
f 429 422 423
f 422 420 421
f 422 419 420
f 422 418 419
f 429 417 422
f 422 417 418
f 429 416 417
f 416 414 415
f 413 411 412
f 414 410 413
f 416 410 414
f 413 410 411
f 416 409 410
f 429 409 416
f 429 408 409
f 429 407 408
f 429 405 407
f 407 405 406
f 404 402 403
f 405 401 404
f 429 401 405
f 404 401 402
f 429 400 401
f 400 398 399
f 429 398 400
f 429 397 398
f 429 496 397
f 430 496 429
f 397 496 528
f 495 496 430
f 497 498 496
f 528 526 527
f 500 501 499
f 499 503 498
f 498 503 496
f 502 503 501
f 501 503 499
f 503 504 496
f 521 519 520
f 522 519 521
f 523 519 522
f 505 506 504
f 506 507 504
f 519 517 518
f 524 517 523
f 525 517 524
f 523 517 519
f 507 508 504
f 508 509 504
f 517 515 516
f 504 510 496
f 509 510 504
f 528 514 526
f 526 514 525
f 517 514 515
f 525 514 517
f 496 512 528
f 511 512 510
f 514 512 513
f 528 512 514
f 510 512 496
