# Tube — generated by Menno Creator Kit
# Coordinates are metres; FreeCAD Z-up becomes Godot Y-up.
o Tube
v 0.0450000 0.0299814 0.0007477
v 0.0450000 0.0300000 -0.0000000
v 0.0000000 0.0300000 -0.0000000
v 0.0000000 0.0299814 0.0007477
v 0.0450000 0.0299255 0.0014935
v 0.0000000 0.0299255 0.0014935
v 0.0450000 0.0298325 0.0022356
v 0.0000000 0.0298325 0.0022356
v 0.0000000 0.0297026 0.0029722
v 0.0450000 0.0297026 0.0029722
v 0.0450000 0.0295362 0.0037014
v 0.0000000 0.0295362 0.0037014
v 0.0450000 0.0293336 0.0044213
v 0.0000000 0.0293336 0.0044213
v 0.0000000 0.0290954 0.0051303
v 0.0450000 0.0290954 0.0051303
v 0.0000000 0.0288221 0.0058265
v 0.0450000 0.0288221 0.0058265
v 0.0450000 0.0285145 0.0065083
v 0.0000000 0.0285145 0.0065083
v 0.0450000 0.0281733 0.0071738
v 0.0000000 0.0281733 0.0071738
v 0.0450000 0.0277994 0.0078215
v 0.0000000 0.0277994 0.0078215
v 0.0450000 0.0273936 0.0084498
v 0.0000000 0.0273936 0.0084498
v 0.0000000 0.0269570 0.0090571
v 0.0450000 0.0269570 0.0090571
v 0.0450000 0.0264907 0.0096418
v 0.0000000 0.0264907 0.0096418
v 0.0450000 0.0259958 0.0102026
v 0.0000000 0.0259958 0.0102026
v 0.0450000 0.0254736 0.0107380
v 0.0000000 0.0254736 0.0107380
v 0.0000000 0.0249253 0.0112467
v 0.0450000 0.0249253 0.0112467
v 0.0450000 0.0243523 0.0117275
v 0.0000000 0.0243523 0.0117275
v 0.0450000 0.0237562 0.0121791
v 0.0000000 0.0237562 0.0121791
v 0.0000000 0.0231382 0.0126004
v 0.0450000 0.0231382 0.0126004
v 0.0450000 0.0225000 0.0129904
v 0.0000000 0.0225000 0.0129904
v 0.0000000 0.0218432 0.0133481
v 0.0450000 0.0218432 0.0133481
v 0.0000000 0.0211693 0.0136726
v 0.0450000 0.0211693 0.0136726
v 0.0000000 0.0204801 0.0139631
v 0.0450000 0.0204801 0.0139631
v 0.0450000 0.0197773 0.0142189
v 0.0000000 0.0197773 0.0142189
v 0.0450000 0.0190626 0.0144394
v 0.0000000 0.0190626 0.0144394
v 0.0000000 0.0183378 0.0146239
v 0.0450000 0.0183378 0.0146239
v 0.0450000 0.0176047 0.0147721
v 0.0000000 0.0176047 0.0147721
v 0.0450000 0.0168652 0.0148836
v 0.0000000 0.0168652 0.0148836
v 0.0450000 0.0161210 0.0149581
v 0.0000000 0.0161210 0.0149581
v 0.0450000 0.0153740 0.0149953
v 0.0000000 0.0153740 0.0149953
v 0.0000000 0.0146260 0.0149953
v 0.0450000 0.0146260 0.0149953
v 0.0450000 0.0138790 0.0149581
v 0.0000000 0.0138790 0.0149581
v 0.0450000 0.0131348 0.0148836
v 0.0000000 0.0131348 0.0148836
v 0.0450000 0.0123953 0.0147721
v 0.0000000 0.0123953 0.0147721
v 0.0450000 0.0116622 0.0146239
v 0.0000000 0.0116622 0.0146239
v 0.0450000 0.0109374 0.0144394
v 0.0000000 0.0109374 0.0144394
v 0.0450000 0.0102227 0.0142189
v 0.0000000 0.0102227 0.0142189
v 0.0450000 0.0095199 0.0139631
v 0.0000000 0.0095199 0.0139631
v 0.0000000 0.0088307 0.0136726
v 0.0450000 0.0088307 0.0136726
v 0.0450000 0.0081568 0.0133481
v 0.0000000 0.0081568 0.0133481
v 0.0450000 0.0075000 0.0129904
v 0.0000000 0.0075000 0.0129904
v 0.0450000 0.0068618 0.0126004
v 0.0000000 0.0068618 0.0126004
v 0.0450000 0.0062438 0.0121791
v 0.0000000 0.0062438 0.0121791
v 0.0450000 0.0056477 0.0117275
v 0.0000000 0.0056477 0.0117275
v 0.0000000 0.0050747 0.0112467
v 0.0450000 0.0050747 0.0112467
v 0.0000000 0.0045264 0.0107380
v 0.0450000 0.0045264 0.0107380
v 0.0450000 0.0040042 0.0102026
v 0.0000000 0.0040042 0.0102026
v 0.0450000 0.0035093 0.0096418
v 0.0000000 0.0035093 0.0096418
v 0.0450000 0.0030430 0.0090571
v 0.0000000 0.0030430 0.0090571
v 0.0450000 0.0026064 0.0084498
v 0.0000000 0.0026064 0.0084498
v 0.0450000 0.0022006 0.0078215
v 0.0000000 0.0022006 0.0078215
v 0.0450000 0.0018267 0.0071738
v 0.0000000 0.0018267 0.0071738
v 0.0450000 0.0014855 0.0065083
v 0.0000000 0.0014855 0.0065083
v 0.0450000 0.0011779 0.0058265
v 0.0000000 0.0011779 0.0058265
v 0.0450000 0.0009046 0.0051303
v 0.0000000 0.0009046 0.0051303
v 0.0450000 0.0006664 0.0044213
v 0.0000000 0.0006664 0.0044213
v 0.0450000 0.0004638 0.0037014
v 0.0000000 0.0004638 0.0037014
v 0.0450000 0.0002974 0.0029722
v 0.0000000 0.0002974 0.0029722
v 0.0450000 0.0001675 0.0022356
v 0.0000000 0.0001675 0.0022356
v 0.0450000 0.0000745 0.0014935
v 0.0000000 0.0000745 0.0014935
v 0.0450000 0.0000186 0.0007477
v 0.0000000 0.0000186 0.0007477
v 0.0450000 0.0000000 -0.0000000
v 0.0000000 0.0000000 -0.0000000
v 0.0450000 0.0000186 -0.0007477
v 0.0000000 0.0000186 -0.0007477
v 0.0450000 0.0000745 -0.0014935
v 0.0000000 0.0000745 -0.0014935
v 0.0450000 0.0001675 -0.0022356
v 0.0000000 0.0001675 -0.0022356
v 0.0450000 0.0002974 -0.0029722
v 0.0000000 0.0002974 -0.0029722
v 0.0450000 0.0004638 -0.0037014
v 0.0000000 0.0004638 -0.0037014
v 0.0450000 0.0006664 -0.0044213
v 0.0000000 0.0006664 -0.0044213
v 0.0450000 0.0009046 -0.0051303
v 0.0000000 0.0009046 -0.0051303
v 0.0450000 0.0011779 -0.0058265
v 0.0000000 0.0011779 -0.0058265
v 0.0450000 0.0014855 -0.0065083
v 0.0000000 0.0014855 -0.0065083
v 0.0450000 0.0018267 -0.0071738
v 0.0000000 0.0018267 -0.0071738
v 0.0450000 0.0022006 -0.0078215
v 0.0000000 0.0022006 -0.0078215
v 0.0450000 0.0026064 -0.0084498
v 0.0000000 0.0026064 -0.0084498
v 0.0450000 0.0030430 -0.0090571
v 0.0000000 0.0030430 -0.0090571
v 0.0450000 0.0035093 -0.0096418
v 0.0000000 0.0035093 -0.0096418
v 0.0450000 0.0040042 -0.0102026
v 0.0000000 0.0040042 -0.0102026
v 0.0000000 0.0045264 -0.0107380
v 0.0450000 0.0045264 -0.0107380
v 0.0000000 0.0050747 -0.0112467
v 0.0450000 0.0050747 -0.0112467
v 0.0450000 0.0056477 -0.0117275
v 0.0000000 0.0056477 -0.0117275
v 0.0000000 0.0062438 -0.0121791
v 0.0450000 0.0062438 -0.0121791
v 0.0450000 0.0068618 -0.0126004
v 0.0000000 0.0068618 -0.0126004
v 0.0450000 0.0075000 -0.0129904
v 0.0000000 0.0075000 -0.0129904
v 0.0000000 0.0081568 -0.0133481
v 0.0450000 0.0081568 -0.0133481
v 0.0000000 0.0088307 -0.0136726
v 0.0450000 0.0088307 -0.0136726
v 0.0450000 0.0095199 -0.0139631
v 0.0000000 0.0095199 -0.0139631
v 0.0450000 0.0102227 -0.0142189
v 0.0000000 0.0102227 -0.0142189
v 0.0450000 0.0109374 -0.0144394
v 0.0000000 0.0109374 -0.0144394
v 0.0450000 0.0116622 -0.0146239
v 0.0000000 0.0116622 -0.0146239
v 0.0450000 0.0123953 -0.0147721
v 0.0000000 0.0123953 -0.0147721
v 0.0450000 0.0131348 -0.0148836
v 0.0000000 0.0131348 -0.0148836
v 0.0450000 0.0138790 -0.0149581
v 0.0000000 0.0138790 -0.0149581
v 0.0450000 0.0146260 -0.0149953
v 0.0000000 0.0146260 -0.0149953
v 0.0450000 0.0153740 -0.0149953
v 0.0000000 0.0153740 -0.0149953
v 0.0000000 0.0161210 -0.0149581
v 0.0450000 0.0161210 -0.0149581
v 0.0450000 0.0168652 -0.0148836
v 0.0000000 0.0168652 -0.0148836
v 0.0450000 0.0176047 -0.0147721
v 0.0000000 0.0176047 -0.0147721
v 0.0450000 0.0183378 -0.0146239
v 0.0000000 0.0183378 -0.0146239
v 0.0450000 0.0190626 -0.0144394
v 0.0000000 0.0190626 -0.0144394
v 0.0450000 0.0197773 -0.0142189
v 0.0000000 0.0197773 -0.0142189
v 0.0000000 0.0204801 -0.0139631
v 0.0450000 0.0204801 -0.0139631
v 0.0450000 0.0211693 -0.0136726
v 0.0000000 0.0211693 -0.0136726
v 0.0450000 0.0218432 -0.0133481
v 0.0000000 0.0218432 -0.0133481
v 0.0000000 0.0225000 -0.0129904
v 0.0450000 0.0225000 -0.0129904
v 0.0000000 0.0231382 -0.0126004
v 0.0450000 0.0231382 -0.0126004
v 0.0450000 0.0237562 -0.0121791
v 0.0000000 0.0237562 -0.0121791
v 0.0450000 0.0243523 -0.0117275
v 0.0000000 0.0243523 -0.0117275
v 0.0000000 0.0249253 -0.0112467
v 0.0450000 0.0249253 -0.0112467
v 0.0450000 0.0254736 -0.0107380
v 0.0000000 0.0254736 -0.0107380
v 0.0450000 0.0259958 -0.0102026
v 0.0000000 0.0259958 -0.0102026
v 0.0450000 0.0264907 -0.0096418
v 0.0000000 0.0264907 -0.0096418
v 0.0450000 0.0269570 -0.0090571
v 0.0000000 0.0269570 -0.0090571
v 0.0450000 0.0273936 -0.0084498
v 0.0000000 0.0273936 -0.0084498
v 0.0000000 0.0277994 -0.0078215
v 0.0450000 0.0277994 -0.0078215
v 0.0450000 0.0281733 -0.0071738
v 0.0000000 0.0281733 -0.0071738
v 0.0450000 0.0285145 -0.0065083
v 0.0000000 0.0285145 -0.0065083
v 0.0000000 0.0288221 -0.0058265
v 0.0450000 0.0288221 -0.0058265
v 0.0450000 0.0290954 -0.0051303
v 0.0000000 0.0290954 -0.0051303
v 0.0450000 0.0293336 -0.0044213
v 0.0000000 0.0293336 -0.0044213
v 0.0450000 0.0295362 -0.0037014
v 0.0000000 0.0295362 -0.0037014
v 0.0450000 0.0297026 -0.0029722
v 0.0000000 0.0297026 -0.0029722
v 0.0450000 0.0298325 -0.0022356
v 0.0000000 0.0298325 -0.0022356
v 0.0000000 0.0299255 -0.0014935
v 0.0450000 0.0299255 -0.0014935
v 0.0450000 0.0299814 -0.0007477
v 0.0000000 0.0299814 -0.0007477
v 0.0450000 0.0069364 -0.0074819
v 0.0450000 0.0073194 -0.0078745
v 0.0450000 0.0077215 -0.0082476
v 0.0450000 0.0065735 -0.0070707
v 0.0450000 0.0081416 -0.0086001
v 0.0450000 0.0062315 -0.0066418
v 0.0450000 0.0085788 -0.0089313
v 0.0450000 0.0059114 -0.0061965
v 0.0450000 0.0090320 -0.0092403
v 0.0450000 0.0056138 -0.0057358
v 0.0450000 0.0095000 -0.0095263
v 0.0450000 0.0053396 -0.0052608
v 0.0450000 0.0099817 -0.0097886
v 0.0450000 0.0050893 -0.0047727
v 0.0450000 0.0104758 -0.0100266
v 0.0450000 0.0048638 -0.0042728
v 0.0450000 0.0109812 -0.0102396
v 0.0450000 0.0046634 -0.0037622
v 0.0450000 0.0114966 -0.0104272
v 0.0450000 0.0044887 -0.0032423
v 0.0450000 0.0120208 -0.0105889
v 0.0450000 0.0043401 -0.0027143
v 0.0450000 0.0125523 -0.0107242
v 0.0450000 0.0042181 -0.0021796
v 0.0450000 0.0130899 -0.0108329
v 0.0450000 0.0041229 -0.0016395
v 0.0450000 0.0136322 -0.0109146
v 0.0450000 0.0040547 -0.0010952
v 0.0450000 0.0141780 -0.0109692
v 0.0450000 0.0040137 -0.0005483
v 0.0450000 0.0147258 -0.0109966
v 0.0450000 0.0040000 -0.0000000
v 0.0450000 0.0152742 -0.0109966
v 0.0450000 0.0040137 0.0005483
v 0.0450000 0.0158220 -0.0109692
v 0.0450000 0.0040547 0.0010952
v 0.0450000 0.0163678 -0.0109146
v 0.0450000 0.0041229 0.0016395
v 0.0450000 0.0169101 -0.0108329
v 0.0450000 0.0042181 0.0021796
v 0.0450000 0.0174477 -0.0107242
v 0.0450000 0.0043401 0.0027143
v 0.0450000 0.0179792 -0.0105889
v 0.0450000 0.0044887 0.0032423
v 0.0450000 0.0185034 -0.0104272
v 0.0450000 0.0046634 0.0037622
v 0.0450000 0.0190188 -0.0102396
v 0.0450000 0.0048638 0.0042728
v 0.0450000 0.0195242 -0.0100266
v 0.0450000 0.0050893 0.0047727
v 0.0450000 0.0200183 -0.0097886
v 0.0450000 0.0053396 0.0052608
v 0.0450000 0.0205000 -0.0095263
v 0.0450000 0.0056138 0.0057358
v 0.0450000 0.0209680 -0.0092403
v 0.0450000 0.0059114 0.0061965
v 0.0450000 0.0214212 -0.0089313
v 0.0450000 0.0062315 0.0066418
v 0.0450000 0.0218584 -0.0086001
v 0.0450000 0.0065735 0.0070707
v 0.0450000 0.0222785 -0.0082476
v 0.0450000 0.0069364 0.0074819
v 0.0450000 0.0226806 -0.0078745
v 0.0450000 0.0073194 0.0078745
v 0.0450000 0.0230636 -0.0074819
v 0.0450000 0.0077215 0.0082476
v 0.0450000 0.0234265 -0.0070707
v 0.0450000 0.0081416 0.0086001
v 0.0450000 0.0237685 -0.0066418
v 0.0450000 0.0240886 -0.0061965
v 0.0450000 0.0085788 0.0089313
v 0.0450000 0.0090320 0.0092403
v 0.0450000 0.0243862 -0.0057358
v 0.0450000 0.0246604 -0.0052608
v 0.0450000 0.0095000 0.0095263
v 0.0450000 0.0099817 0.0097886
v 0.0450000 0.0249107 -0.0047727
v 0.0450000 0.0104758 0.0100266
v 0.0450000 0.0251362 -0.0042728
v 0.0450000 0.0253366 -0.0037622
v 0.0450000 0.0109812 0.0102396
v 0.0450000 0.0114966 0.0104272
v 0.0450000 0.0255113 -0.0032423
v 0.0450000 0.0256599 -0.0027143
v 0.0450000 0.0120208 0.0105889
v 0.0450000 0.0125523 0.0107242
v 0.0450000 0.0257819 -0.0021796
v 0.0450000 0.0130899 0.0108329
v 0.0450000 0.0258771 -0.0016395
v 0.0450000 0.0136322 0.0109146
v 0.0450000 0.0141780 0.0109692
v 0.0450000 0.0259453 -0.0010952
v 0.0450000 0.0147258 0.0109966
v 0.0450000 0.0259863 -0.0005483
v 0.0450000 0.0152742 0.0109966
v 0.0450000 0.0259863 0.0005483
v 0.0450000 0.0260000 -0.0000000
v 0.0450000 0.0158220 0.0109692
v 0.0450000 0.0259453 0.0010952
v 0.0450000 0.0163678 0.0109146
v 0.0450000 0.0258771 0.0016395
v 0.0450000 0.0169101 0.0108329
v 0.0450000 0.0174477 0.0107242
v 0.0450000 0.0257819 0.0021796
v 0.0450000 0.0256599 0.0027143
v 0.0450000 0.0179792 0.0105889
v 0.0450000 0.0185034 0.0104272
v 0.0450000 0.0255113 0.0032423
v 0.0450000 0.0253366 0.0037622
v 0.0450000 0.0190188 0.0102396
v 0.0450000 0.0195242 0.0100266
v 0.0450000 0.0251362 0.0042728
v 0.0450000 0.0249107 0.0047727
v 0.0450000 0.0246604 0.0052608
v 0.0450000 0.0200183 0.0097886
v 0.0450000 0.0205000 0.0095263
v 0.0450000 0.0243862 0.0057358
v 0.0450000 0.0209680 0.0092403
v 0.0450000 0.0214212 0.0089313
v 0.0450000 0.0240886 0.0061965
v 0.0450000 0.0237685 0.0066418
v 0.0450000 0.0234265 0.0070707
v 0.0450000 0.0218584 0.0086001
v 0.0450000 0.0222785 0.0082476
v 0.0450000 0.0226806 0.0078745
v 0.0450000 0.0230636 0.0074819
v 0.0000000 0.0069364 -0.0074819
v 0.0000000 0.0073194 -0.0078745
v 0.0000000 0.0077215 -0.0082476
v 0.0000000 0.0065735 -0.0070707
v 0.0000000 0.0081416 -0.0086001
v 0.0000000 0.0062315 -0.0066418
v 0.0000000 0.0085788 -0.0089313
v 0.0000000 0.0059114 -0.0061965
v 0.0000000 0.0090320 -0.0092403
v 0.0000000 0.0056138 -0.0057358
v 0.0000000 0.0095000 -0.0095263
v 0.0000000 0.0053396 -0.0052608
v 0.0000000 0.0099817 -0.0097886
v 0.0000000 0.0050893 -0.0047727
v 0.0000000 0.0104758 -0.0100266
v 0.0000000 0.0048638 -0.0042728
v 0.0000000 0.0109812 -0.0102396
v 0.0000000 0.0046634 -0.0037622
v 0.0000000 0.0114966 -0.0104272
v 0.0000000 0.0044887 -0.0032423
v 0.0000000 0.0120208 -0.0105889
v 0.0000000 0.0043401 -0.0027143
v 0.0000000 0.0125523 -0.0107242
v 0.0000000 0.0042181 -0.0021796
v 0.0000000 0.0130899 -0.0108329
v 0.0000000 0.0041229 -0.0016395
v 0.0000000 0.0136322 -0.0109146
v 0.0000000 0.0040547 -0.0010952
v 0.0000000 0.0141780 -0.0109692
v 0.0000000 0.0040137 -0.0005483
v 0.0000000 0.0147258 -0.0109966
v 0.0000000 0.0040000 -0.0000000
v 0.0000000 0.0152742 -0.0109966
v 0.0000000 0.0040137 0.0005483
v 0.0000000 0.0158220 -0.0109692
v 0.0000000 0.0040547 0.0010952
v 0.0000000 0.0163678 -0.0109146
v 0.0000000 0.0041229 0.0016395
v 0.0000000 0.0169101 -0.0108329
v 0.0000000 0.0042181 0.0021796
v 0.0000000 0.0174477 -0.0107242
v 0.0000000 0.0043401 0.0027143
v 0.0000000 0.0179792 -0.0105889
v 0.0000000 0.0044887 0.0032423
v 0.0000000 0.0185034 -0.0104272
v 0.0000000 0.0046634 0.0037622
v 0.0000000 0.0190188 -0.0102396
v 0.0000000 0.0048638 0.0042728
v 0.0000000 0.0195242 -0.0100266
v 0.0000000 0.0050893 0.0047727
v 0.0000000 0.0200183 -0.0097886
v 0.0000000 0.0053396 0.0052608
v 0.0000000 0.0205000 -0.0095263
v 0.0000000 0.0056138 0.0057358
v 0.0000000 0.0209680 -0.0092403
v 0.0000000 0.0059114 0.0061965
v 0.0000000 0.0214212 -0.0089313
v 0.0000000 0.0062315 0.0066418
v 0.0000000 0.0218584 -0.0086001
v 0.0000000 0.0065735 0.0070707
v 0.0000000 0.0222785 -0.0082476
v 0.0000000 0.0069364 0.0074819
v 0.0000000 0.0226806 -0.0078745
v 0.0000000 0.0073194 0.0078745
v 0.0000000 0.0230636 -0.0074819
v 0.0000000 0.0077215 0.0082476
v 0.0000000 0.0234265 -0.0070707
v 0.0000000 0.0081416 0.0086001
v 0.0000000 0.0237685 -0.0066418
v 0.0000000 0.0240886 -0.0061965
v 0.0000000 0.0085788 0.0089313
v 0.0000000 0.0090320 0.0092403
v 0.0000000 0.0243862 -0.0057358
v 0.0000000 0.0246604 -0.0052608
v 0.0000000 0.0095000 0.0095263
v 0.0000000 0.0099817 0.0097886
v 0.0000000 0.0249107 -0.0047727
v 0.0000000 0.0104758 0.0100266
v 0.0000000 0.0251362 -0.0042728
v 0.0000000 0.0253366 -0.0037622
v 0.0000000 0.0109812 0.0102396
v 0.0000000 0.0114966 0.0104272
v 0.0000000 0.0255113 -0.0032423
v 0.0000000 0.0256599 -0.0027143
v 0.0000000 0.0120208 0.0105889
v 0.0000000 0.0125523 0.0107242
v 0.0000000 0.0257819 -0.0021796
v 0.0000000 0.0130899 0.0108329
v 0.0000000 0.0258771 -0.0016395
v 0.0000000 0.0136322 0.0109146
v 0.0000000 0.0141780 0.0109692
v 0.0000000 0.0259453 -0.0010952
v 0.0000000 0.0147258 0.0109966
v 0.0000000 0.0259863 -0.0005483
v 0.0000000 0.0152742 0.0109966
v 0.0000000 0.0259863 0.0005483
v 0.0000000 0.0260000 -0.0000000
v 0.0000000 0.0158220 0.0109692
v 0.0000000 0.0259453 0.0010952
v 0.0000000 0.0163678 0.0109146
v 0.0000000 0.0258771 0.0016395
v 0.0000000 0.0169101 0.0108329
v 0.0000000 0.0174477 0.0107242
v 0.0000000 0.0257819 0.0021796
v 0.0000000 0.0256599 0.0027143
v 0.0000000 0.0179792 0.0105889
v 0.0000000 0.0185034 0.0104272
v 0.0000000 0.0255113 0.0032423
v 0.0000000 0.0253366 0.0037622
v 0.0000000 0.0190188 0.0102396
v 0.0000000 0.0195242 0.0100266
v 0.0000000 0.0251362 0.0042728
v 0.0000000 0.0249107 0.0047727
v 0.0000000 0.0246604 0.0052608
v 0.0000000 0.0200183 0.0097886
v 0.0000000 0.0205000 0.0095263
v 0.0000000 0.0243862 0.0057358
v 0.0000000 0.0209680 0.0092403
v 0.0000000 0.0214212 0.0089313
v 0.0000000 0.0240886 0.0061965
v 0.0000000 0.0237685 0.0066418
v 0.0000000 0.0234265 0.0070707
v 0.0000000 0.0218584 0.0086001
v 0.0000000 0.0222785 0.0082476
v 0.0000000 0.0226806 0.0078745
v 0.0000000 0.0230636 0.0074819
f 1 2 3
f 1 3 4
f 5 4 6
f 5 1 4
f 7 6 8
f 7 8 9
f 7 5 6
f 10 7 9
f 11 9 12
f 11 10 9
f 13 12 14
f 13 14 15
f 13 11 12
f 16 15 17
f 16 13 15
f 18 16 17
f 19 17 20
f 19 18 17
f 21 20 22
f 21 19 20
f 23 21 22
f 23 22 24
f 25 23 24
f 25 24 26
f 25 26 27
f 28 25 27
f 29 28 27
f 29 27 30
f 31 29 30
f 31 30 32
f 33 31 32
f 33 32 34
f 33 34 35
f 36 33 35
f 37 36 35
f 37 35 38
f 39 37 38
f 39 38 40
f 39 40 41
f 42 39 41
f 43 42 41
f 43 41 44
f 43 44 45
f 46 43 45
f 46 45 47
f 48 47 49
f 48 46 47
f 50 48 49
f 51 50 49
f 51 49 52
f 53 52 54
f 53 54 55
f 53 51 52
f 56 53 55
f 57 55 58
f 57 56 55
f 59 58 60
f 59 57 58
f 61 60 62
f 61 59 60
f 63 62 64
f 63 64 65
f 63 61 62
f 66 63 65
f 67 65 68
f 67 66 65
f 69 68 70
f 69 67 68
f 71 70 72
f 71 69 70
f 73 72 74
f 73 71 72
f 75 73 74
f 75 74 76
f 77 75 76
f 77 76 78
f 79 77 78
f 79 78 80
f 79 80 81
f 82 79 81
f 83 82 81
f 83 81 84
f 85 83 84
f 85 84 86
f 87 85 86
f 87 86 88
f 89 87 88
f 89 88 90
f 91 89 90
f 91 90 92
f 91 92 93
f 94 91 93
f 94 93 95
f 96 94 95
f 97 96 95
f 97 95 98
f 99 97 98
f 99 98 100
f 101 99 100
f 101 100 102
f 103 101 102
f 103 102 104
f 105 103 104
f 105 104 106
f 107 105 106
f 107 106 108
f 109 107 108
f 109 108 110
f 111 109 110
f 111 110 112
f 113 111 112
f 113 112 114
f 115 113 114
f 115 114 116
f 117 116 118
f 117 115 116
f 119 118 120
f 119 117 118
f 121 120 122
f 121 119 120
f 123 122 124
f 123 121 122
f 125 123 124
f 125 124 126
f 127 125 126
f 127 126 128
f 129 127 128
f 129 128 130
f 131 129 130
f 131 130 132
f 133 131 132
f 133 132 134
f 135 133 134
f 135 134 136
f 137 135 136
f 137 136 138
f 139 137 138
f 139 138 140
f 141 139 140
f 141 140 142
f 143 141 142
f 143 142 144
f 145 143 144
f 145 144 146
f 147 145 146
f 147 146 148
f 149 147 148
f 149 148 150
f 151 150 152
f 151 149 150
f 153 152 154
f 153 151 152
f 155 154 156
f 155 153 154
f 157 156 158
f 157 158 159
f 157 155 156
f 160 159 161
f 160 157 159
f 162 160 161
f 163 161 164
f 163 164 165
f 163 162 161
f 166 163 165
f 167 165 168
f 167 166 165
f 169 168 170
f 169 170 171
f 169 167 168
f 172 171 173
f 172 169 171
f 174 172 173
f 175 173 176
f 175 174 173
f 177 175 176
f 177 176 178
f 179 177 178
f 179 178 180
f 181 179 180
f 181 180 182
f 183 181 182
f 183 182 184
f 185 184 186
f 185 183 184
f 187 186 188
f 187 185 186
f 189 188 190
f 189 187 188
f 191 190 192
f 191 192 193
f 191 189 190
f 194 191 193
f 195 193 196
f 195 194 193
f 197 196 198
f 197 195 196
f 199 198 200
f 199 197 198
f 201 200 202
f 201 199 200
f 203 202 204
f 203 204 205
f 203 201 202
f 206 203 205
f 207 205 208
f 207 206 205
f 209 208 210
f 209 210 211
f 209 207 208
f 212 211 213
f 212 209 211
f 214 212 213
f 215 213 216
f 215 214 213
f 217 216 218
f 217 218 219
f 217 215 216
f 220 217 219
f 221 219 222
f 221 220 219
f 223 222 224
f 223 221 222
f 225 223 224
f 225 224 226
f 227 225 226
f 227 226 228
f 229 227 228
f 229 228 230
f 229 230 231
f 232 229 231
f 233 232 231
f 233 231 234
f 235 233 234
f 235 234 236
f 235 236 237
f 238 235 237
f 239 238 237
f 239 237 240
f 241 239 240
f 241 240 242
f 243 241 242
f 243 242 244
f 245 243 244
f 245 244 246
f 247 245 246
f 247 246 248
f 247 248 249
f 250 247 249
f 251 249 252
f 251 252 3
f 251 250 249
f 2 251 3
f 253 155 157
f 253 157 160
f 253 160 254
f 255 160 162
f 255 254 160
f 256 153 155
f 256 155 253
f 257 255 162
f 257 162 163
f 258 153 256
f 259 257 163
f 259 163 166
f 260 153 258
f 260 151 153
f 261 259 166
f 261 166 167
f 262 151 260
f 262 149 151
f 263 261 167
f 263 167 169
f 264 149 262
f 264 147 149
f 265 263 169
f 265 169 172
f 266 147 264
f 266 143 145
f 266 145 147
f 267 265 172
f 267 172 174
f 268 143 266
f 269 267 174
f 269 174 175
f 270 143 268
f 270 139 141
f 270 141 143
f 271 269 175
f 271 175 177
f 272 139 270
f 273 271 177
f 273 177 179
f 273 179 181
f 274 139 272
f 274 137 139
f 275 273 181
f 276 135 137
f 276 137 274
f 277 275 181
f 277 181 183
f 278 133 135
f 278 135 276
f 279 277 183
f 279 183 185
f 279 185 187
f 280 133 278
f 280 131 133
f 281 279 187
f 281 187 189
f 282 131 280
f 282 127 129
f 282 129 131
f 283 281 189
f 284 127 282
f 285 283 189
f 285 189 191
f 286 125 127
f 286 127 284
f 287 285 191
f 287 191 194
f 288 123 125
f 288 125 286
f 289 194 195
f 289 287 194
f 290 123 288
f 290 121 123
f 291 289 195
f 291 195 197
f 292 121 290
f 292 117 119
f 292 119 121
f 293 291 197
f 293 197 199
f 293 199 201
f 294 117 292
f 295 293 201
f 296 117 294
f 296 115 117
f 297 201 203
f 297 295 201
f 298 115 296
f 298 113 115
f 299 203 206
f 299 297 203
f 300 113 298
f 300 111 113
f 301 206 207
f 301 299 206
f 302 111 300
f 302 107 109
f 302 109 111
f 303 207 209
f 303 301 207
f 304 107 302
f 305 209 212
f 305 212 214
f 305 303 209
f 306 107 304
f 306 103 105
f 306 105 107
f 307 305 214
f 308 103 306
f 309 214 215
f 309 307 214
f 310 101 103
f 310 103 308
f 99 101 310
f 311 215 217
f 311 309 215
f 312 99 310
f 313 217 220
f 313 311 217
f 314 97 99
f 314 99 312
f 315 220 221
f 315 313 220
f 96 314 316
f 96 97 314
f 223 317 315
f 223 315 221
f 94 96 316
f 94 316 318
f 319 317 223
f 225 319 223
f 91 94 318
f 91 318 320
f 227 319 225
f 227 321 319
f 227 322 321
f 89 91 320
f 89 320 323
f 229 322 227
f 87 89 323
f 87 323 324
f 232 322 229
f 232 325 322
f 232 326 325
f 85 87 324
f 85 324 327
f 233 326 232
f 83 85 327
f 83 327 328
f 235 326 233
f 235 329 326
f 82 83 328
f 82 328 330
f 238 329 235
f 238 331 329
f 238 332 331
f 79 330 333
f 79 82 330
f 239 332 238
f 77 333 334
f 77 79 333
f 241 335 332
f 241 336 335
f 241 332 239
f 75 337 338
f 75 334 337
f 75 77 334
f 243 336 241
f 73 75 338
f 245 339 336
f 245 336 243
f 71 73 338
f 71 338 340
f 247 339 245
f 247 341 339
f 69 71 340
f 69 342 343
f 69 340 342
f 250 344 341
f 250 341 247
f 67 69 343
f 67 343 345
f 251 344 250
f 251 346 344
f 66 67 345
f 66 345 347
f 2 348 349
f 2 349 346
f 2 346 251
f 63 66 347
f 1 348 2
f 61 347 350
f 61 63 347
f 5 351 348
f 5 348 1
f 59 350 352
f 59 61 350
f 7 353 351
f 7 351 5
f 57 354 355
f 57 352 354
f 57 59 352
f 10 356 353
f 10 357 356
f 10 353 7
f 56 57 355
f 56 355 358
f 11 357 10
f 53 56 358
f 53 358 359
f 13 360 357
f 13 361 360
f 13 357 11
f 51 53 359
f 16 361 13
f 50 51 359
f 50 362 363
f 50 359 362
f 18 361 16
f 18 364 361
f 48 50 363
f 19 364 18
f 19 365 364
f 19 366 365
f 46 48 363
f 46 367 368
f 46 363 367
f 21 366 19
f 43 46 368
f 23 366 21
f 23 369 366
f 42 43 368
f 42 370 371
f 42 368 370
f 25 372 369
f 25 369 23
f 25 373 372
f 39 42 371
f 28 374 373
f 28 373 25
f 37 39 371
f 37 371 375
f 29 374 28
f 36 376 377
f 36 375 376
f 36 37 375
f 31 378 374
f 31 377 378
f 31 374 29
f 33 36 377
f 33 377 31
f 156 379 158
f 158 379 159
f 159 379 380
f 159 381 161
f 380 381 159
f 154 382 156
f 156 382 379
f 381 383 161
f 161 383 164
f 154 384 382
f 383 385 164
f 164 385 165
f 154 386 384
f 152 386 154
f 385 387 165
f 165 387 168
f 152 388 386
f 150 388 152
f 387 389 168
f 168 389 170
f 150 390 388
f 148 390 150
f 389 391 170
f 170 391 171
f 148 392 390
f 144 392 146
f 146 392 148
f 391 393 171
f 171 393 173
f 144 394 392
f 393 395 173
f 173 395 176
f 144 396 394
f 140 396 142
f 142 396 144
f 395 397 176
f 176 397 178
f 140 398 396
f 397 399 178
f 178 399 180
f 180 399 182
f 140 400 398
f 138 400 140
f 399 401 182
f 136 402 138
f 138 402 400
f 401 403 182
f 182 403 184
f 134 404 136
f 136 404 402
f 403 405 184
f 184 405 186
f 186 405 188
f 134 406 404
f 132 406 134
f 405 407 188
f 188 407 190
f 132 408 406
f 128 408 130
f 130 408 132
f 407 409 190
f 128 410 408
f 409 411 190
f 190 411 192
f 126 412 128
f 128 412 410
f 411 413 192
f 192 413 193
f 124 414 126
f 126 414 412
f 193 415 196
f 413 415 193
f 124 416 414
f 122 416 124
f 415 417 196
f 196 417 198
f 122 418 416
f 118 418 120
f 120 418 122
f 417 419 198
f 198 419 200
f 200 419 202
f 118 420 418
f 419 421 202
f 118 422 420
f 116 422 118
f 202 423 204
f 421 423 202
f 116 424 422
f 114 424 116
f 204 425 205
f 423 425 204
f 114 426 424
f 112 426 114
f 205 427 208
f 425 427 205
f 112 428 426
f 108 428 110
f 110 428 112
f 208 429 210
f 427 429 208
f 108 430 428
f 210 431 211
f 211 431 213
f 429 431 210
f 108 432 430
f 104 432 106
f 106 432 108
f 431 433 213
f 104 434 432
f 213 435 216
f 433 435 213
f 102 436 104
f 104 436 434
f 102 100 436
f 216 437 218
f 435 437 216
f 100 438 436
f 218 439 219
f 437 439 218
f 98 440 100
f 100 440 438
f 219 441 222
f 439 441 219
f 440 95 442
f 98 95 440
f 443 224 441
f 441 224 222
f 95 93 442
f 442 93 444
f 443 445 224
f 445 226 224
f 93 92 444
f 444 92 446
f 445 228 226
f 447 228 445
f 448 228 447
f 92 90 446
f 446 90 449
f 448 230 228
f 90 88 449
f 449 88 450
f 448 231 230
f 451 231 448
f 452 231 451
f 88 86 450
f 450 86 453
f 452 234 231
f 86 84 453
f 453 84 454
f 452 236 234
f 455 236 452
f 84 81 454
f 454 81 456
f 455 237 236
f 457 237 455
f 458 237 457
f 456 80 459
f 81 80 456
f 458 240 237
f 459 78 460
f 80 78 459
f 461 242 458
f 462 242 461
f 458 242 240
f 463 76 464
f 460 76 463
f 78 76 460
f 462 244 242
f 76 74 464
f 465 246 462
f 462 246 244
f 74 72 464
f 464 72 466
f 465 248 246
f 467 248 465
f 72 70 466
f 468 70 469
f 466 70 468
f 470 249 467
f 467 249 248
f 70 68 469
f 469 68 471
f 470 252 249
f 472 252 470
f 68 65 471
f 471 65 473
f 474 3 475
f 475 3 472
f 472 3 252
f 65 64 473
f 474 4 3
f 473 62 476
f 64 62 473
f 477 6 474
f 474 6 4
f 476 60 478
f 62 60 476
f 479 8 477
f 477 8 6
f 480 58 481
f 478 58 480
f 60 58 478
f 482 9 479
f 483 9 482
f 479 9 8
f 58 55 481
f 481 55 484
f 483 12 9
f 55 54 484
f 484 54 485
f 486 14 483
f 487 14 486
f 483 14 12
f 54 52 485
f 487 15 14
f 52 49 485
f 488 49 489
f 485 49 488
f 487 17 15
f 490 17 487
f 49 47 489
f 490 20 17
f 491 20 490
f 492 20 491
f 47 45 489
f 493 45 494
f 489 45 493
f 492 22 20
f 45 44 494
f 492 24 22
f 495 24 492
f 44 41 494
f 496 41 497
f 494 41 496
f 498 26 495
f 495 26 24
f 499 26 498
f 41 40 497
f 500 27 499
f 499 27 26
f 40 38 497
f 497 38 501
f 500 30 27
f 502 35 503
f 501 35 502
f 38 35 501
f 504 32 500
f 503 32 504
f 500 32 30
f 35 34 503
f 503 34 32
f 349 348 475
f 475 348 474
f 474 351 477
f 348 351 474
f 477 353 479
f 479 353 482
f 351 353 477
f 353 356 482
f 482 357 483
f 356 357 482
f 483 360 486
f 486 360 487
f 357 360 483
f 487 361 490
f 360 361 487
f 361 364 490
f 490 365 491
f 364 365 490
f 491 366 492
f 365 366 491
f 366 369 492
f 492 369 495
f 369 372 495
f 495 372 498
f 498 372 499
f 372 373 499
f 373 374 499
f 499 374 500
f 374 378 500
f 500 378 504
f 378 377 504
f 504 377 503
f 503 377 502
f 377 376 502
f 376 375 502
f 502 375 501
f 375 371 501
f 501 371 497
f 497 371 496
f 371 370 496
f 370 368 496
f 496 368 494
f 494 368 493
f 368 367 493
f 493 367 489
f 489 363 488
f 367 363 489
f 363 362 488
f 362 359 488
f 488 359 485
f 485 358 484
f 484 358 481
f 359 358 485
f 358 355 481
f 481 354 480
f 355 354 481
f 480 352 478
f 354 352 480
f 478 350 476
f 352 350 478
f 476 347 473
f 473 347 471
f 350 347 476
f 347 345 471
f 471 343 469
f 345 343 471
f 469 342 468
f 343 342 469
f 468 340 466
f 342 340 468
f 466 338 464
f 340 338 466
f 338 337 464
f 464 337 463
f 337 334 463
f 463 334 460
f 334 333 460
f 460 333 459
f 459 333 456
f 333 330 456
f 330 328 456
f 456 328 454
f 328 327 454
f 454 327 453
f 327 324 453
f 453 324 450
f 324 323 450
f 450 323 449
f 323 320 449
f 449 320 446
f 446 320 444
f 320 318 444
f 444 318 442
f 318 316 442
f 316 314 442
f 442 314 440
f 314 312 440
f 440 312 438
f 312 310 438
f 438 310 436
f 310 308 436
f 436 308 434
f 308 306 434
f 434 306 432
f 306 304 432
f 432 304 430
f 304 302 430
f 430 302 428
f 302 300 428
f 428 300 426
f 300 298 426
f 426 298 424
f 298 296 424
f 424 296 422
f 422 294 420
f 296 294 422
f 420 292 418
f 294 292 420
f 418 290 416
f 292 290 418
f 416 288 414
f 290 288 416
f 288 286 414
f 414 286 412
f 286 284 412
f 412 284 410
f 284 282 410
f 410 282 408
f 282 280 408
f 408 280 406
f 280 278 406
f 406 278 404
f 278 276 404
f 404 276 402
f 276 274 402
f 402 274 400
f 274 272 400
f 400 272 398
f 272 270 398
f 398 270 396
f 270 268 396
f 396 268 394
f 268 266 394
f 394 266 392
f 266 264 392
f 392 264 390
f 264 262 390
f 390 262 388
f 388 260 386
f 262 260 388
f 386 258 384
f 260 258 386
f 384 256 382
f 258 256 384
f 382 253 379
f 379 253 380
f 256 253 382
f 380 254 381
f 253 254 380
f 254 255 381
f 381 257 383
f 383 257 385
f 255 257 381
f 257 259 385
f 385 261 387
f 259 261 385
f 387 263 389
f 389 263 391
f 261 263 387
f 391 265 393
f 263 265 391
f 265 267 393
f 393 269 395
f 267 269 393
f 269 271 395
f 395 271 397
f 271 273 397
f 397 273 399
f 273 275 399
f 399 275 401
f 275 277 401
f 401 277 403
f 403 279 405
f 277 279 403
f 405 281 407
f 279 281 405
f 407 283 409
f 281 283 407
f 409 285 411
f 411 285 413
f 283 285 409
f 285 287 413
f 413 289 415
f 287 289 413
f 415 291 417
f 289 291 415
f 417 293 419
f 291 293 417
f 419 295 421
f 293 295 419
f 421 297 423
f 423 297 425
f 295 297 421
f 297 299 425
f 425 301 427
f 299 301 425
f 427 303 429
f 429 303 431
f 301 303 427
f 431 305 433
f 303 305 431
f 305 307 433
f 433 309 435
f 307 309 433
f 435 311 437
f 437 311 439
f 309 311 435
f 311 313 439
f 439 315 441
f 313 315 439
f 441 317 443
f 315 317 441
f 317 319 443
f 443 319 445
f 319 321 445
f 445 321 447
f 321 322 447
f 447 322 448
f 448 322 451
f 322 325 451
f 325 326 451
f 451 326 452
f 326 329 452
f 452 329 455
f 455 329 457
f 329 331 457
f 331 332 457
f 457 332 458
f 332 335 458
f 458 335 461
f 335 336 461
f 461 336 462
f 336 339 462
f 462 339 465
f 339 341 465
f 465 341 467
f 467 341 470
f 341 344 470
f 470 346 472
f 472 346 475
f 344 346 470
f 346 349 475
